<svg id="svg" version="1.1" xmlns="http://www.w3.org/2000/svg" xmlns:xlink="http://www.w3.org/1999/xlink" width="400" height="400" viewBox="0, 0, 400,400"><g id="svgg"><path id="path0" d="M190.000 55.000 L 190.000 56.800 188.400 56.800 L 186.800 56.800 186.800 61.800 L 186.800 66.800 188.400 66.800 L 190.000 66.800 190.000 86.800 L 190.000 106.800 188.400 106.800 L 186.800 106.800 186.800 111.800 L 186.800 116.800 185.000 116.800 L 183.200 116.800 183.200 120.000 L 183.200 123.200 181.600 123.200 L 180.000 123.200 180.000 130.000 L 180.000 136.800 178.400 136.800 L 176.800 136.800 176.800 138.400 L 176.800 140.000 185.000 140.000 L 193.200 140.000 193.200 141.600 L 193.200 143.200 191.600 143.200 L 190.000 143.200 190.000 148.400 L 190.000 153.600 185.000 153.600 L 180.000 153.600 180.000 151.800 L 180.000 150.000 178.400 150.000 L 176.800 150.000 176.800 151.600 L 176.800 153.200 175.000 153.200 L 173.200 153.200 173.200 163.204 L 173.200 173.208 191.500 173.104 L 209.800 173.000 209.800 171.500 C 209.800 170.001,209.802 169.999,211.500 170.000 L 213.200 170.000 213.200 168.200 L 213.200 166.400 215.000 166.400 L 216.800 166.400 216.800 154.800 L 216.800 143.200 215.000 143.200 L 213.200 143.200 213.200 148.400 L 213.200 153.600 208.200 153.600 L 203.200 153.600 203.200 151.800 L 203.200 150.000 201.600 150.000 L 200.000 150.000 200.000 148.400 L 200.000 146.800 198.400 146.800 L 196.800 146.800 196.800 143.400 L 196.800 140.000 206.800 140.000 L 216.800 140.000 216.800 138.400 L 216.800 136.800 215.000 136.800 L 213.200 136.800 213.200 131.800 L 213.200 126.800 211.600 126.800 L 210.000 126.800 210.000 121.800 L 210.000 116.800 208.400 116.800 L 206.800 116.800 206.800 113.400 L 206.800 110.000 205.000 110.000 L 203.200 110.000 203.200 106.600 L 203.200 103.200 201.600 103.200 L 200.000 103.200 200.000 101.600 L 200.000 100.000 198.400 100.000 L 196.800 100.000 196.800 98.400 L 196.800 96.800 195.000 96.800 L 193.200 96.800 193.200 83.400 L 193.200 70.000 195.000 70.000 L 196.800 70.000 196.800 61.600 L 196.800 53.200 193.400 53.200 L 190.000 53.200 190.000 55.000 M203.200 128.400 L 203.200 130.000 205.000 130.000 L 206.800 130.000 206.800 133.400 L 206.800 136.800 205.000 136.800 L 203.200 136.800 203.200 133.400 L 203.200 130.000 201.600 130.000 L 200.000 130.000 200.000 128.400 L 200.000 126.800 201.600 126.800 L 203.200 126.800 203.200 128.400 M203.200 158.200 L 203.200 160.000 205.000 160.000 L 206.800 160.000 206.800 163.400 L 206.800 166.800 195.000 166.800 L 183.200 166.800 183.200 165.000 L 183.200 163.200 181.600 163.200 L 180.000 163.200 180.000 161.600 L 180.000 160.000 181.600 160.000 L 183.200 160.000 183.200 158.200 L 183.200 156.400 193.200 156.400 L 203.200 156.400 203.200 158.200 M213.200 178.400 L 213.200 180.000 211.600 180.000 L 210.000 180.000 210.000 181.600 L 210.000 183.200 211.600 183.200 L 213.200 183.200 213.200 185.000 L 213.200 186.800 211.600 186.800 L 210.000 186.800 210.000 185.200 L 210.000 183.600 191.600 183.600 L 173.200 183.600 173.200 190.200 L 173.200 196.800 175.000 196.800 L 176.800 196.800 176.800 205.000 L 176.800 213.200 178.400 213.200 L 180.000 213.200 180.000 220.000 L 180.000 226.800 181.600 226.800 L 183.200 226.800 183.200 233.400 L 183.200 240.000 185.000 240.000 L 186.800 240.000 186.800 245.000 L 186.800 250.000 188.400 250.000 L 190.000 250.000 190.000 253.400 L 190.000 256.800 191.600 256.800 L 193.200 256.800 193.200 258.400 L 193.200 260.000 195.000 260.000 L 196.800 260.000 196.800 261.600 L 196.800 263.200 198.400 263.200 L 200.000 263.200 200.000 265.000 L 200.000 266.800 201.600 266.800 L 203.200 266.800 203.200 268.400 L 203.200 270.000 205.000 270.000 L 206.800 270.000 206.800 271.600 L 206.800 273.200 208.400 273.200 L 210.000 273.200 210.000 275.000 L 210.000 276.800 211.600 276.800 L 213.200 276.800 213.200 278.400 L 213.200 280.000 215.000 280.000 L 216.800 280.000 216.800 281.600 L 216.800 283.200 218.400 283.200 L 220.000 283.200 220.000 286.600 L 220.000 290.000 221.600 290.000 L 223.200 290.000 223.200 286.600 L 223.200 283.200 225.000 283.200 L 226.800 283.200 226.800 286.600 L 226.800 290.000 230.000 290.000 L 233.200 290.000 233.200 291.600 L 233.200 293.200 230.000 293.200 L 226.800 293.200 226.800 295.000 L 226.800 296.800 230.000 296.800 L 233.200 296.800 233.200 298.400 L 233.200 300.000 236.600 300.000 L 240.000 300.000 240.000 301.600 L 240.000 303.200 243.400 303.200 L 246.800 303.200 246.800 305.000 L 246.800 306.800 253.400 306.800 L 260.000 306.800 260.000 308.400 L 260.000 310.000 261.600 310.000 L 263.200 310.000 263.200 311.600 L 263.200 313.200 270.000 313.200 L 276.800 313.200 276.800 310.000 L 276.800 306.800 275.000 306.800 L 273.200 306.800 273.200 305.000 L 273.200 303.200 271.600 303.200 L 270.000 303.200 270.000 301.600 L 270.000 300.000 268.400 300.000 L 266.800 300.000 266.800 298.400 L 266.800 296.800 265.000 296.800 L 263.200 296.800 263.200 295.000 L 263.200 293.200 261.600 293.200 L 260.000 293.200 260.000 291.600 L 260.000 290.000 258.400 290.000 L 256.800 290.000 256.800 288.400 L 256.800 286.800 255.000 286.800 L 253.200 286.800 253.200 285.000 L 253.200 283.200 251.600 283.200 L 250.000 283.200 250.000 281.600 L 250.000 280.000 248.400 280.000 L 246.800 280.000 246.800 278.400 L 246.800 276.800 245.000 276.800 L 243.200 276.800 243.200 275.000 L 243.200 273.200 241.600 273.200 L 240.000 273.200 240.000 270.000 L 240.000 266.800 238.400 266.800 L 236.800 266.800 236.800 263.400 L 236.800 260.000 235.000 260.000 L 233.200 260.000 233.200 256.600 L 233.200 253.200 231.600 253.200 L 230.000 253.200 230.000 250.000 L 230.000 246.800 228.400 246.800 L 226.800 246.800 226.800 241.800 L 226.800 236.800 225.000 236.800 L 223.200 236.800 223.200 231.800 L 223.200 226.800 221.600 226.800 L 220.000 226.800 220.000 218.400 L 220.000 210.000 218.400 210.000 L 216.800 210.000 216.800 201.600 L 216.800 193.200 215.000 193.200 L 213.200 193.200 213.200 190.000 L 213.200 186.800 215.000 186.800 L 216.800 186.800 216.800 181.800 L 216.800 176.800 215.000 176.800 L 213.200 176.800 213.200 178.400 M186.800 188.400 L 186.800 190.000 185.000 190.000 L 183.200 190.000 183.200 193.400 L 183.200 196.800 181.600 196.800 L 180.000 196.800 180.000 193.400 L 180.000 190.000 181.600 190.000 L 183.200 190.000 183.200 188.400 L 183.200 186.800 185.000 186.800 L 186.800 186.800 186.800 188.400 M210.000 188.400 L 210.000 190.000 206.600 190.000 L 203.200 190.000 203.200 191.600 L 203.200 193.200 201.600 193.200 L 200.000 193.200 200.000 191.600 L 200.000 190.000 201.600 190.000 L 203.200 190.000 203.200 188.400 L 203.200 186.800 206.600 186.800 L 210.000 186.800 210.000 188.400 M166.800 200.000 L 166.800 203.200 165.000 203.200 L 163.200 203.200 163.200 211.600 L 163.200 220.000 161.600 220.000 L 160.000 220.000 160.000 225.000 L 160.000 230.000 161.600 230.000 L 163.200 230.000 163.200 233.400 L 163.200 236.800 165.000 236.800 L 166.800 236.800 166.800 233.400 L 166.800 230.000 165.000 230.000 L 163.200 230.000 163.200 226.600 L 163.200 223.200 165.000 223.200 L 166.800 223.200 166.800 215.000 L 166.800 206.800 168.400 206.800 L 170.000 206.800 170.000 201.800 L 170.000 196.800 168.400 196.800 L 166.800 196.800 166.800 200.000 M213.200 238.400 L 213.200 240.000 211.600 240.000 L 210.000 240.000 210.000 241.600 L 210.000 243.200 211.600 243.200 L 213.200 243.200 213.200 245.000 L 213.200 246.800 211.600 246.800 L 210.000 246.800 210.000 245.000 L 210.000 243.200 208.400 243.200 L 206.800 243.200 206.800 241.600 L 206.800 240.000 208.400 240.000 L 210.000 240.000 210.000 238.400 L 210.000 236.800 211.600 236.800 L 213.200 236.800 213.200 238.400 M166.800 241.600 L 166.800 243.200 168.400 243.200 L 170.000 243.200 170.000 241.600 L 170.000 240.000 168.400 240.000 L 166.800 240.000 166.800 241.600 M196.800 243.400 L 196.800 246.800 198.400 246.800 L 200.000 246.800 200.000 250.000 L 200.000 253.200 201.600 253.200 L 203.200 253.200 203.200 256.600 L 203.200 260.000 206.600 260.000 L 210.000 260.000 210.000 261.600 L 210.000 263.200 211.600 263.200 L 213.200 263.200 213.200 265.000 L 213.200 266.800 211.600 266.800 L 210.000 266.800 210.000 265.000 L 210.000 263.200 206.600 263.200 L 203.200 263.200 203.200 261.600 L 203.200 260.000 201.600 260.000 L 200.000 260.000 200.000 256.600 L 200.000 253.200 198.400 253.200 L 196.800 253.200 196.800 250.000 L 196.800 246.800 195.000 246.800 L 193.200 246.800 193.200 243.400 L 193.200 240.000 195.000 240.000 L 196.800 240.000 196.800 243.400 M170.000 248.400 L 170.000 250.000 171.600 250.000 L 173.200 250.000 173.200 248.400 L 173.200 246.800 171.600 246.800 L 170.000 246.800 170.000 248.400 M173.200 255.000 L 173.200 256.800 175.000 256.800 L 176.800 256.800 176.800 258.400 L 176.800 260.000 178.400 260.000 L 180.000 260.000 180.000 261.600 L 180.000 263.200 181.600 263.200 L 183.200 263.200 183.200 265.000 L 183.200 266.800 185.000 266.800 L 186.800 266.800 186.800 263.400 L 186.800 260.000 185.000 260.000 L 183.200 260.000 183.200 258.400 L 183.200 256.800 180.000 256.800 L 176.800 256.800 176.800 255.000 L 176.800 253.200 175.000 253.200 L 173.200 253.200 173.200 255.000 M226.800 261.600 L 226.800 263.200 228.400 263.200 L 230.000 263.200 230.000 266.600 L 230.000 270.000 231.600 270.000 L 233.200 270.000 233.200 271.600 L 233.200 273.200 231.600 273.200 L 230.000 273.200 230.000 271.600 L 230.000 270.000 228.400 270.000 L 226.800 270.000 226.800 266.600 L 226.800 263.200 225.000 263.200 L 223.200 263.200 223.200 261.600 L 223.200 260.000 225.000 260.000 L 226.800 260.000 226.800 261.600 M223.200 280.000 L 223.200 283.200 221.600 283.200 L 220.000 283.200 220.000 280.000 L 220.000 276.800 221.600 276.800 L 223.200 276.800 223.200 280.000 " stroke="none" fill="#fcd204" fill-rule="evenodd"></path><path id="path1" d="M186.800 55.000 L 186.800 56.800 185.000 56.800 L 183.200 56.800 183.200 61.800 L 183.200 66.800 185.000 66.800 L 186.800 66.800 186.800 68.400 L 186.800 70.000 188.400 70.000 L 190.000 70.000 190.000 68.400 L 190.000 66.800 188.400 66.800 L 186.800 66.800 186.800 61.800 L 186.800 56.800 188.400 56.800 L 190.000 56.800 190.000 55.000 L 190.000 53.200 188.400 53.200 L 186.800 53.200 186.800 55.000 M186.800 98.400 L 186.800 100.000 185.000 100.000 L 183.200 100.000 183.200 101.600 L 183.200 103.200 181.600 103.200 L 180.000 103.200 180.000 105.000 L 180.000 106.800 178.400 106.800 L 176.800 106.800 176.800 108.400 L 176.800 110.000 175.000 110.000 L 173.200 110.000 173.200 111.600 L 173.200 113.200 171.600 113.200 L 170.000 113.200 170.000 116.600 L 170.000 120.000 168.400 120.000 L 166.800 120.000 166.800 123.400 L 166.800 126.800 165.000 126.800 L 163.200 126.800 163.200 131.800 L 163.200 136.800 161.600 136.800 L 160.000 136.800 160.000 146.800 L 160.000 156.800 158.400 156.800 L 156.800 156.800 156.800 161.600 L 156.800 166.400 160.000 166.400 L 163.200 166.400 163.200 168.200 L 163.200 170.000 168.200 170.000 L 173.200 170.000 173.200 161.600 L 173.200 153.200 175.000 153.200 L 176.800 153.200 176.800 150.000 L 176.800 146.800 175.000 146.800 L 173.200 146.800 173.200 143.400 L 173.200 140.000 175.000 140.000 L 176.800 140.000 176.800 138.400 L 176.800 136.800 178.400 136.800 L 180.000 136.800 180.000 130.000 L 180.000 123.200 181.600 123.200 L 183.200 123.200 183.200 120.000 L 183.200 116.800 185.000 116.800 L 186.800 116.800 186.800 113.400 L 186.800 110.000 185.000 110.000 L 183.200 110.000 183.200 108.400 L 183.200 106.800 186.600 106.800 L 190.000 106.800 190.000 101.800 L 190.000 96.800 188.400 96.800 L 186.800 96.800 186.800 98.400 M183.200 113.400 L 183.200 116.800 181.600 116.800 L 180.000 116.800 180.000 120.000 L 180.000 123.200 178.400 123.200 L 176.800 123.200 176.800 126.600 L 176.800 130.000 175.000 130.000 L 173.200 130.000 173.200 126.600 L 173.200 123.200 175.000 123.200 L 176.800 123.200 176.800 120.000 L 176.800 116.800 178.400 116.800 L 180.000 116.800 180.000 113.400 L 180.000 110.000 181.600 110.000 L 183.200 110.000 183.200 113.400 M156.895 189.900 L 157.000 203.000 158.400 203.000 L 159.800 203.000 159.917 199.900 L 160.034 196.800 161.617 196.800 L 163.200 196.800 163.200 199.976 L 163.200 203.152 161.700 203.276 L 160.200 203.400 160.092 211.700 L 159.984 220.000 158.392 220.000 L 156.800 220.000 156.800 225.000 L 156.800 230.000 158.400 230.000 L 160.000 230.000 160.000 235.000 L 160.000 240.000 161.584 240.000 L 163.168 240.000 163.284 243.300 L 163.400 246.600 165.084 246.722 L 166.767 246.844 166.884 249.922 L 167.000 253.000 168.478 253.123 C 169.905 253.241,169.960 253.304,170.078 254.923 C 170.196 256.542,170.251 256.604,171.677 256.723 C 173.065 256.838,173.162 256.935,173.277 258.323 C 173.396 259.750,173.457 259.804,175.088 259.922 L 176.776 260.045 176.888 264.922 L 177.000 269.800 180.000 269.800 L 183.000 269.800 183.116 266.500 L 183.232 263.200 181.616 263.200 L 180.000 263.200 180.000 261.600 L 180.000 260.000 178.400 260.000 L 176.800 260.000 176.800 258.400 L 176.800 256.800 175.000 256.800 L 173.200 256.800 173.200 253.400 L 173.200 250.000 171.600 250.000 L 170.000 250.000 170.000 246.600 L 170.000 243.200 168.400 243.200 L 166.800 243.200 166.800 240.000 L 166.800 236.800 165.000 236.800 L 163.200 236.800 163.200 233.400 L 163.200 230.000 161.600 230.000 L 160.000 230.000 160.000 225.000 L 160.000 220.000 161.600 220.000 L 163.200 220.000 163.200 211.600 L 163.200 203.200 165.000 203.200 L 166.800 203.200 166.800 200.000 L 166.800 196.800 170.000 196.800 L 173.200 196.800 173.200 201.800 L 173.200 206.800 171.600 206.800 L 170.000 206.800 170.000 215.000 L 170.000 223.200 168.400 223.200 L 166.800 223.200 166.800 226.600 L 166.800 230.000 168.400 230.000 L 170.000 230.000 170.000 235.000 L 170.000 240.000 171.600 240.000 L 173.200 240.000 173.200 243.400 L 173.200 246.800 175.000 246.800 L 176.800 246.800 176.800 250.000 L 176.800 253.200 180.000 253.200 L 183.200 253.200 183.200 255.000 L 183.200 256.800 186.600 256.800 L 190.000 256.800 190.000 261.800 L 190.000 266.800 188.400 266.800 C 186.804 266.800,186.800 266.804,186.800 268.377 C 186.800 269.946,186.792 269.955,185.100 270.077 C 183.455 270.196,183.396 270.248,183.277 271.677 C 183.162 273.065,183.065 273.162,181.677 273.277 L 180.200 273.400 180.084 276.700 L 179.968 280.000 181.584 280.000 L 183.200 280.000 183.200 283.400 L 183.200 286.800 185.000 286.800 L 186.800 286.800 186.800 285.000 L 186.800 283.200 190.000 283.200 L 193.200 283.200 193.200 285.000 L 193.200 286.800 196.600 286.800 L 200.000 286.800 200.000 288.400 L 200.000 290.000 201.600 290.000 L 203.200 290.000 203.200 291.600 L 203.200 293.200 205.000 293.200 L 206.800 293.200 206.800 295.000 L 206.800 296.800 208.400 296.800 L 210.000 296.800 210.000 300.000 L 210.000 303.200 208.400 303.200 L 206.800 303.200 206.800 305.000 L 206.800 306.800 208.400 306.800 L 210.000 306.800 210.000 308.400 L 210.000 310.000 213.400 310.000 L 216.800 310.000 216.800 311.600 L 216.800 313.200 220.000 313.200 L 223.200 313.200 223.200 315.000 L 223.200 316.800 228.200 316.800 L 233.200 316.800 233.200 318.400 L 233.200 320.000 241.600 320.000 L 250.000 320.000 250.000 321.600 L 250.000 323.200 256.600 323.200 L 263.200 323.200 263.200 321.600 L 263.200 320.000 268.200 320.000 L 273.200 320.000 273.200 318.400 L 273.200 316.800 275.000 316.800 L 276.800 316.800 276.800 315.000 L 276.800 313.200 270.000 313.200 L 263.200 313.200 263.200 311.600 L 263.200 310.000 261.600 310.000 L 260.000 310.000 260.000 308.400 L 260.000 306.800 253.400 306.800 L 246.800 306.800 246.800 305.000 L 246.800 303.200 243.400 303.200 L 240.000 303.200 240.000 301.600 L 240.000 300.000 236.600 300.000 L 233.200 300.000 233.200 298.400 L 233.200 296.800 230.000 296.800 L 226.800 296.800 226.800 293.400 L 226.800 290.000 223.400 290.000 L 220.000 290.000 220.000 286.600 L 220.000 283.200 218.400 283.200 L 216.800 283.200 216.800 281.600 L 216.800 280.000 215.000 280.000 L 213.200 280.000 213.200 278.400 L 213.200 276.800 211.600 276.800 L 210.000 276.800 210.000 275.000 L 210.000 273.200 208.400 273.200 L 206.800 273.200 206.800 271.600 L 206.800 270.000 205.000 270.000 L 203.200 270.000 203.200 268.400 L 203.200 266.800 201.600 266.800 L 200.000 266.800 200.000 265.000 L 200.000 263.200 198.400 263.200 L 196.800 263.200 196.800 261.600 L 196.800 260.000 195.000 260.000 L 193.200 260.000 193.200 258.400 L 193.200 256.800 191.600 256.800 L 190.000 256.800 190.000 253.400 L 190.000 250.000 188.400 250.000 L 186.800 250.000 186.800 245.000 L 186.800 240.000 185.000 240.000 L 183.200 240.000 183.200 233.400 L 183.200 226.800 181.600 226.800 L 180.000 226.800 180.000 220.000 L 180.000 213.200 178.400 213.200 L 176.800 213.200 176.800 205.000 L 176.800 196.800 175.000 196.800 L 173.200 196.800 173.200 188.400 L 173.200 180.000 168.200 180.000 L 163.200 180.000 163.200 178.400 L 163.200 176.800 159.995 176.800 L 156.789 176.800 156.895 189.900 M167.086 257.048 C 166.011 258.123,166.823 260.046,168.300 259.924 C 169.724 259.806,169.800 259.729,169.800 258.400 C 169.800 257.016,168.010 256.124,167.086 257.048 M170.286 260.248 C 170.129 260.405,170.000 261.954,170.000 263.691 L 170.000 266.848 171.500 266.724 L 173.000 266.600 173.000 263.400 L 173.000 260.200 171.786 260.081 C 171.118 260.016,170.443 260.091,170.286 260.248 " stroke="none" fill="#f4a404" fill-rule="evenodd"></path><path id="path2" d="M183.200 108.400 L 183.200 110.000 181.600 110.000 L 180.000 110.000 180.000 113.400 L 180.000 116.800 178.400 116.800 L 176.800 116.800 176.800 120.000 L 176.800 123.200 175.000 123.200 L 173.200 123.200 173.200 126.600 L 173.200 130.000 175.000 130.000 L 176.800 130.000 176.800 126.600 L 176.800 123.200 178.400 123.200 L 180.000 123.200 180.000 120.000 L 180.000 116.800 181.600 116.800 L 183.200 116.800 183.200 113.400 L 183.200 110.000 185.000 110.000 L 186.800 110.000 186.800 108.400 L 186.800 106.800 185.000 106.800 L 183.200 106.800 183.200 108.400 M200.000 128.400 L 200.000 130.000 201.600 130.000 L 203.200 130.000 203.200 133.400 L 203.200 136.800 205.000 136.800 L 206.800 136.800 206.800 133.400 L 206.800 130.000 205.000 130.000 L 203.200 130.000 203.200 128.400 L 203.200 126.800 201.600 126.800 L 200.000 126.800 200.000 128.400 M210.000 185.000 L 210.000 186.800 206.600 186.800 L 203.200 186.800 203.200 188.400 L 203.200 190.000 201.600 190.000 L 200.000 190.000 200.000 191.600 L 200.000 193.200 201.600 193.200 L 203.200 193.200 203.200 191.600 L 203.200 190.000 206.600 190.000 L 210.000 190.000 210.000 188.400 L 210.000 186.800 211.600 186.800 L 213.200 186.800 213.200 190.000 L 213.200 193.200 215.000 193.200 L 216.800 193.200 216.800 190.000 L 216.800 186.800 215.000 186.800 L 213.200 186.800 213.200 185.000 L 213.200 183.200 211.600 183.200 L 210.000 183.200 210.000 185.000 M183.200 188.400 L 183.200 190.000 181.600 190.000 L 180.000 190.000 180.000 193.400 L 180.000 196.800 181.600 196.800 L 183.200 196.800 183.200 193.400 L 183.200 190.000 185.000 190.000 L 186.800 190.000 186.800 188.400 L 186.800 186.800 185.000 186.800 L 183.200 186.800 183.200 188.400 M210.000 238.400 L 210.000 240.000 208.400 240.000 L 206.800 240.000 206.800 241.600 L 206.800 243.200 208.400 243.200 L 210.000 243.200 210.000 245.000 L 210.000 246.800 211.600 246.800 L 213.200 246.800 213.200 245.000 L 213.200 243.200 211.600 243.200 L 210.000 243.200 210.000 241.600 L 210.000 240.000 211.600 240.000 L 213.200 240.000 213.200 238.400 L 213.200 236.800 211.600 236.800 L 210.000 236.800 210.000 238.400 M193.200 243.400 L 193.200 246.800 195.000 246.800 L 196.800 246.800 196.800 250.000 L 196.800 253.200 198.400 253.200 L 200.000 253.200 200.000 256.600 L 200.000 260.000 201.600 260.000 L 203.200 260.000 203.200 261.600 L 203.200 263.200 206.600 263.200 L 210.000 263.200 210.000 265.000 L 210.000 266.800 211.600 266.800 L 213.200 266.800 213.200 265.000 L 213.200 263.200 211.600 263.200 L 210.000 263.200 210.000 261.600 L 210.000 260.000 206.600 260.000 L 203.200 260.000 203.200 256.600 L 203.200 253.200 201.600 253.200 L 200.000 253.200 200.000 250.000 L 200.000 246.800 198.400 246.800 L 196.800 246.800 196.800 243.400 L 196.800 240.000 195.000 240.000 L 193.200 240.000 193.200 243.400 M223.200 261.600 L 223.200 263.200 225.000 263.200 L 226.800 263.200 226.800 266.600 L 226.800 270.000 228.400 270.000 L 230.000 270.000 230.000 271.600 L 230.000 273.200 231.600 273.200 L 233.200 273.200 233.200 271.600 L 233.200 270.000 231.600 270.000 L 230.000 270.000 230.000 266.600 L 230.000 263.200 228.400 263.200 L 226.800 263.200 226.800 261.600 L 226.800 260.000 225.000 260.000 L 223.200 260.000 223.200 261.600 M220.000 280.000 L 220.000 283.200 221.600 283.200 L 223.200 283.200 223.200 286.600 L 223.200 290.000 225.000 290.000 L 226.800 290.000 226.800 291.600 L 226.800 293.200 230.000 293.200 L 233.200 293.200 233.200 291.600 L 233.200 290.000 230.000 290.000 L 226.800 290.000 226.800 286.600 L 226.800 283.200 225.000 283.200 L 223.200 283.200 223.200 280.000 L 223.200 276.800 221.600 276.800 L 220.000 276.800 220.000 280.000 " stroke="none" fill="#94541c" fill-rule="evenodd"></path><path id="path3" d="M186.800 51.600 L 186.800 53.200 185.000 53.200 L 183.200 53.200 183.200 55.000 L 183.200 56.800 181.600 56.800 L 180.000 56.800 180.000 61.800 L 180.000 66.800 181.600 66.800 L 183.200 66.800 183.200 68.400 L 183.200 70.000 185.000 70.000 L 186.800 70.000 186.800 83.400 L 186.800 96.800 185.000 96.800 L 183.200 96.800 183.200 98.400 L 183.200 100.000 181.600 100.000 L 180.000 100.000 180.000 101.600 L 180.000 103.200 178.400 103.200 L 176.800 103.200 176.800 105.000 L 176.800 106.800 175.000 106.800 L 173.200 106.800 173.200 108.400 L 173.200 110.000 171.600 110.000 L 170.000 110.000 170.000 111.600 L 170.000 113.200 168.400 113.200 L 166.800 113.200 166.800 116.600 L 166.800 120.000 165.000 120.000 L 163.200 120.000 163.200 123.400 L 163.200 126.800 161.600 126.800 L 160.000 126.800 160.000 131.800 L 160.000 136.800 158.400 136.800 L 156.800 136.800 156.800 146.800 L 156.800 156.800 155.000 156.800 L 153.200 156.800 153.200 181.800 L 153.200 206.800 155.000 206.800 L 156.800 206.800 156.800 213.400 L 156.800 220.000 155.000 220.000 L 153.200 220.000 153.200 225.000 L 153.200 230.000 155.000 230.000 L 156.800 230.000 156.800 235.000 L 156.800 240.000 158.400 240.000 L 160.000 240.000 160.000 245.000 L 160.000 250.000 161.600 250.000 L 163.200 250.000 163.200 255.000 L 163.200 260.000 165.000 260.000 L 166.800 260.000 166.800 263.400 L 166.800 266.800 168.400 266.800 L 170.000 266.800 170.000 268.400 L 170.000 270.000 171.600 270.000 L 173.200 270.000 173.200 271.600 L 173.200 273.200 175.000 273.200 L 176.800 273.200 176.800 276.600 L 176.800 280.000 178.400 280.000 L 180.000 280.000 180.000 283.400 L 180.000 286.800 181.600 286.800 L 183.200 286.800 183.200 288.400 L 183.200 290.000 185.000 290.000 L 186.800 290.000 186.800 303.400 L 186.800 316.800 185.000 316.800 L 183.200 316.800 183.200 323.400 L 183.200 330.000 181.600 330.000 L 180.000 330.000 180.000 335.000 L 180.000 340.000 178.200 340.000 L 176.400 340.000 176.400 343.400 L 176.400 346.800 178.200 346.800 L 180.000 346.800 180.000 348.400 L 180.000 350.000 193.400 350.000 L 206.800 350.000 206.800 348.400 L 206.800 346.800 205.000 346.800 L 203.200 346.800 203.200 345.000 L 203.200 343.200 201.600 343.200 L 200.000 343.200 200.000 341.600 L 200.000 340.000 198.400 340.000 L 196.800 340.000 196.800 338.400 L 196.800 336.800 195.000 336.800 L 193.200 336.800 193.200 333.400 L 193.200 330.000 195.000 330.000 L 196.800 330.000 196.800 325.000 L 196.800 320.000 198.400 320.000 L 200.000 320.000 200.000 316.600 L 200.000 313.200 201.600 313.200 L 203.200 313.200 203.200 311.600 L 203.200 310.000 206.600 310.000 L 210.000 310.000 210.000 311.600 L 210.000 313.200 213.400 313.200 L 216.800 313.200 216.800 321.600 L 216.800 330.000 215.000 330.000 L 213.200 330.000 213.200 335.000 L 213.200 340.000 211.600 340.000 L 210.000 340.000 210.000 343.400 L 210.000 346.800 211.600 346.800 L 213.200 346.800 213.200 348.400 L 213.200 350.000 228.400 350.000 L 243.600 350.000 243.600 348.400 L 243.600 346.800 241.800 346.800 L 240.000 346.800 240.000 345.000 L 240.000 343.200 236.600 343.200 L 233.200 343.200 233.200 341.600 L 233.200 340.000 231.600 340.000 L 230.000 340.000 230.000 338.400 L 230.000 336.800 228.400 336.800 L 226.800 336.800 226.800 331.800 L 226.800 326.800 228.400 326.800 L 230.000 326.800 230.000 323.400 L 230.000 320.000 231.600 320.000 L 233.200 320.000 233.200 321.600 L 233.200 323.200 241.600 323.200 L 250.000 323.200 250.000 325.000 L 250.000 326.800 256.600 326.800 L 263.200 326.800 263.200 325.000 L 263.200 323.200 268.200 323.200 L 273.200 323.200 273.200 321.600 L 273.200 320.000 275.000 320.000 L 276.800 320.000 276.800 318.400 L 276.800 316.800 278.400 316.800 L 280.000 316.800 280.000 311.800 L 280.000 306.800 278.400 306.800 L 276.800 306.800 276.800 305.000 L 276.800 303.200 275.000 303.200 L 273.200 303.200 273.200 301.600 L 273.200 300.000 271.600 300.000 L 270.000 300.000 270.000 298.400 L 270.000 296.800 268.400 296.800 L 266.800 296.800 266.800 295.000 L 266.800 293.200 265.000 293.200 L 263.200 293.200 263.200 291.600 L 263.200 290.000 261.600 290.000 L 260.000 290.000 260.000 288.400 L 260.000 286.800 258.400 286.800 L 256.800 286.800 256.800 285.000 L 256.800 283.200 255.000 283.200 L 253.200 283.200 253.200 281.600 L 253.200 280.000 251.600 280.000 L 250.000 280.000 250.000 278.400 L 250.000 276.800 248.400 276.800 L 246.800 276.800 246.800 275.000 L 246.800 273.200 245.000 273.200 L 243.200 273.200 243.200 270.000 L 243.200 266.800 241.600 266.800 L 240.000 266.800 240.000 263.400 L 240.000 260.000 238.400 260.000 L 236.800 260.000 236.800 256.600 L 236.800 253.200 235.000 253.200 L 233.200 253.200 233.200 250.000 L 233.200 246.800 231.600 246.800 L 230.000 246.800 230.000 241.800 L 230.000 236.800 228.400 236.800 L 226.800 236.800 226.800 231.800 L 226.800 226.800 225.000 226.800 L 223.200 226.800 223.200 218.400 L 223.200 210.000 221.600 210.000 L 220.000 210.000 220.000 173.400 L 220.000 136.800 218.400 136.800 L 216.800 136.800 216.800 131.800 L 216.800 126.800 215.000 126.800 L 213.200 126.800 213.200 121.800 L 213.200 116.800 211.600 116.800 L 210.000 116.800 210.000 113.400 L 210.000 110.000 208.400 110.000 L 206.800 110.000 206.800 106.600 L 206.800 103.200 205.000 103.200 L 203.200 103.200 203.200 101.600 L 203.200 100.000 201.600 100.000 L 200.000 100.000 200.000 98.400 L 200.000 96.800 198.400 96.800 L 196.800 96.800 196.800 83.400 L 196.800 70.000 198.400 70.000 L 200.000 70.000 200.000 61.600 L 200.000 53.200 198.400 53.200 L 196.800 53.200 196.800 51.600 L 196.800 50.000 191.800 50.000 L 186.800 50.000 186.800 51.600 M196.800 61.600 L 196.800 70.000 195.000 70.000 L 193.200 70.000 193.200 83.400 L 193.200 96.800 195.000 96.800 L 196.800 96.800 196.800 98.400 L 196.800 100.000 198.400 100.000 L 200.000 100.000 200.000 101.600 L 200.000 103.200 201.600 103.200 L 203.200 103.200 203.200 106.600 L 203.200 110.000 205.000 110.000 L 206.800 110.000 206.800 113.400 L 206.800 116.800 208.400 116.800 L 210.000 116.800 210.000 121.800 L 210.000 126.800 211.600 126.800 L 213.200 126.800 213.200 131.800 L 213.200 136.800 215.000 136.800 L 216.800 136.800 216.800 138.400 L 216.800 140.000 206.800 140.000 L 196.800 140.000 196.800 141.600 L 196.800 143.200 200.000 143.200 L 203.200 143.200 203.200 148.400 L 203.200 153.600 208.200 153.600 L 213.200 153.600 213.200 148.400 L 213.200 143.200 215.000 143.200 L 216.800 143.200 216.800 154.800 L 216.800 166.400 215.000 166.400 L 213.200 166.400 213.200 168.200 L 213.200 170.000 215.000 170.000 L 216.800 170.000 216.800 171.600 L 216.800 173.200 215.000 173.200 L 213.200 173.200 213.200 175.000 L 213.200 176.800 215.000 176.800 L 216.800 176.800 216.800 193.400 L 216.800 210.000 218.400 210.000 L 220.000 210.000 220.000 218.400 L 220.000 226.800 221.600 226.800 L 223.200 226.800 223.200 231.800 L 223.200 236.800 225.000 236.800 L 226.800 236.800 226.800 241.800 L 226.800 246.800 228.400 246.800 L 230.000 246.800 230.000 250.000 L 230.000 253.200 231.600 253.200 L 233.200 253.200 233.200 256.600 L 233.200 260.000 235.000 260.000 L 236.800 260.000 236.800 263.400 L 236.800 266.800 238.400 266.800 L 240.000 266.800 240.000 270.000 L 240.000 273.200 241.600 273.200 L 243.200 273.200 243.200 275.000 L 243.200 276.800 245.000 276.800 L 246.800 276.800 246.800 278.400 L 246.800 280.000 248.400 280.000 L 250.000 280.000 250.000 281.600 L 250.000 283.200 251.600 283.200 L 253.200 283.200 253.200 285.000 L 253.200 286.800 255.000 286.800 L 256.800 286.800 256.800 288.400 L 256.800 290.000 258.400 290.000 L 260.000 290.000 260.000 291.600 L 260.000 293.200 261.600 293.200 L 263.200 293.200 263.200 295.000 L 263.200 296.800 265.000 296.800 L 266.800 296.800 266.800 298.400 L 266.800 300.000 268.400 300.000 L 270.000 300.000 270.000 301.600 L 270.000 303.200 271.600 303.200 L 273.200 303.200 273.200 305.000 L 273.200 306.800 275.000 306.800 L 276.800 306.800 276.800 311.800 L 276.800 316.800 275.000 316.800 L 273.200 316.800 273.200 318.400 L 273.200 320.000 268.200 320.000 L 263.200 320.000 263.200 321.600 L 263.200 323.200 256.600 323.200 L 250.000 323.200 250.000 321.600 L 250.000 320.000 241.600 320.000 L 233.200 320.000 233.200 318.400 L 233.200 316.800 228.200 316.800 L 223.200 316.800 223.200 315.000 L 223.200 313.200 220.000 313.200 L 216.800 313.200 216.800 311.600 L 216.800 310.000 213.400 310.000 L 210.000 310.000 210.000 308.400 L 210.000 306.800 208.400 306.800 L 206.800 306.800 206.800 305.000 L 206.800 303.200 208.400 303.200 L 210.000 303.200 210.000 300.000 L 210.000 296.800 208.400 296.800 L 206.800 296.800 206.800 295.000 L 206.800 293.200 205.000 293.200 L 203.200 293.200 203.200 291.600 L 203.200 290.000 201.600 290.000 L 200.000 290.000 200.000 288.400 L 200.000 286.800 196.600 286.800 L 193.200 286.800 193.200 285.000 L 193.200 283.200 190.000 283.200 L 186.800 283.200 186.800 285.000 L 186.800 286.800 185.000 286.800 L 183.200 286.800 183.200 283.400 L 183.200 280.000 181.600 280.000 L 180.000 280.000 180.000 276.600 L 180.000 273.200 181.600 273.200 L 183.200 273.200 183.200 271.600 L 183.200 270.000 180.000 270.000 L 176.800 270.000 176.800 265.000 L 176.800 260.000 175.000 260.000 L 173.200 260.000 173.200 263.400 L 173.200 266.800 171.600 266.800 L 170.000 266.800 170.000 263.400 L 170.000 260.000 168.400 260.000 L 166.800 260.000 166.800 258.400 L 166.800 256.800 168.400 256.800 L 170.000 256.800 170.000 255.000 L 170.000 253.200 168.400 253.200 L 166.800 253.200 166.800 250.000 L 166.800 246.800 165.000 246.800 L 163.200 246.800 163.200 243.400 L 163.200 240.000 161.600 240.000 L 160.000 240.000 160.000 235.000 L 160.000 230.000 158.400 230.000 L 156.800 230.000 156.800 225.000 L 156.800 220.000 158.400 220.000 L 160.000 220.000 160.000 211.600 L 160.000 203.200 158.400 203.200 L 156.800 203.200 156.800 190.000 L 156.800 176.800 160.000 176.800 L 163.200 176.800 163.200 178.400 L 163.200 180.000 168.200 180.000 L 173.200 180.000 173.200 181.800 L 173.200 183.600 191.600 183.600 L 210.000 183.600 210.000 181.800 L 210.000 180.000 211.600 180.000 L 213.200 180.000 213.200 178.400 L 213.200 176.800 211.600 176.800 L 210.000 176.800 210.000 175.000 L 210.000 173.200 191.600 173.200 L 173.200 173.200 173.200 171.600 L 173.200 170.000 168.200 170.000 L 163.200 170.000 163.200 168.200 L 163.200 166.400 160.000 166.400 L 156.800 166.400 156.800 161.600 L 156.800 156.800 158.400 156.800 L 160.000 156.800 160.000 146.800 L 160.000 136.800 161.600 136.800 L 163.200 136.800 163.200 131.800 L 163.200 126.800 165.000 126.800 L 166.800 126.800 166.800 123.400 L 166.800 120.000 168.400 120.000 L 170.000 120.000 170.000 116.600 L 170.000 113.200 171.600 113.200 L 173.200 113.200 173.200 111.600 L 173.200 110.000 175.000 110.000 L 176.800 110.000 176.800 108.400 L 176.800 106.800 178.400 106.800 L 180.000 106.800 180.000 105.000 L 180.000 103.200 181.600 103.200 L 183.200 103.200 183.200 101.600 L 183.200 100.000 185.000 100.000 L 186.800 100.000 186.800 98.400 L 186.800 96.800 188.400 96.800 L 190.000 96.800 190.000 83.400 L 190.000 70.000 188.400 70.000 L 186.800 70.000 186.800 68.400 L 186.800 66.800 185.000 66.800 L 183.200 66.800 183.200 61.800 L 183.200 56.800 185.000 56.800 L 186.800 56.800 186.800 55.000 L 186.800 53.200 191.800 53.200 L 196.800 53.200 196.800 61.600 M173.200 141.600 L 173.200 143.200 176.600 143.200 L 180.000 143.200 180.000 148.400 L 180.000 153.600 185.000 153.600 L 190.000 153.600 190.000 148.400 L 190.000 143.200 191.600 143.200 L 193.200 143.200 193.200 141.600 L 193.200 140.000 183.200 140.000 L 173.200 140.000 173.200 141.600 M190.000 161.600 L 190.000 163.200 195.000 163.200 L 200.000 163.200 200.000 161.600 L 200.000 160.000 195.000 160.000 L 190.000 160.000 190.000 161.600 M160.000 171.600 L 160.000 173.200 158.400 173.200 L 156.800 173.200 156.800 171.600 L 156.800 170.000 158.400 170.000 L 160.000 170.000 160.000 171.600 M210.000 171.600 L 210.000 173.200 211.600 173.200 L 213.200 173.200 213.200 171.600 L 213.200 170.000 211.600 170.000 L 210.000 170.000 210.000 171.600 M170.000 175.000 L 170.000 176.800 168.400 176.800 L 166.800 176.800 166.800 175.000 L 166.800 173.200 168.400 173.200 L 170.000 173.200 170.000 175.000 M180.000 178.400 L 180.000 180.000 178.400 180.000 L 176.800 180.000 176.800 178.400 L 176.800 176.800 178.400 176.800 L 180.000 176.800 180.000 178.400 M186.800 178.400 L 186.800 180.000 185.000 180.000 L 183.200 180.000 183.200 178.400 L 183.200 176.800 185.000 176.800 L 186.800 176.800 186.800 178.400 M193.200 178.400 L 193.200 180.000 191.600 180.000 L 190.000 180.000 190.000 178.400 L 190.000 176.800 191.600 176.800 L 193.200 176.800 193.200 178.400 M200.000 178.400 L 200.000 180.000 198.400 180.000 L 196.800 180.000 196.800 178.400 L 196.800 176.800 198.400 176.800 L 200.000 176.800 200.000 178.400 M206.800 178.400 L 206.800 180.000 205.000 180.000 L 203.200 180.000 203.200 178.400 L 203.200 176.800 205.000 176.800 L 206.800 176.800 206.800 178.400 M160.000 200.000 L 160.000 203.200 161.600 203.200 L 163.200 203.200 163.200 200.000 L 163.200 196.800 161.600 196.800 L 160.000 196.800 160.000 200.000 M170.000 201.800 L 170.000 206.800 168.400 206.800 L 166.800 206.800 166.800 215.000 L 166.800 223.200 165.000 223.200 L 163.200 223.200 163.200 226.600 L 163.200 230.000 165.000 230.000 L 166.800 230.000 166.800 235.000 L 166.800 240.000 168.400 240.000 L 170.000 240.000 170.000 243.400 L 170.000 246.800 171.600 246.800 L 173.200 246.800 173.200 250.000 L 173.200 253.200 175.000 253.200 L 176.800 253.200 176.800 255.000 L 176.800 256.800 180.000 256.800 L 183.200 256.800 183.200 258.400 L 183.200 260.000 185.000 260.000 L 186.800 260.000 186.800 263.400 L 186.800 266.800 185.000 266.800 L 183.200 266.800 183.200 268.400 L 183.200 270.000 185.000 270.000 L 186.800 270.000 186.800 268.400 L 186.800 266.800 188.400 266.800 L 190.000 266.800 190.000 261.800 L 190.000 256.800 186.600 256.800 L 183.200 256.800 183.200 255.000 L 183.200 253.200 180.000 253.200 L 176.800 253.200 176.800 250.000 L 176.800 246.800 175.000 246.800 L 173.200 246.800 173.200 243.400 L 173.200 240.000 171.600 240.000 L 170.000 240.000 170.000 235.000 L 170.000 230.000 168.400 230.000 L 166.800 230.000 166.800 226.600 L 166.800 223.200 168.400 223.200 L 170.000 223.200 170.000 215.000 L 170.000 206.800 171.600 206.800 L 173.200 206.800 173.200 201.800 L 173.200 196.800 171.600 196.800 L 170.000 196.800 170.000 201.800 M170.000 258.400 L 170.000 260.000 171.600 260.000 L 173.200 260.000 173.200 258.400 L 173.200 256.800 171.600 256.800 L 170.000 256.800 170.000 258.400 " stroke="none" fill="#040404" fill-rule="evenodd"></path><path id="path4" d="M173.200 145.000 L 173.200 146.800 175.000 146.800 L 176.800 146.800 176.800 148.400 L 176.800 150.000 178.400 150.000 L 180.000 150.000 180.000 146.600 L 180.000 143.200 176.600 143.200 L 173.200 143.200 173.200 145.000 M196.800 145.000 L 196.800 146.800 198.400 146.800 L 200.000 146.800 200.000 148.400 L 200.000 150.000 201.600 150.000 L 203.200 150.000 203.200 146.600 L 203.200 143.200 200.000 143.200 L 196.800 143.200 196.800 145.000 M183.200 158.200 L 183.200 160.000 181.600 160.000 L 180.000 160.000 180.000 161.600 L 180.000 163.200 181.600 163.200 L 183.200 163.200 183.200 165.000 L 183.200 166.800 195.000 166.800 L 206.800 166.800 206.800 163.400 L 206.800 160.000 205.000 160.000 L 203.200 160.000 203.200 158.200 L 203.200 156.400 193.200 156.400 L 183.200 156.400 183.200 158.200 M200.000 161.600 L 200.000 163.200 195.000 163.200 L 190.000 163.200 190.000 161.600 L 190.000 160.000 195.000 160.000 L 200.000 160.000 200.000 161.600 M156.800 171.600 L 156.800 173.200 158.400 173.200 L 160.000 173.200 160.000 171.600 L 160.000 170.000 158.400 170.000 L 156.800 170.000 156.800 171.600 M213.200 171.600 L 213.200 173.200 211.600 173.200 L 210.000 173.200 210.000 175.000 L 210.000 176.800 211.600 176.800 L 213.200 176.800 213.200 175.000 L 213.200 173.200 215.000 173.200 L 216.800 173.200 216.800 171.600 L 216.800 170.000 215.000 170.000 L 213.200 170.000 213.200 171.600 M166.800 175.000 L 166.800 176.800 168.400 176.800 L 170.000 176.800 170.000 175.000 L 170.000 173.200 168.400 173.200 L 166.800 173.200 166.800 175.000 M176.800 178.400 L 176.800 180.000 178.400 180.000 L 180.000 180.000 180.000 178.400 L 180.000 176.800 178.400 176.800 L 176.800 176.800 176.800 178.400 M183.200 178.400 L 183.200 180.000 185.000 180.000 L 186.800 180.000 186.800 178.400 L 186.800 176.800 185.000 176.800 L 183.200 176.800 183.200 178.400 M190.000 178.400 L 190.000 180.000 191.600 180.000 L 193.200 180.000 193.200 178.400 L 193.200 176.800 191.600 176.800 L 190.000 176.800 190.000 178.400 M196.800 178.400 L 196.800 180.000 198.400 180.000 L 200.000 180.000 200.000 178.400 L 200.000 176.800 198.400 176.800 L 196.800 176.800 196.800 178.400 M203.200 178.400 L 203.200 180.000 205.000 180.000 L 206.800 180.000 206.800 178.400 L 206.800 176.800 205.000 176.800 L 203.200 176.800 203.200 178.400 " stroke="none" fill="#c8a4dc" fill-rule="evenodd"></path></g></svg>