<svg id="svg" version="1.1" xmlns="http://www.w3.org/2000/svg" xmlns:xlink="http://www.w3.org/1999/xlink" width="400" height="400" viewBox="0, 0, 400,400"><g id="svgg"><path id="path0" d="M136.800 110.000 L 136.800 113.200 141.800 113.200 L 146.800 113.200 146.800 110.000 L 146.800 106.800 141.800 106.800 L 136.800 106.800 136.800 110.000 M233.200 110.000 L 233.200 113.200 238.200 113.200 L 243.200 113.200 243.200 110.000 L 243.200 106.800 238.200 106.800 L 233.200 106.800 233.200 110.000 M156.800 125.000 L 156.800 126.800 153.400 126.800 L 150.000 126.800 150.000 130.000 L 150.000 133.200 148.400 133.200 L 146.800 133.200 146.800 135.000 L 146.800 136.800 145.000 136.800 L 143.200 136.800 143.200 140.000 L 143.200 143.200 141.600 143.200 L 140.000 143.200 140.000 146.600 L 140.000 150.000 138.400 150.000 L 136.800 150.000 136.800 151.600 L 136.800 153.200 138.400 153.200 L 140.000 153.200 140.000 156.600 L 140.000 160.000 143.400 160.000 L 146.800 160.000 146.800 161.600 L 146.800 163.200 150.000 163.200 L 153.200 163.200 153.200 160.000 L 153.200 156.800 155.000 156.800 L 156.800 156.800 156.800 146.800 L 156.800 136.800 158.400 136.800 L 160.000 136.800 160.000 131.800 L 160.000 126.800 161.600 126.800 L 163.200 126.800 163.200 125.000 L 163.200 123.200 160.000 123.200 L 156.800 123.200 156.800 125.000 M213.200 125.000 L 213.200 126.800 215.000 126.800 L 216.800 126.800 216.800 131.800 L 216.800 136.800 218.400 136.800 L 220.000 136.800 220.000 151.800 L 220.000 166.800 223.400 166.800 L 226.800 166.800 226.800 165.000 L 226.800 163.200 228.400 163.200 L 230.000 163.200 230.000 161.600 L 230.000 160.000 231.600 160.000 L 233.200 160.000 233.200 156.600 L 233.200 153.200 231.600 153.200 L 230.000 153.200 230.000 150.000 L 230.000 146.800 228.400 146.800 L 226.800 146.800 226.800 143.400 L 226.800 140.000 225.000 140.000 L 223.200 140.000 223.200 136.600 L 223.200 133.200 221.600 133.200 L 220.000 133.200 220.000 128.200 L 220.000 123.200 216.600 123.200 L 213.200 123.200 213.200 125.000 M180.000 136.600 L 180.000 140.000 183.400 140.000 L 186.800 140.000 186.800 136.600 L 186.800 133.200 183.400 133.200 L 180.000 133.200 180.000 136.600 M203.200 136.600 L 203.200 140.000 206.600 140.000 L 210.000 140.000 210.000 136.600 L 210.000 133.200 206.600 133.200 L 203.200 133.200 203.200 136.600 M180.000 155.000 L 180.000 156.800 183.400 156.800 L 186.800 156.800 186.800 158.400 L 186.800 160.000 181.800 160.000 L 176.800 160.000 176.800 161.600 L 176.800 163.200 181.800 163.200 L 186.800 163.200 186.800 165.000 L 186.800 166.800 195.000 166.800 L 203.200 166.800 203.200 165.000 L 203.200 163.200 206.600 163.200 L 210.000 163.200 210.000 161.600 L 210.000 160.000 206.600 160.000 L 203.200 160.000 203.200 158.400 L 203.200 156.800 206.600 156.800 L 210.000 156.800 210.000 155.000 L 210.000 153.200 206.600 153.200 L 203.200 153.200 203.200 155.000 L 203.200 156.800 195.000 156.800 L 186.800 156.800 186.800 155.000 L 186.800 153.200 183.400 153.200 L 180.000 153.200 180.000 155.000 M200.000 161.600 L 200.000 163.200 195.000 163.200 L 190.000 163.200 190.000 161.600 L 190.000 160.000 195.000 160.000 L 200.000 160.000 200.000 161.600 M203.200 228.400 L 203.200 230.000 201.600 230.000 L 200.000 230.000 200.000 233.400 L 200.000 236.800 201.600 236.800 L 203.200 236.800 203.200 238.400 L 203.200 240.000 206.600 240.000 L 210.000 240.000 210.000 238.400 L 210.000 236.800 211.600 236.800 L 213.200 236.800 213.200 235.000 L 213.200 233.200 215.000 233.200 L 216.800 233.200 216.800 231.600 L 216.800 230.000 215.000 230.000 L 213.200 230.000 213.200 228.400 L 213.200 226.800 208.200 226.800 L 203.200 226.800 203.200 228.400 M210.000 231.600 L 210.000 233.200 208.400 233.200 L 206.800 233.200 206.800 231.600 L 206.800 230.000 208.400 230.000 L 210.000 230.000 210.000 231.600 " stroke="none" fill="#c3317a" fill-rule="evenodd"></path><path id="path1" d="M187.200 55.200 C 187.200 56.762,187.233 56.800,188.600 56.800 C 189.967 56.800,190.000 56.762,190.000 55.200 C 190.000 53.638,189.967 53.600,188.600 53.600 C 187.233 53.600,187.200 53.638,187.200 55.200 M183.600 61.800 L 183.600 66.400 185.200 66.400 L 186.800 66.400 186.800 61.800 L 186.800 57.200 185.200 57.200 L 183.600 57.200 183.600 61.800 M187.200 68.200 C 187.200 69.533,187.267 69.600,188.600 69.600 C 189.933 69.600,190.000 69.533,190.000 68.200 C 190.000 66.867,189.933 66.800,188.600 66.800 C 187.267 66.800,187.200 66.867,187.200 68.200 M157.200 189.800 L 157.200 202.800 158.383 202.800 L 159.566 202.800 159.683 199.700 L 159.800 196.600 161.600 196.600 L 163.400 196.600 163.516 199.900 L 163.632 203.200 165.216 203.200 L 166.800 203.200 166.800 200.042 L 166.800 196.883 170.000 196.600 L 173.200 196.317 173.200 188.158 L 173.200 180.000 168.200 180.000 L 163.200 180.000 163.200 178.400 L 163.200 176.800 160.200 176.800 L 157.200 176.800 157.200 189.800 M173.512 201.900 L 173.400 207.000 171.908 207.124 L 170.416 207.247 170.308 215.324 L 170.200 223.400 168.700 223.524 L 167.200 223.648 167.200 226.600 L 167.200 229.552 168.700 229.676 L 170.200 229.800 170.312 234.677 L 170.424 239.553 171.912 239.677 L 173.400 239.800 173.516 243.078 L 173.632 246.356 175.316 246.478 L 177.000 246.600 177.117 249.700 L 177.234 252.800 180.217 252.800 L 183.200 252.800 183.200 251.400 C 183.200 250.007,183.210 250.000,185.000 250.000 L 186.800 250.000 186.800 245.000 L 186.800 240.000 185.000 240.000 L 183.200 240.000 183.200 233.400 L 183.200 226.800 181.600 226.800 L 180.000 226.800 180.000 220.000 L 180.000 213.200 178.400 213.200 L 176.800 213.200 176.800 205.000 L 176.800 196.800 175.212 196.800 L 173.624 196.800 173.512 201.900 M160.400 211.800 L 160.400 220.000 161.800 220.000 L 163.200 220.000 163.200 211.800 L 163.200 203.600 161.800 203.600 L 160.400 203.600 160.400 211.800 M157.200 225.000 L 157.200 229.600 158.600 229.600 L 160.000 229.600 160.000 225.000 L 160.000 220.400 158.600 220.400 L 157.200 220.400 157.200 225.000 M160.400 234.776 L 160.400 239.552 161.900 239.676 L 163.400 239.800 163.516 243.078 L 163.632 246.356 165.316 246.478 L 167.000 246.600 167.116 249.677 L 167.233 252.754 168.716 252.877 C 170.153 252.996,170.204 253.054,170.323 254.700 C 170.443 256.361,170.479 256.400,171.880 256.400 L 173.314 256.400 173.057 253.941 C 172.916 252.589,172.800 251.149,172.800 250.741 C 172.800 250.164,172.497 250.000,171.436 250.000 L 170.072 250.000 169.789 246.600 L 169.505 243.200 168.194 243.200 L 166.883 243.200 166.600 240.000 L 166.317 236.800 164.758 236.800 L 163.200 236.800 163.200 233.400 L 163.200 230.000 161.800 230.000 L 160.400 230.000 160.400 234.776 M173.600 258.200 C 173.600 259.567,173.638 259.600,175.200 259.600 C 176.762 259.600,176.800 259.567,176.800 258.200 C 176.800 256.833,176.762 256.800,175.200 256.800 C 173.638 256.800,173.600 256.833,173.600 258.200 M190.312 261.900 L 190.200 267.000 188.723 267.123 C 187.335 267.238,187.238 267.335,187.123 268.723 C 187.004 270.149,186.942 270.204,185.323 270.322 C 183.704 270.440,183.641 270.495,183.523 271.922 C 183.407 273.315,183.314 273.407,181.900 273.524 L 180.400 273.648 180.400 276.600 L 180.400 279.552 181.900 279.676 L 183.400 279.800 183.516 283.100 L 183.632 286.400 185.216 286.400 C 186.797 286.400,186.800 286.397,186.800 284.800 L 186.800 283.200 190.000 283.200 L 193.200 283.200 193.200 285.000 L 193.200 286.800 196.600 286.800 L 200.000 286.800 200.000 288.400 L 200.000 290.000 201.600 290.000 L 203.200 290.000 203.200 291.600 L 203.200 293.200 205.000 293.200 L 206.800 293.200 206.800 295.000 L 206.800 296.800 208.400 296.800 L 210.000 296.800 210.000 300.000 L 210.000 303.200 208.400 303.200 C 205.801 303.200,205.895 306.289,208.500 306.477 C 210.147 306.596,210.204 306.647,210.323 308.084 L 210.446 309.568 213.723 309.684 L 217.000 309.800 217.123 311.284 L 217.246 312.767 220.323 312.884 L 223.400 313.000 223.522 314.688 L 223.645 316.376 228.522 316.488 L 233.400 316.600 233.524 318.092 L 233.647 319.584 241.924 319.692 L 250.200 319.800 250.324 321.300 L 250.448 322.800 256.600 322.800 L 262.752 322.800 262.876 321.300 L 263.000 319.800 267.877 319.688 L 272.753 319.576 272.877 318.088 C 272.996 316.646,273.053 316.596,274.700 316.477 C 276.392 316.355,276.400 316.346,276.400 314.777 L 276.400 313.200 269.800 313.200 L 263.200 313.200 263.200 311.600 L 263.200 310.000 261.600 310.000 L 260.000 310.000 260.000 308.400 L 260.000 306.800 253.400 306.800 L 246.800 306.800 246.800 305.000 L 246.800 303.200 243.400 303.200 L 240.000 303.200 240.000 301.600 L 240.000 300.000 236.600 300.000 L 233.200 300.000 233.200 298.400 L 233.200 296.800 230.000 296.800 L 226.800 296.800 226.800 295.456 C 226.800 294.717,226.687 293.287,226.549 292.279 L 226.298 290.446 223.149 290.171 L 220.000 289.897 220.000 286.548 L 220.000 283.200 218.400 283.200 L 216.800 283.200 216.800 281.600 L 216.800 280.000 215.000 280.000 L 213.200 280.000 213.200 278.400 L 213.200 276.800 211.600 276.800 L 210.000 276.800 210.000 275.000 L 210.000 273.200 208.400 273.200 L 206.800 273.200 206.800 271.600 L 206.800 270.000 205.000 270.000 L 203.200 270.000 203.200 268.400 L 203.200 266.800 201.600 266.800 L 200.000 266.800 200.000 265.000 L 200.000 263.200 198.400 263.200 L 196.800 263.200 196.800 261.600 L 196.800 260.000 195.000 260.000 L 193.200 260.000 193.200 258.400 C 193.200 256.841,193.165 256.800,191.812 256.800 L 190.424 256.800 190.312 261.900 M167.200 258.400 C 167.200 259.467,167.333 259.600,168.400 259.600 C 169.467 259.600,169.600 259.467,169.600 258.400 C 169.600 257.333,169.467 257.200,168.400 257.200 C 167.333 257.200,167.200 257.333,167.200 258.400 M177.200 264.800 L 177.200 269.600 179.944 269.600 L 182.689 269.600 182.941 267.500 C 183.442 263.326,183.403 263.200,181.600 263.200 L 180.000 263.200 180.000 261.600 C 180.000 260.038,179.967 260.000,178.600 260.000 L 177.200 260.000 177.200 264.800 M170.400 263.400 L 170.400 266.400 171.600 266.400 L 172.800 266.400 172.800 263.400 L 172.800 260.400 171.600 260.400 L 170.400 260.400 170.400 263.400 " stroke="none" fill="#f4a404" fill-rule="evenodd"></path><path id="path2" d="M163.200 131.800 L 163.200 136.800 161.600 136.800 L 160.000 136.800 160.000 146.800 L 160.000 156.800 158.400 156.800 L 156.800 156.800 156.800 161.800 L 156.800 166.800 160.000 166.800 L 163.200 166.800 163.200 168.400 L 163.200 170.000 168.200 170.000 L 173.200 170.000 173.200 171.800 L 173.200 173.600 191.600 173.600 L 210.000 173.600 210.000 175.200 L 210.000 176.800 211.600 176.800 L 213.200 176.800 213.200 175.000 L 213.200 173.200 215.000 173.200 L 216.800 173.200 216.800 171.600 L 216.800 170.000 215.000 170.000 L 213.200 170.000 213.200 168.400 L 213.200 166.800 215.000 166.800 L 216.800 166.800 216.800 155.000 L 216.800 143.200 215.000 143.200 L 213.200 143.200 213.200 148.200 L 213.200 153.200 211.600 153.200 L 210.000 153.200 210.000 155.000 L 210.000 156.800 206.600 156.800 L 203.200 156.800 203.200 150.000 L 203.200 143.200 200.000 143.200 L 196.800 143.200 196.800 141.600 L 196.800 140.000 200.000 140.000 L 203.200 140.000 203.200 136.600 L 203.200 133.200 206.600 133.200 L 210.000 133.200 210.000 136.600 L 210.000 140.000 213.400 140.000 L 216.800 140.000 216.800 138.400 L 216.800 136.800 215.000 136.800 L 213.200 136.800 213.200 131.800 L 213.200 126.800 188.200 126.800 L 163.200 126.800 163.200 131.800 M186.800 136.600 L 186.800 140.000 190.000 140.000 L 193.200 140.000 193.200 141.600 L 193.200 143.200 191.600 143.200 L 190.000 143.200 190.000 148.200 L 190.000 153.200 188.400 153.200 L 186.800 153.200 186.800 155.000 L 186.800 156.800 195.000 156.800 L 203.200 156.800 203.200 158.400 L 203.200 160.000 206.600 160.000 L 210.000 160.000 210.000 161.600 L 210.000 163.200 206.600 163.200 L 203.200 163.200 203.200 165.000 L 203.200 166.800 195.000 166.800 L 186.800 166.800 186.800 165.000 L 186.800 163.200 181.800 163.200 L 176.800 163.200 176.800 161.600 L 176.800 160.000 181.800 160.000 L 186.800 160.000 186.800 158.400 L 186.800 156.800 183.400 156.800 L 180.000 156.800 180.000 150.000 L 180.000 143.200 176.600 143.200 L 173.200 143.200 173.200 141.600 L 173.200 140.000 176.600 140.000 L 180.000 140.000 180.000 136.600 L 180.000 133.200 183.400 133.200 L 186.800 133.200 186.800 136.600 M156.800 171.600 L 156.800 173.200 158.400 173.200 L 160.000 173.200 160.000 171.600 L 160.000 170.000 158.400 170.000 L 156.800 170.000 156.800 171.600 M213.200 171.600 L 213.200 173.200 211.600 173.200 L 210.000 173.200 210.000 171.600 L 210.000 170.000 211.600 170.000 L 213.200 170.000 213.200 171.600 M166.800 175.000 L 166.800 176.800 168.400 176.800 L 170.000 176.800 170.000 175.000 L 170.000 173.200 168.400 173.200 L 166.800 173.200 166.800 175.000 M176.800 178.400 L 176.800 180.000 178.400 180.000 L 180.000 180.000 180.000 178.400 L 180.000 176.800 178.400 176.800 L 176.800 176.800 176.800 178.400 M183.200 178.400 L 183.200 180.000 185.000 180.000 L 186.800 180.000 186.800 178.400 L 186.800 176.800 185.000 176.800 L 183.200 176.800 183.200 178.400 M190.000 178.400 L 190.000 180.000 191.600 180.000 L 193.200 180.000 193.200 178.400 L 193.200 176.800 191.600 176.800 L 190.000 176.800 190.000 178.400 M196.800 178.400 L 196.800 180.000 198.400 180.000 L 200.000 180.000 200.000 178.400 L 200.000 176.800 198.400 176.800 L 196.800 176.800 196.800 178.400 M203.200 178.400 L 203.200 180.000 205.000 180.000 L 206.800 180.000 206.800 178.400 L 206.800 176.800 205.000 176.800 L 203.200 176.800 203.200 178.400 M206.800 231.600 L 206.800 233.200 208.400 233.200 L 210.000 233.200 210.000 231.600 L 210.000 230.000 208.400 230.000 L 206.800 230.000 206.800 231.600 M193.200 245.000 L 193.200 246.800 191.600 246.800 L 190.000 246.800 190.000 248.400 L 190.000 250.000 188.400 250.000 L 186.800 250.000 186.800 251.600 L 186.800 253.200 185.000 253.200 L 183.200 253.200 183.200 255.000 L 183.200 256.800 185.000 256.800 L 186.800 256.800 186.800 255.000 L 186.800 253.200 188.400 253.200 L 190.000 253.200 190.000 251.600 L 190.000 250.000 191.600 250.000 L 193.200 250.000 193.200 248.400 L 193.200 246.800 195.000 246.800 L 196.800 246.800 196.800 245.000 L 196.800 243.200 195.000 243.200 L 193.200 243.200 193.200 245.000 " stroke="none" fill="#fbecfb" fill-rule="evenodd"></path><path id="path3" d="M206.800 78.400 L 206.800 80.000 205.000 80.000 L 203.200 80.000 203.200 81.600 L 203.200 83.200 201.600 83.200 L 200.000 83.200 200.000 85.000 L 200.000 86.800 198.400 86.800 L 196.800 86.800 196.800 88.400 L 196.800 90.000 191.800 90.000 L 186.800 90.000 186.800 88.400 L 186.800 86.800 185.000 86.800 L 183.200 86.800 183.200 85.000 L 183.200 83.200 181.600 83.200 L 180.000 83.200 180.000 81.600 L 180.000 80.000 168.400 80.000 L 156.800 80.000 156.800 81.600 L 156.800 83.200 153.400 83.200 L 150.000 83.200 150.000 85.000 L 150.000 86.800 160.000 86.800 L 170.000 86.800 170.000 90.000 L 170.000 93.200 171.600 93.200 L 173.200 93.200 173.200 96.600 L 173.200 100.000 175.000 100.000 L 176.800 100.000 176.800 103.400 L 176.800 106.800 178.400 106.800 L 180.000 106.800 180.000 108.400 L 180.000 110.000 181.600 110.000 L 183.200 110.000 183.200 111.600 L 183.200 113.200 195.000 113.200 L 206.800 113.200 206.800 108.200 L 206.800 103.200 208.400 103.200 L 210.000 103.200 210.000 101.600 L 210.000 100.000 211.600 100.000 L 213.200 100.000 213.200 96.600 L 213.200 93.200 215.000 93.200 L 216.800 93.200 216.800 91.600 L 216.800 90.000 220.000 90.000 L 223.200 90.000 223.200 91.600 L 223.200 93.200 225.000 93.200 L 226.800 93.200 226.800 95.000 L 226.800 96.800 228.400 96.800 L 230.000 96.800 230.000 98.400 L 230.000 100.000 231.600 100.000 L 233.200 100.000 233.200 101.600 L 233.200 103.200 235.000 103.200 L 236.800 103.200 236.800 98.200 L 236.800 93.200 235.000 93.200 L 233.200 93.200 233.200 91.600 L 233.200 90.000 231.600 90.000 L 230.000 90.000 230.000 86.600 L 230.000 83.200 228.400 83.200 L 226.800 83.200 226.800 80.000 L 226.800 76.800 216.800 76.800 L 206.800 76.800 206.800 78.400 " stroke="none" fill="#6c4c94" fill-rule="evenodd"></path><path id="path4" d="M163.200 78.400 L 163.200 80.000 171.600 80.000 L 180.000 80.000 180.000 81.600 L 180.000 83.200 181.600 83.200 L 183.200 83.200 183.200 85.000 L 183.200 86.800 185.000 86.800 L 186.800 86.800 186.800 88.400 L 186.800 90.000 188.400 90.000 L 190.000 90.000 190.000 86.600 L 190.000 83.200 188.400 83.200 L 186.800 83.200 186.800 81.600 L 186.800 80.000 185.000 80.000 L 183.200 80.000 183.200 78.400 L 183.200 76.800 173.200 76.800 L 163.200 76.800 163.200 78.400 M146.800 88.400 L 146.800 90.000 143.400 90.000 L 140.000 90.000 140.000 96.600 L 140.000 103.200 141.600 103.200 L 143.200 103.200 143.200 98.200 L 143.200 93.200 145.000 93.200 L 146.800 93.200 146.800 91.600 L 146.800 90.000 156.800 90.000 L 166.800 90.000 166.800 93.400 L 166.800 96.800 168.400 96.800 L 170.000 96.800 170.000 106.800 L 170.000 116.800 188.400 116.800 L 206.800 116.800 206.800 115.000 L 206.800 113.200 195.000 113.200 L 183.200 113.200 183.200 111.600 L 183.200 110.000 181.600 110.000 L 180.000 110.000 180.000 108.400 L 180.000 106.800 178.400 106.800 L 176.800 106.800 176.800 103.400 L 176.800 100.000 175.000 100.000 L 173.200 100.000 173.200 96.600 L 173.200 93.200 171.600 93.200 L 170.000 93.200 170.000 90.000 L 170.000 86.800 158.400 86.800 L 146.800 86.800 146.800 88.400 M166.800 121.600 L 166.800 123.200 188.400 123.200 L 210.000 123.200 210.000 121.600 L 210.000 120.000 188.400 120.000 L 166.800 120.000 166.800 121.600 M193.200 241.600 L 193.200 243.200 191.600 243.200 L 190.000 243.200 190.000 245.000 L 190.000 246.800 188.400 246.800 L 186.800 246.800 186.800 248.400 L 186.800 250.000 185.000 250.000 L 183.200 250.000 183.200 251.600 L 183.200 253.200 181.600 253.200 L 180.000 253.200 180.000 255.000 L 180.000 256.800 181.600 256.800 L 183.200 256.800 183.200 255.000 L 183.200 253.200 185.000 253.200 L 186.800 253.200 186.800 251.600 L 186.800 250.000 188.400 250.000 L 190.000 250.000 190.000 248.400 L 190.000 246.800 191.600 246.800 L 193.200 246.800 193.200 245.000 L 193.200 243.200 196.600 243.200 L 200.000 243.200 200.000 241.600 L 200.000 240.000 196.600 240.000 L 193.200 240.000 193.200 241.600 " stroke="none" fill="#9e7bcd" fill-rule="evenodd"></path><path id="path5" d="M186.800 51.600 L 186.800 53.200 185.000 53.200 L 183.200 53.200 183.200 55.000 L 183.200 56.800 181.600 56.800 L 180.000 56.800 180.000 61.800 L 180.000 66.800 181.600 66.800 L 183.200 66.800 183.200 68.400 L 183.200 70.000 185.000 70.000 L 186.800 70.000 186.800 73.400 L 186.800 76.800 185.000 76.800 L 183.200 76.800 183.200 75.000 L 183.200 73.200 171.600 73.200 L 160.000 73.200 160.000 75.000 L 160.000 76.800 156.600 76.800 L 153.200 76.800 153.200 78.400 L 153.200 80.000 150.000 80.000 L 146.800 80.000 146.800 81.600 L 146.800 83.200 145.000 83.200 L 143.200 83.200 143.200 85.000 L 143.200 86.800 140.000 86.800 L 136.800 86.800 136.800 93.400 L 136.800 100.000 135.000 100.000 L 133.200 100.000 133.200 108.400 L 133.200 116.800 141.600 116.800 L 150.000 116.800 150.000 110.000 L 150.000 103.200 148.400 103.200 L 146.800 103.200 146.800 100.000 L 146.800 96.800 148.400 96.800 L 150.000 96.800 150.000 95.000 L 150.000 93.200 156.600 93.200 L 163.200 93.200 163.200 96.600 L 163.200 100.000 165.000 100.000 L 166.800 100.000 166.800 110.000 L 166.800 120.000 160.000 120.000 L 153.200 120.000 153.200 121.600 L 153.200 123.200 150.000 123.200 L 146.800 123.200 146.800 126.600 L 146.800 130.000 145.000 130.000 L 143.200 130.000 143.200 133.400 L 143.200 136.800 141.600 136.800 L 140.000 136.800 140.000 140.000 L 140.000 143.200 138.400 143.200 L 136.800 143.200 136.800 146.600 L 136.800 150.000 135.000 150.000 L 133.200 150.000 133.200 151.600 L 133.200 153.200 135.000 153.200 L 136.800 153.200 136.800 158.200 L 136.800 163.200 140.000 163.200 L 143.200 163.200 143.200 165.000 L 143.200 166.800 148.200 166.800 L 153.200 166.800 153.200 186.800 L 153.200 206.800 155.000 206.800 L 156.800 206.800 156.800 213.400 L 156.800 220.000 155.000 220.000 L 153.200 220.000 153.200 225.000 L 153.200 230.000 155.000 230.000 L 156.800 230.000 156.800 235.000 L 156.800 240.000 158.400 240.000 L 160.000 240.000 160.000 245.000 L 160.000 250.000 161.600 250.000 L 163.200 250.000 163.200 255.000 L 163.200 260.000 165.000 260.000 L 166.800 260.000 166.800 263.400 L 166.800 266.800 168.400 266.800 L 170.000 266.800 170.000 268.400 L 170.000 270.000 171.600 270.000 L 173.200 270.000 173.200 271.600 L 173.200 273.200 175.000 273.200 L 176.800 273.200 176.800 276.600 L 176.800 280.000 178.400 280.000 L 180.000 280.000 180.000 283.400 L 180.000 286.800 181.600 286.800 L 183.200 286.800 183.200 288.400 L 183.200 290.000 185.000 290.000 L 186.800 290.000 186.800 303.400 L 186.800 316.800 185.000 316.800 L 183.200 316.800 183.200 323.400 L 183.200 330.000 181.600 330.000 L 180.000 330.000 180.000 335.000 L 180.000 340.000 178.200 340.000 L 176.400 340.000 176.400 343.400 L 176.400 346.800 178.200 346.800 L 180.000 346.800 180.000 348.400 L 180.000 350.000 193.400 350.000 L 206.800 350.000 206.800 348.400 L 206.800 346.800 205.000 346.800 L 203.200 346.800 203.200 345.000 L 203.200 343.200 201.600 343.200 L 200.000 343.200 200.000 341.600 L 200.000 340.000 198.400 340.000 L 196.800 340.000 196.800 338.400 L 196.800 336.800 195.000 336.800 L 193.200 336.800 193.200 333.400 L 193.200 330.000 195.000 330.000 L 196.800 330.000 196.800 325.000 L 196.800 320.000 198.400 320.000 L 200.000 320.000 200.000 316.600 L 200.000 313.200 201.600 313.200 L 203.200 313.200 203.200 311.600 L 203.200 310.000 206.600 310.000 L 210.000 310.000 210.000 311.600 L 210.000 313.200 213.400 313.200 L 216.800 313.200 216.800 321.600 L 216.800 330.000 215.000 330.000 L 213.200 330.000 213.200 335.000 L 213.200 340.000 211.600 340.000 L 210.000 340.000 210.000 343.400 L 210.000 346.800 211.600 346.800 L 213.200 346.800 213.200 348.400 L 213.200 350.000 228.400 350.000 L 243.600 350.000 243.600 348.400 L 243.600 346.800 241.800 346.800 L 240.000 346.800 240.000 345.000 L 240.000 343.200 236.600 343.200 L 233.200 343.200 233.200 341.600 L 233.200 340.000 231.600 340.000 L 230.000 340.000 230.000 338.400 L 230.000 336.800 228.400 336.800 L 226.800 336.800 226.800 331.800 L 226.800 326.800 228.400 326.800 L 230.000 326.800 230.000 323.400 L 230.000 320.000 231.600 320.000 L 233.200 320.000 233.200 321.600 L 233.200 323.200 241.600 323.200 L 250.000 323.200 250.000 325.000 L 250.000 326.800 256.600 326.800 L 263.200 326.800 263.200 325.000 L 263.200 323.200 268.200 323.200 L 273.200 323.200 273.200 321.600 L 273.200 320.000 275.000 320.000 L 276.800 320.000 276.800 318.400 L 276.800 316.800 278.400 316.800 L 280.000 316.800 280.000 311.800 L 280.000 306.800 278.400 306.800 L 276.800 306.800 276.800 305.000 L 276.800 303.200 275.000 303.200 L 273.200 303.200 273.200 301.600 L 273.200 300.000 271.600 300.000 L 270.000 300.000 270.000 298.400 L 270.000 296.800 268.400 296.800 L 266.800 296.800 266.800 295.000 L 266.800 293.200 265.000 293.200 L 263.200 293.200 263.200 291.600 L 263.200 290.000 261.600 290.000 L 260.000 290.000 260.000 288.400 L 260.000 286.800 258.400 286.800 L 256.800 286.800 256.800 285.000 L 256.800 283.200 255.000 283.200 L 253.200 283.200 253.200 281.600 L 253.200 280.000 251.600 280.000 L 250.000 280.000 250.000 278.400 L 250.000 276.800 248.400 276.800 L 246.800 276.800 246.800 275.000 L 246.800 273.200 245.000 273.200 L 243.200 273.200 243.200 270.000 L 243.200 266.800 241.600 266.800 L 240.000 266.800 240.000 263.400 L 240.000 260.000 238.400 260.000 L 236.800 260.000 236.800 256.600 L 236.800 253.200 235.000 253.200 L 233.200 253.200 233.200 250.000 L 233.200 246.800 231.600 246.800 L 230.000 246.800 230.000 241.800 L 230.000 236.800 228.400 236.800 L 226.800 236.800 226.800 231.800 L 226.800 226.800 225.000 226.800 L 223.200 226.800 223.200 218.400 L 223.200 210.000 221.600 210.000 L 220.000 210.000 220.000 190.000 L 220.000 170.000 225.000 170.000 L 230.000 170.000 230.000 168.400 L 230.000 166.800 231.600 166.800 L 233.200 166.800 233.200 165.000 L 233.200 163.200 235.000 163.200 L 236.800 163.200 236.800 156.600 L 236.800 150.000 235.000 150.000 L 233.200 150.000 233.200 146.600 L 233.200 143.200 231.600 143.200 L 230.000 143.200 230.000 140.000 L 230.000 136.800 228.400 136.800 L 226.800 136.800 226.800 133.400 L 226.800 130.000 225.000 130.000 L 223.200 130.000 223.200 125.000 L 223.200 120.000 218.200 120.000 L 213.200 120.000 213.200 118.400 L 213.200 116.800 211.600 116.800 L 210.000 116.800 210.000 110.000 L 210.000 103.200 208.400 103.200 L 206.800 103.200 206.800 110.000 L 206.800 116.800 188.400 116.800 L 170.000 116.800 170.000 106.800 L 170.000 96.800 168.400 96.800 L 166.800 96.800 166.800 93.400 L 166.800 90.000 156.800 90.000 L 146.800 90.000 146.800 88.400 L 146.800 86.800 148.400 86.800 L 150.000 86.800 150.000 85.000 L 150.000 83.200 153.400 83.200 L 156.800 83.200 156.800 81.600 L 156.800 80.000 160.000 80.000 L 163.200 80.000 163.200 78.400 L 163.200 76.800 173.200 76.800 L 183.200 76.800 183.200 78.400 L 183.200 80.000 185.000 80.000 L 186.800 80.000 186.800 81.600 L 186.800 83.200 188.400 83.200 L 190.000 83.200 190.000 86.600 L 190.000 90.000 193.400 90.000 L 196.800 90.000 196.800 88.400 L 196.800 86.800 198.400 86.800 L 200.000 86.800 200.000 85.000 L 200.000 83.200 201.600 83.200 L 203.200 83.200 203.200 81.600 L 203.200 80.000 205.000 80.000 L 206.800 80.000 206.800 78.400 L 206.800 76.800 216.800 76.800 L 226.800 76.800 226.800 80.000 L 226.800 83.200 228.400 83.200 L 230.000 83.200 230.000 86.600 L 230.000 90.000 231.600 90.000 L 233.200 90.000 233.200 91.600 L 233.200 93.200 235.000 93.200 L 236.800 93.200 236.800 98.200 L 236.800 103.200 235.000 103.200 L 233.200 103.200 233.200 101.600 L 233.200 100.000 231.600 100.000 L 230.000 100.000 230.000 98.400 L 230.000 96.800 228.400 96.800 L 226.800 96.800 226.800 95.000 L 226.800 93.200 225.000 93.200 L 223.200 93.200 223.200 91.600 L 223.200 90.000 220.000 90.000 L 216.800 90.000 216.800 91.600 L 216.800 93.200 215.000 93.200 L 213.200 93.200 213.200 96.600 L 213.200 100.000 215.000 100.000 L 216.800 100.000 216.800 96.600 L 216.800 93.200 220.000 93.200 L 223.200 93.200 223.200 95.000 L 223.200 96.800 225.000 96.800 L 226.800 96.800 226.800 98.400 L 226.800 100.000 228.400 100.000 L 230.000 100.000 230.000 101.600 L 230.000 103.200 228.400 103.200 L 226.800 103.200 226.800 105.000 L 226.800 106.800 228.400 106.800 L 230.000 106.800 230.050 112.400 C 230.078 115.480,230.123 118.405,230.150 118.900 C 230.196 119.733,230.398 119.803,232.846 119.846 C 235.487 119.891,235.493 119.889,235.401 118.812 C 235.344 118.139,235.508 117.733,235.837 117.733 C 236.127 117.733,236.243 117.928,236.094 118.167 C 235.064 119.812,235.330 119.906,241.670 120.142 C 247.172 120.347,247.157 120.353,246.970 118.100 C 246.865 116.836,246.906 116.800,248.431 116.800 L 250.000 116.800 250.000 115.000 L 250.000 113.200 248.400 113.200 L 246.800 113.200 246.800 108.200 L 246.800 103.200 243.400 103.200 L 240.000 103.200 240.000 96.600 L 240.000 90.000 238.400 90.000 L 236.800 90.000 236.800 88.400 L 236.800 86.800 235.000 86.800 L 233.200 86.800 233.200 83.400 L 233.200 80.000 231.600 80.000 L 230.000 80.000 230.000 76.600 L 230.000 73.200 216.600 73.200 L 203.200 73.200 203.200 75.000 L 203.200 76.800 201.600 76.800 L 200.000 76.800 200.000 78.400 L 200.000 80.000 198.400 80.000 L 196.800 80.000 196.800 75.000 L 196.800 70.000 198.400 70.000 L 200.000 70.000 200.000 61.600 L 200.000 53.200 198.400 53.200 L 196.800 53.200 196.800 51.600 L 196.800 50.000 191.800 50.000 L 186.800 50.000 186.800 51.600 M196.800 61.600 L 196.800 70.000 195.000 70.000 L 193.200 70.000 193.200 76.600 L 193.200 83.200 191.600 83.200 L 190.000 83.200 190.000 76.600 L 190.000 70.000 188.400 70.000 L 186.800 70.000 186.800 68.400 L 186.800 66.800 185.000 66.800 L 183.200 66.800 183.200 61.800 L 183.200 56.800 185.000 56.800 L 186.800 56.800 186.800 55.000 L 186.800 53.200 191.800 53.200 L 196.800 53.200 196.800 61.600 M146.800 91.600 L 146.800 93.200 145.000 93.200 L 143.200 93.200 143.200 98.200 L 143.200 103.200 141.600 103.200 L 140.000 103.200 140.000 96.600 L 140.000 90.000 143.400 90.000 L 146.800 90.000 146.800 91.600 M146.800 110.000 L 146.800 113.200 141.800 113.200 L 136.800 113.200 136.800 110.000 L 136.800 106.800 141.800 106.800 L 146.800 106.800 146.800 110.000 M243.200 110.000 L 243.200 113.200 238.200 113.200 L 233.200 113.200 233.200 110.000 L 233.200 106.800 238.200 106.800 L 243.200 106.800 243.200 110.000 M231.440 118.606 C 231.394 118.920,231.245 119.289,231.108 119.425 C 230.972 119.562,230.913 119.342,230.979 118.937 C 231.044 118.531,230.895 117.930,230.649 117.600 C 230.265 117.087,230.296 117.075,230.862 117.517 C 231.226 117.802,231.486 118.292,231.440 118.606 M232.640 118.606 C 232.594 118.920,232.445 119.289,232.308 119.425 C 232.172 119.562,232.113 119.342,232.179 118.937 C 232.244 118.531,232.095 117.930,231.849 117.600 C 231.465 117.087,231.496 117.075,232.062 117.517 C 232.426 117.802,232.686 118.292,232.640 118.606 M210.000 121.600 L 210.000 123.200 188.400 123.200 L 166.800 123.200 166.800 121.600 L 166.800 120.000 188.400 120.000 L 210.000 120.000 210.000 121.600 M163.200 125.000 L 163.200 126.800 188.200 126.800 L 213.200 126.800 213.200 125.000 L 213.200 123.200 216.600 123.200 L 220.000 123.200 220.000 128.200 L 220.000 133.200 221.600 133.200 L 223.200 133.200 223.200 136.600 L 223.200 140.000 225.000 140.000 L 226.800 140.000 226.800 143.400 L 226.800 146.800 228.400 146.800 L 230.000 146.800 230.000 150.000 L 230.000 153.200 231.600 153.200 L 233.200 153.200 233.200 156.600 L 233.200 160.000 231.600 160.000 L 230.000 160.000 230.000 161.600 L 230.000 163.200 228.400 163.200 L 226.800 163.200 226.800 165.000 L 226.800 166.800 223.400 166.800 L 220.000 166.800 220.000 151.800 L 220.000 136.800 218.400 136.800 L 216.800 136.800 216.800 138.400 L 216.800 140.000 206.800 140.000 L 196.800 140.000 196.800 141.600 L 196.800 143.200 200.000 143.200 L 203.200 143.200 203.200 148.200 L 203.200 153.200 208.200 153.200 L 213.200 153.200 213.200 148.200 L 213.200 143.200 215.000 143.200 L 216.800 143.200 216.800 155.000 L 216.800 166.800 215.000 166.800 L 213.200 166.800 213.200 168.400 L 213.200 170.000 215.000 170.000 L 216.800 170.000 216.800 171.600 L 216.800 173.200 215.000 173.200 L 213.200 173.200 213.200 175.000 L 213.200 176.800 215.000 176.800 L 216.800 176.800 216.800 193.400 L 216.800 210.000 218.400 210.000 L 220.000 210.000 220.000 218.400 L 220.000 226.800 221.600 226.800 L 223.200 226.800 223.200 231.800 L 223.200 236.800 225.000 236.800 L 226.800 236.800 226.800 241.800 L 226.800 246.800 228.400 246.800 L 230.000 246.800 230.000 250.000 L 230.000 253.200 231.600 253.200 L 233.200 253.200 233.200 256.600 L 233.200 260.000 235.000 260.000 L 236.800 260.000 236.800 263.400 L 236.800 266.800 238.400 266.800 L 240.000 266.800 240.000 270.000 L 240.000 273.200 241.600 273.200 L 243.200 273.200 243.200 275.000 L 243.200 276.800 245.000 276.800 L 246.800 276.800 246.800 278.400 L 246.800 280.000 248.400 280.000 L 250.000 280.000 250.000 281.600 L 250.000 283.200 251.600 283.200 L 253.200 283.200 253.200 285.000 L 253.200 286.800 255.000 286.800 L 256.800 286.800 256.800 288.400 L 256.800 290.000 258.400 290.000 L 260.000 290.000 260.000 291.600 L 260.000 293.200 261.600 293.200 L 263.200 293.200 263.200 295.000 L 263.200 296.800 265.000 296.800 L 266.800 296.800 266.800 298.400 L 266.800 300.000 268.400 300.000 L 270.000 300.000 270.000 301.600 L 270.000 303.200 271.600 303.200 L 273.200 303.200 273.200 305.000 L 273.200 306.800 275.000 306.800 L 276.800 306.800 276.800 311.800 L 276.800 316.800 275.000 316.800 L 273.200 316.800 273.200 318.400 L 273.200 320.000 268.200 320.000 L 263.200 320.000 263.200 321.600 L 263.200 323.200 256.600 323.200 L 250.000 323.200 250.000 321.600 L 250.000 320.000 241.600 320.000 L 233.200 320.000 233.200 318.400 L 233.200 316.800 228.200 316.800 L 223.200 316.800 223.200 315.000 L 223.200 313.200 220.000 313.200 L 216.800 313.200 216.800 311.600 L 216.800 310.000 213.400 310.000 L 210.000 310.000 210.000 308.400 L 210.000 306.800 208.400 306.800 L 206.800 306.800 206.800 305.000 L 206.800 303.200 208.400 303.200 L 210.000 303.200 210.000 300.000 L 210.000 296.800 208.400 296.800 L 206.800 296.800 206.800 295.000 L 206.800 293.200 205.000 293.200 L 203.200 293.200 203.200 291.600 L 203.200 290.000 201.600 290.000 L 200.000 290.000 200.000 288.400 L 200.000 286.800 196.600 286.800 L 193.200 286.800 193.200 285.000 L 193.200 283.200 190.000 283.200 L 186.800 283.200 186.800 285.000 L 186.800 286.800 185.000 286.800 L 183.200 286.800 183.200 283.400 L 183.200 280.000 181.600 280.000 L 180.000 280.000 180.000 276.600 L 180.000 273.200 181.600 273.200 L 183.200 273.200 183.200 271.600 L 183.200 270.000 180.000 270.000 L 176.800 270.000 176.800 265.000 L 176.800 260.000 175.000 260.000 L 173.200 260.000 173.200 263.400 L 173.200 266.800 171.600 266.800 L 170.000 266.800 170.000 263.400 L 170.000 260.000 168.400 260.000 L 166.800 260.000 166.800 258.400 L 166.800 256.800 168.400 256.800 L 170.000 256.800 170.000 255.000 L 170.000 253.200 168.400 253.200 L 166.800 253.200 166.800 250.000 L 166.800 246.800 165.000 246.800 L 163.200 246.800 163.200 243.400 L 163.200 240.000 161.600 240.000 L 160.000 240.000 160.000 235.000 L 160.000 230.000 158.400 230.000 L 156.800 230.000 156.800 225.000 L 156.800 220.000 158.400 220.000 L 160.000 220.000 160.000 211.600 L 160.000 203.200 158.400 203.200 L 156.800 203.200 156.800 190.000 L 156.800 176.800 160.000 176.800 L 163.200 176.800 163.200 178.400 L 163.200 180.000 168.200 180.000 L 173.200 180.000 173.200 181.800 L 173.200 183.600 191.600 183.600 L 210.000 183.600 210.000 181.800 L 210.000 180.000 211.600 180.000 L 213.200 180.000 213.200 178.400 L 213.200 176.800 211.600 176.800 L 210.000 176.800 210.000 175.200 L 210.000 173.600 191.600 173.600 L 173.200 173.600 173.200 171.800 L 173.200 170.000 168.200 170.000 L 163.200 170.000 163.200 168.400 L 163.200 166.800 160.000 166.800 L 156.800 166.800 156.800 161.800 L 156.800 156.800 155.000 156.800 L 153.200 156.800 153.200 160.000 L 153.200 163.200 150.000 163.200 L 146.800 163.200 146.800 161.600 L 146.800 160.000 143.400 160.000 L 140.000 160.000 140.000 156.600 L 140.000 153.200 138.400 153.200 L 136.800 153.200 136.800 151.600 L 136.800 150.000 138.400 150.000 L 140.000 150.000 140.000 146.600 L 140.000 143.200 141.600 143.200 L 143.200 143.200 143.200 140.000 L 143.200 136.800 145.000 136.800 L 146.800 136.800 146.800 135.000 L 146.800 133.200 148.400 133.200 L 150.000 133.200 150.000 130.000 L 150.000 126.800 153.400 126.800 L 156.800 126.800 156.800 125.000 L 156.800 123.200 160.000 123.200 L 163.200 123.200 163.200 125.000 M160.000 131.800 L 160.000 136.800 158.400 136.800 L 156.800 136.800 156.800 146.800 L 156.800 156.800 158.400 156.800 L 160.000 156.800 160.000 146.800 L 160.000 136.800 161.600 136.800 L 163.200 136.800 163.200 131.800 L 163.200 126.800 161.600 126.800 L 160.000 126.800 160.000 131.800 M213.200 131.800 L 213.200 136.800 215.000 136.800 L 216.800 136.800 216.800 131.800 L 216.800 126.800 215.000 126.800 L 213.200 126.800 213.200 131.800 M173.200 141.600 L 173.200 143.200 176.600 143.200 L 180.000 143.200 180.000 148.200 L 180.000 153.200 185.000 153.200 L 190.000 153.200 190.000 148.200 L 190.000 143.200 191.600 143.200 L 193.200 143.200 193.200 141.600 L 193.200 140.000 183.200 140.000 L 173.200 140.000 173.200 141.600 M190.000 161.600 L 190.000 163.200 195.000 163.200 L 200.000 163.200 200.000 161.600 L 200.000 160.000 195.000 160.000 L 190.000 160.000 190.000 161.600 M160.000 171.600 L 160.000 173.200 158.400 173.200 L 156.800 173.200 156.800 171.600 L 156.800 170.000 158.400 170.000 L 160.000 170.000 160.000 171.600 M210.000 171.600 L 210.000 173.200 211.600 173.200 L 213.200 173.200 213.200 171.600 L 213.200 170.000 211.600 170.000 L 210.000 170.000 210.000 171.600 M170.000 175.000 L 170.000 176.800 168.400 176.800 L 166.800 176.800 166.800 175.000 L 166.800 173.200 168.400 173.200 L 170.000 173.200 170.000 175.000 M180.000 178.400 L 180.000 180.000 178.400 180.000 L 176.800 180.000 176.800 178.400 L 176.800 176.800 178.400 176.800 L 180.000 176.800 180.000 178.400 M186.800 178.400 L 186.800 180.000 185.000 180.000 L 183.200 180.000 183.200 178.400 L 183.200 176.800 185.000 176.800 L 186.800 176.800 186.800 178.400 M193.200 178.400 L 193.200 180.000 191.600 180.000 L 190.000 180.000 190.000 178.400 L 190.000 176.800 191.600 176.800 L 193.200 176.800 193.200 178.400 M200.000 178.400 L 200.000 180.000 198.400 180.000 L 196.800 180.000 196.800 178.400 L 196.800 176.800 198.400 176.800 L 200.000 176.800 200.000 178.400 M206.800 178.400 L 206.800 180.000 205.000 180.000 L 203.200 180.000 203.200 178.400 L 203.200 176.800 205.000 176.800 L 206.800 176.800 206.800 178.400 M160.000 200.000 L 160.000 203.200 161.600 203.200 L 163.200 203.200 163.200 200.000 L 163.200 196.800 161.600 196.800 L 160.000 196.800 160.000 200.000 M170.000 201.800 L 170.000 206.800 168.400 206.800 L 166.800 206.800 166.800 215.000 L 166.800 223.200 165.000 223.200 L 163.200 223.200 163.200 226.600 L 163.200 230.000 165.000 230.000 L 166.800 230.000 166.800 235.000 L 166.800 240.000 168.400 240.000 L 170.000 240.000 170.000 243.400 L 170.000 246.800 171.600 246.800 L 173.200 246.800 173.200 250.000 L 173.200 253.200 175.000 253.200 L 176.800 253.200 176.800 255.000 L 176.800 256.800 178.400 256.800 L 180.000 256.800 180.000 255.000 L 180.000 253.200 178.400 253.200 L 176.800 253.200 176.800 250.000 L 176.800 246.800 175.000 246.800 L 173.200 246.800 173.200 243.400 L 173.200 240.000 171.600 240.000 L 170.000 240.000 170.000 235.000 L 170.000 230.000 168.400 230.000 L 166.800 230.000 166.800 226.600 L 166.800 223.200 168.400 223.200 L 170.000 223.200 170.000 215.000 L 170.000 206.800 171.600 206.800 L 173.200 206.800 173.200 201.800 L 173.200 196.800 171.600 196.800 L 170.000 196.800 170.000 201.800 M170.000 258.400 L 170.000 260.000 171.600 260.000 L 173.200 260.000 173.200 258.400 L 173.200 256.800 171.600 256.800 L 170.000 256.800 170.000 258.400 M183.200 258.385 L 183.200 260.000 185.000 260.000 L 186.800 260.000 186.800 263.400 L 186.800 266.800 185.000 266.800 L 183.200 266.800 183.200 268.400 L 183.200 270.000 185.000 270.000 L 186.800 270.000 186.800 268.400 L 186.800 266.800 188.400 266.800 L 190.000 266.800 190.000 261.895 L 190.000 256.989 186.600 256.880 L 183.200 256.770 183.200 258.385 " stroke="none" fill="#040404" fill-rule="evenodd"></path><path id="path6" d="M186.800 55.000 L 186.800 56.800 185.000 56.800 L 183.200 56.800 183.200 61.800 L 183.200 66.800 185.000 66.800 L 186.800 66.800 186.800 68.400 L 186.800 70.000 188.400 70.000 L 190.000 70.000 190.000 76.600 L 190.000 83.200 191.600 83.200 L 193.200 83.200 193.200 76.600 L 193.200 70.000 195.000 70.000 L 196.800 70.000 196.800 61.600 L 196.800 53.200 191.800 53.200 L 186.800 53.200 186.800 55.000 M190.000 55.200 C 190.000 56.762,189.967 56.800,188.600 56.800 C 187.233 56.800,187.200 56.762,187.200 55.200 C 187.200 53.638,187.233 53.600,188.600 53.600 C 189.967 53.600,190.000 53.638,190.000 55.200 M186.800 61.800 L 186.800 66.400 185.200 66.400 L 183.600 66.400 183.600 61.800 L 183.600 57.200 185.200 57.200 L 186.800 57.200 186.800 61.800 M190.000 68.200 C 190.000 69.533,189.933 69.600,188.600 69.600 C 187.267 69.600,187.200 69.533,187.200 68.200 C 187.200 66.867,187.267 66.800,188.600 66.800 C 189.933 66.800,190.000 66.867,190.000 68.200 M156.894 189.900 L 156.800 203.200 158.400 203.200 L 160.000 203.200 160.000 211.600 L 160.000 220.000 158.400 220.000 L 156.800 220.000 156.800 225.000 L 156.800 230.000 158.400 230.000 L 160.000 230.000 160.000 235.000 L 160.000 240.000 161.600 240.000 L 163.200 240.000 163.200 243.400 L 163.200 246.800 165.000 246.800 L 166.800 246.800 166.800 250.000 L 166.800 253.200 168.400 253.200 L 170.000 253.200 170.000 255.000 L 170.000 256.800 168.400 256.800 L 166.800 256.800 166.800 258.400 L 166.800 260.000 168.400 260.000 L 170.000 260.000 170.000 263.400 L 170.000 266.800 171.600 266.800 L 173.200 266.800 173.200 263.400 L 173.200 260.000 175.000 260.000 L 176.800 260.000 176.800 265.000 L 176.800 270.000 180.000 270.000 L 183.200 270.000 183.200 271.600 L 183.200 273.200 181.600 273.200 L 180.000 273.200 180.000 276.600 L 180.000 280.000 181.600 280.000 L 183.200 280.000 183.200 283.400 L 183.200 286.800 185.100 286.730 L 187.000 286.660 185.316 286.508 L 183.632 286.356 183.516 283.078 L 183.400 279.800 181.900 279.676 L 180.400 279.552 180.400 276.600 L 180.400 273.648 181.900 273.524 C 183.314 273.407,183.407 273.315,183.523 271.922 C 183.641 270.495,183.704 270.440,185.323 270.322 C 186.942 270.204,187.004 270.149,187.123 268.723 C 187.238 267.335,187.335 267.238,188.723 267.123 L 190.200 267.000 190.312 261.900 L 190.424 256.800 191.812 256.800 C 193.165 256.800,193.200 256.841,193.200 258.400 L 193.200 260.000 195.000 260.000 L 196.800 260.000 196.800 261.600 L 196.800 263.200 198.400 263.200 L 200.000 263.200 200.000 265.000 L 200.000 266.800 201.600 266.800 L 203.200 266.800 203.200 268.400 L 203.200 270.000 205.000 270.000 L 206.800 270.000 206.800 271.600 L 206.800 273.200 208.400 273.200 L 210.000 273.200 210.000 275.000 L 210.000 276.800 211.600 276.800 L 213.200 276.800 213.200 278.400 L 213.200 280.000 215.000 280.000 L 216.800 280.000 216.800 281.600 L 216.800 283.200 218.400 283.200 L 220.000 283.200 220.000 286.600 L 220.000 290.000 221.600 290.000 L 223.200 290.000 223.200 286.600 L 223.200 283.200 225.000 283.200 L 226.800 283.200 226.800 286.600 L 226.800 290.000 225.100 290.067 L 223.400 290.134 224.876 290.290 C 226.196 290.429,226.370 290.581,226.512 291.723 C 226.666 292.952,226.674 292.944,226.736 291.500 L 226.800 290.000 230.000 290.000 L 233.200 290.000 233.200 291.600 L 233.200 293.200 230.000 293.200 L 226.800 293.200 226.800 295.000 L 226.800 296.800 230.000 296.800 L 233.200 296.800 233.200 298.400 L 233.200 300.000 236.600 300.000 L 240.000 300.000 240.000 301.600 L 240.000 303.200 243.400 303.200 L 246.800 303.200 246.800 305.000 L 246.800 306.800 253.400 306.800 L 260.000 306.800 260.000 308.400 L 260.000 310.000 261.600 310.000 L 263.200 310.000 263.200 311.600 L 263.200 313.200 269.800 313.200 L 276.400 313.200 276.400 314.777 C 276.400 316.346,276.392 316.355,274.700 316.477 C 273.053 316.596,272.996 316.646,272.877 318.088 L 272.753 319.576 267.877 319.688 L 263.000 319.800 262.876 321.300 L 262.752 322.800 256.600 322.800 L 250.448 322.800 250.324 321.300 L 250.200 319.800 241.924 319.692 L 233.647 319.584 233.524 318.092 L 233.400 316.600 228.522 316.488 L 223.645 316.376 223.522 314.688 L 223.400 313.000 220.323 312.884 L 217.246 312.767 217.123 311.284 L 217.000 309.800 213.723 309.684 L 210.446 309.568 210.323 308.084 C 210.204 306.646,210.150 306.599,208.600 306.566 L 207.000 306.532 208.500 306.689 C 209.953 306.841,210.000 306.895,210.000 308.423 L 210.000 310.000 213.400 310.000 L 216.800 310.000 216.800 311.600 L 216.800 313.200 220.000 313.200 L 223.200 313.200 223.200 315.000 L 223.200 316.800 228.200 316.800 L 233.200 316.800 233.200 318.400 L 233.200 320.000 241.600 320.000 L 250.000 320.000 250.000 321.600 L 250.000 323.200 256.600 323.200 L 263.200 323.200 263.200 321.600 L 263.200 320.000 268.200 320.000 L 273.200 320.000 273.200 318.400 L 273.200 316.800 275.000 316.800 L 276.800 316.800 276.800 311.800 L 276.800 306.800 275.000 306.800 L 273.200 306.800 273.200 305.000 L 273.200 303.200 271.600 303.200 L 270.000 303.200 270.000 301.600 L 270.000 300.000 268.400 300.000 L 266.800 300.000 266.800 298.400 L 266.800 296.800 265.000 296.800 L 263.200 296.800 263.200 295.000 L 263.200 293.200 261.600 293.200 L 260.000 293.200 260.000 291.600 L 260.000 290.000 258.400 290.000 L 256.800 290.000 256.800 288.400 L 256.800 286.800 255.000 286.800 L 253.200 286.800 253.200 285.000 L 253.200 283.200 251.600 283.200 L 250.000 283.200 250.000 281.600 L 250.000 280.000 248.400 280.000 L 246.800 280.000 246.800 278.400 L 246.800 276.800 245.000 276.800 L 243.200 276.800 243.200 275.000 L 243.200 273.200 241.600 273.200 L 240.000 273.200 240.000 270.000 L 240.000 266.800 238.400 266.800 L 236.800 266.800 236.800 263.400 L 236.800 260.000 235.000 260.000 L 233.200 260.000 233.200 256.600 L 233.200 253.200 231.600 253.200 L 230.000 253.200 230.000 250.000 L 230.000 246.800 228.400 246.800 L 226.800 246.800 226.800 241.800 L 226.800 236.800 225.000 236.800 L 223.200 236.800 223.200 231.800 L 223.200 226.800 221.600 226.800 L 220.000 226.800 220.000 218.400 L 220.000 210.000 218.400 210.000 L 216.800 210.000 216.800 201.600 L 216.800 193.200 215.000 193.200 L 213.200 193.200 213.200 190.000 L 213.200 186.800 215.000 186.800 L 216.800 186.800 216.800 181.800 L 216.800 176.800 215.000 176.800 L 213.200 176.800 213.200 178.400 L 213.200 180.000 211.600 180.000 L 210.000 180.000 210.000 181.600 L 210.000 183.200 211.600 183.200 L 213.200 183.200 213.200 185.000 L 213.200 186.800 211.600 186.800 L 210.000 186.800 210.000 185.200 L 210.000 183.600 191.600 183.600 L 173.200 183.600 173.200 189.958 L 173.200 196.317 170.000 196.600 L 166.800 196.883 166.800 200.042 L 166.800 203.200 165.216 203.200 L 163.632 203.200 163.516 199.900 L 163.400 196.600 161.600 196.600 L 159.800 196.600 159.683 199.700 L 159.566 202.800 158.389 202.800 L 157.211 202.800 157.100 189.700 L 156.989 176.600 156.894 189.900 M186.800 188.400 L 186.800 190.000 185.000 190.000 L 183.200 190.000 183.200 193.400 L 183.200 196.800 181.600 196.800 L 180.000 196.800 180.000 193.400 L 180.000 190.000 181.600 190.000 L 183.200 190.000 183.200 188.400 L 183.200 186.800 185.000 186.800 L 186.800 186.800 186.800 188.400 M210.000 188.400 L 210.000 190.000 206.600 190.000 L 203.200 190.000 203.200 191.600 L 203.200 193.200 201.600 193.200 L 200.000 193.200 200.000 191.600 L 200.000 190.000 201.600 190.000 L 203.200 190.000 203.200 188.400 L 203.200 186.800 206.600 186.800 L 210.000 186.800 210.000 188.400 M163.200 200.000 L 163.200 203.200 161.600 203.200 L 160.000 203.200 160.000 200.000 L 160.000 196.800 161.600 196.800 L 163.200 196.800 163.200 200.000 M173.200 201.800 L 173.200 206.800 171.600 206.800 L 170.000 206.800 170.000 201.800 L 170.000 196.800 171.600 196.800 L 173.200 196.800 173.200 201.800 M176.800 205.000 L 176.800 213.200 178.400 213.200 L 180.000 213.200 180.000 220.000 L 180.000 226.800 181.600 226.800 L 183.200 226.800 183.200 233.400 L 183.200 240.000 185.000 240.000 L 186.800 240.000 186.800 243.400 L 186.800 246.800 188.400 246.800 L 190.000 246.800 190.000 245.000 L 190.000 243.200 191.600 243.200 L 193.200 243.200 193.200 241.600 L 193.200 240.000 195.000 240.000 L 196.800 240.000 196.800 235.000 L 196.800 230.000 198.400 230.000 L 200.000 230.000 200.000 228.400 L 200.000 226.800 201.600 226.800 L 203.200 226.800 203.200 225.000 L 203.200 223.200 208.200 223.200 L 213.200 223.200 213.200 225.000 L 213.200 226.800 215.000 226.800 L 216.800 226.800 216.800 228.400 L 216.800 230.000 218.400 230.000 L 220.000 230.000 220.000 235.000 L 220.000 240.000 218.400 240.000 L 216.800 240.000 216.800 241.600 L 216.800 243.200 215.000 243.200 L 213.200 243.200 213.200 245.000 L 213.200 246.800 208.200 246.800 L 203.200 246.800 203.200 245.000 L 203.200 243.200 201.600 243.200 L 200.000 243.200 200.000 248.200 L 200.000 253.200 201.600 253.200 L 203.200 253.200 203.200 256.600 L 203.200 260.000 206.600 260.000 L 210.000 260.000 210.000 261.600 L 210.000 263.200 211.600 263.200 L 213.200 263.200 213.200 265.000 L 213.200 266.800 211.600 266.800 L 210.000 266.800 210.000 265.000 L 210.000 263.200 206.600 263.200 L 203.200 263.200 203.200 261.600 L 203.200 260.000 201.600 260.000 L 200.000 260.000 200.000 256.600 L 200.000 253.200 198.400 253.200 L 196.800 253.200 196.800 251.600 L 196.800 250.000 195.000 250.000 L 193.200 250.000 193.200 251.600 L 193.200 253.200 191.600 253.200 L 190.000 253.200 190.000 260.000 L 190.000 266.800 188.400 266.800 L 186.800 266.800 186.800 268.400 L 186.800 270.000 185.000 270.000 L 183.200 270.000 183.200 268.400 L 183.200 266.800 185.000 266.800 L 186.800 266.800 186.800 263.400 L 186.800 260.000 185.000 260.000 L 183.200 260.000 183.200 258.400 L 183.200 256.800 180.000 256.800 L 176.800 256.800 176.800 258.200 C 176.800 259.567,176.762 259.600,175.200 259.600 C 173.638 259.600,173.600 259.567,173.600 258.200 C 173.600 256.833,173.638 256.800,175.200 256.800 L 176.800 256.800 176.800 255.000 L 176.800 253.200 180.100 253.120 L 183.400 253.039 180.317 252.903 L 177.233 252.767 177.117 249.683 L 177.000 246.600 175.316 246.478 L 173.632 246.356 173.516 243.078 L 173.400 239.800 171.912 239.677 L 170.424 239.553 170.312 234.677 L 170.200 229.800 168.700 229.676 L 167.200 229.552 167.200 226.600 L 167.200 223.648 168.700 223.524 L 170.200 223.400 170.308 215.324 L 170.416 207.247 171.908 207.124 L 173.400 207.000 173.512 201.900 L 173.624 196.800 175.212 196.800 L 176.800 196.800 176.800 205.000 M163.200 211.800 L 163.200 220.000 161.800 220.000 L 160.400 220.000 160.400 211.800 L 160.400 203.600 161.800 203.600 L 163.200 203.600 163.200 211.800 M170.000 215.000 L 170.000 223.200 168.400 223.200 L 166.800 223.200 166.800 226.600 L 166.800 230.000 168.400 230.000 L 170.000 230.000 170.000 235.000 L 170.000 240.000 171.600 240.000 L 173.200 240.000 173.200 243.400 L 173.200 246.800 175.000 246.800 L 176.800 246.800 176.800 250.000 L 176.800 253.200 175.000 253.200 L 173.200 253.200 173.200 250.000 L 173.200 246.800 171.600 246.800 L 170.000 246.800 170.000 243.400 L 170.000 240.000 168.400 240.000 L 166.800 240.000 166.800 235.000 L 166.800 230.000 165.000 230.000 L 163.200 230.000 163.200 233.400 L 163.200 236.800 164.758 236.800 L 166.317 236.800 166.600 240.000 L 166.883 243.200 168.194 243.200 L 169.505 243.200 169.789 246.600 L 170.072 250.000 171.436 250.000 C 172.497 250.000,172.800 250.164,172.800 250.741 C 172.800 251.149,172.916 252.589,173.057 253.941 L 173.314 256.400 171.880 256.400 C 170.479 256.400,170.443 256.361,170.323 254.700 C 170.204 253.054,170.153 252.996,168.716 252.877 L 167.233 252.754 167.116 249.677 L 167.000 246.600 165.316 246.478 L 163.632 246.356 163.516 243.078 L 163.400 239.800 161.900 239.676 L 160.400 239.552 160.400 234.776 L 160.400 230.000 161.800 230.000 L 163.200 230.000 163.200 226.600 L 163.200 223.200 165.000 223.200 L 166.800 223.200 166.800 215.000 L 166.800 206.800 168.400 206.800 L 170.000 206.800 170.000 215.000 M160.000 225.000 L 160.000 229.600 158.600 229.600 L 157.200 229.600 157.200 225.000 L 157.200 220.400 158.600 220.400 L 160.000 220.400 160.000 225.000 M173.200 258.400 L 173.200 260.000 171.600 260.000 L 170.000 260.000 170.000 258.400 L 170.000 256.800 171.600 256.800 L 173.200 256.800 173.200 258.400 M169.600 258.400 C 169.600 259.467,169.467 259.600,168.400 259.600 C 167.333 259.600,167.200 259.467,167.200 258.400 C 167.200 257.333,167.333 257.200,168.400 257.200 C 169.467 257.200,169.600 257.333,169.600 258.400 M180.000 261.600 L 180.000 263.200 181.600 263.200 C 183.403 263.200,183.442 263.326,182.941 267.500 L 182.689 269.600 179.944 269.600 L 177.200 269.600 177.200 264.800 L 177.200 260.000 178.600 260.000 C 179.967 260.000,180.000 260.038,180.000 261.600 M226.800 261.600 L 226.800 263.200 228.400 263.200 L 230.000 263.200 230.000 266.600 L 230.000 270.000 231.600 270.000 L 233.200 270.000 233.200 271.600 L 233.200 273.200 231.600 273.200 L 230.000 273.200 230.000 271.600 L 230.000 270.000 228.400 270.000 L 226.800 270.000 226.800 266.600 L 226.800 263.200 225.000 263.200 L 223.200 263.200 223.200 261.600 L 223.200 260.000 225.000 260.000 L 226.800 260.000 226.800 261.600 M172.800 263.400 L 172.800 266.400 171.600 266.400 L 170.400 266.400 170.400 263.400 L 170.400 260.400 171.600 260.400 L 172.800 260.400 172.800 263.400 M223.200 280.000 L 223.200 283.200 221.600 283.200 L 220.000 283.200 220.000 280.000 L 220.000 276.800 221.600 276.800 L 223.200 276.800 223.200 280.000 " stroke="none" fill="#fcd204" fill-rule="evenodd"></path><path id="path7" d="M203.200 225.000 L 203.200 226.800 201.600 226.800 L 200.000 226.800 200.000 228.400 L 200.000 230.000 198.400 230.000 L 196.800 230.000 196.800 235.000 L 196.800 240.000 198.400 240.000 L 200.000 240.000 200.000 241.600 L 200.000 243.200 198.400 243.200 L 196.800 243.200 196.800 245.000 L 196.800 246.800 195.000 246.800 L 193.200 246.800 193.200 248.400 L 193.200 250.000 191.600 250.000 L 190.000 250.000 190.000 251.600 L 190.000 253.200 188.400 253.200 L 186.800 253.200 186.800 254.957 C 186.800 256.782,187.242 257.269,188.657 257.002 C 189.066 256.924,189.535 256.847,189.700 256.831 C 189.865 256.814,190.000 255.990,190.000 255.000 L 190.000 253.200 191.600 253.200 L 193.200 253.200 193.200 251.600 L 193.200 250.000 195.000 250.000 L 196.800 250.000 196.800 248.400 L 196.800 246.800 198.400 246.800 L 200.000 246.800 200.000 245.000 L 200.000 243.200 201.600 243.200 L 203.200 243.200 203.200 245.000 L 203.200 246.800 208.200 246.800 L 213.200 246.800 213.200 245.000 L 213.200 243.200 215.000 243.200 L 216.800 243.200 216.800 241.600 L 216.800 240.000 218.400 240.000 L 220.000 240.000 220.000 235.000 L 220.000 230.000 218.400 230.000 L 216.800 230.000 216.800 228.400 L 216.800 226.800 215.000 226.800 L 213.200 226.800 213.200 225.000 L 213.200 223.200 208.200 223.200 L 203.200 223.200 203.200 225.000 M213.200 228.400 L 213.200 230.000 215.000 230.000 L 216.800 230.000 216.800 235.000 L 216.800 240.000 215.000 240.000 L 213.200 240.000 213.200 241.600 L 213.200 243.200 208.200 243.200 L 203.200 243.200 203.200 241.600 L 203.200 240.000 201.600 240.000 L 200.000 240.000 200.000 235.000 L 200.000 230.000 201.600 230.000 L 203.200 230.000 203.200 228.400 L 203.200 226.800 208.200 226.800 L 213.200 226.800 213.200 228.400 " stroke="none" fill="#141414" fill-rule="evenodd"></path><path id="path8" d="M210.000 185.000 L 210.000 186.800 206.600 186.800 L 203.200 186.800 203.200 188.400 L 203.200 190.000 201.600 190.000 L 200.000 190.000 200.000 191.600 L 200.000 193.200 201.600 193.200 L 203.200 193.200 203.200 191.600 L 203.200 190.000 206.600 190.000 L 210.000 190.000 210.000 188.400 L 210.000 186.800 211.600 186.800 L 213.200 186.800 213.200 190.000 L 213.200 193.200 215.000 193.200 L 216.800 193.200 216.800 190.000 L 216.800 186.800 215.000 186.800 L 213.200 186.800 213.200 185.000 L 213.200 183.200 211.600 183.200 L 210.000 183.200 210.000 185.000 M183.200 188.400 L 183.200 190.000 181.600 190.000 L 180.000 190.000 180.000 193.400 L 180.000 196.800 181.600 196.800 L 183.200 196.800 183.200 193.400 L 183.200 190.000 185.000 190.000 L 186.800 190.000 186.800 188.400 L 186.800 186.800 185.000 186.800 L 183.200 186.800 183.200 188.400 M213.200 235.000 L 213.200 236.800 211.600 236.800 L 210.000 236.800 210.000 238.400 L 210.000 240.000 206.600 240.000 L 203.200 240.000 203.200 238.400 L 203.200 236.800 201.600 236.800 L 200.000 236.800 200.000 238.400 L 200.000 240.000 201.600 240.000 L 203.200 240.000 203.200 241.600 L 203.200 243.200 208.200 243.200 L 213.200 243.200 213.200 241.600 L 213.200 240.000 215.000 240.000 L 216.800 240.000 216.800 236.600 L 216.800 233.200 215.000 233.200 L 213.200 233.200 213.200 235.000 M196.800 250.000 L 196.800 253.200 198.400 253.200 L 200.000 253.200 200.000 256.600 L 200.000 260.000 201.600 260.000 L 203.200 260.000 203.200 261.600 L 203.200 263.200 206.600 263.200 L 210.000 263.200 210.000 265.000 L 210.000 266.800 211.600 266.800 L 213.200 266.800 213.200 265.000 L 213.200 263.200 211.600 263.200 L 210.000 263.200 210.000 261.600 L 210.000 260.000 206.600 260.000 L 203.200 260.000 203.200 256.600 L 203.200 253.200 201.600 253.200 L 200.000 253.200 200.000 250.000 L 200.000 246.800 198.400 246.800 L 196.800 246.800 196.800 250.000 M223.200 261.600 L 223.200 263.200 225.000 263.200 L 226.800 263.200 226.800 266.600 L 226.800 270.000 228.400 270.000 L 230.000 270.000 230.000 271.600 L 230.000 273.200 231.600 273.200 L 233.200 273.200 233.200 271.600 L 233.200 270.000 231.600 270.000 L 230.000 270.000 230.000 266.600 L 230.000 263.200 228.400 263.200 L 226.800 263.200 226.800 261.600 L 226.800 260.000 225.000 260.000 L 223.200 260.000 223.200 261.600 M220.000 280.000 L 220.000 283.200 221.600 283.200 L 223.200 283.200 223.200 286.600 L 223.200 290.000 225.000 290.000 L 226.800 290.000 226.800 291.600 L 226.800 293.200 230.000 293.200 L 233.200 293.200 233.200 291.600 L 233.200 290.000 230.000 290.000 L 226.800 290.000 226.800 286.600 L 226.800 283.200 225.000 283.200 L 223.200 283.200 223.200 280.000 L 223.200 276.800 221.600 276.800 L 220.000 276.800 220.000 280.000 " stroke="none" fill="#94541c" fill-rule="evenodd"></path></g></svg>