<svg id="svg" version="1.1" xmlns="http://www.w3.org/2000/svg" xmlns:xlink="http://www.w3.org/1999/xlink" width="400" height="400" viewBox="0, 0, 400,400"><g id="svgg"><path id="path0" d="M183.200 78.400 L 183.200 80.000 178.200 80.000 L 173.200 80.000 173.200 81.600 L 173.200 83.200 170.000 83.200 L 166.800 83.200 166.800 85.000 L 166.800 86.800 165.000 86.800 L 163.200 86.800 163.200 91.800 L 163.200 96.800 161.600 96.800 L 160.000 96.800 160.000 98.400 L 160.000 100.000 161.600 100.000 L 163.200 100.000 163.200 101.600 L 163.200 103.200 166.600 103.200 L 170.000 103.200 170.000 101.600 L 170.000 100.000 173.400 100.000 L 176.800 100.000 176.800 98.400 L 176.800 96.800 178.400 96.800 L 180.000 96.800 180.000 90.000 L 180.000 83.200 181.600 83.200 L 183.200 83.200 183.200 85.000 L 183.200 86.800 185.000 86.800 L 186.800 86.800 186.800 93.400 L 186.800 100.000 185.000 100.000 L 183.200 100.000 183.200 101.600 L 183.200 103.200 181.600 103.200 L 180.000 103.200 180.000 105.000 L 180.000 106.800 191.600 106.800 L 203.200 106.800 203.200 103.400 L 203.200 100.000 205.000 100.000 L 206.800 100.000 206.800 98.400 L 206.800 96.800 208.400 96.800 L 210.000 96.800 210.000 91.800 L 210.000 86.800 211.600 86.800 L 213.200 86.800 213.200 88.400 L 213.200 90.000 215.000 90.000 L 216.800 90.000 216.800 95.000 L 216.800 100.000 215.000 100.000 L 213.200 100.000 213.200 101.600 L 213.200 103.200 218.200 103.200 L 223.200 103.200 223.200 100.000 L 223.200 96.800 225.000 96.800 L 226.800 96.800 226.800 91.800 L 226.800 86.800 225.000 86.800 L 223.200 86.800 223.200 83.400 L 223.200 80.000 218.200 80.000 L 213.200 80.000 213.200 78.400 L 213.200 76.800 198.200 76.800 L 183.200 76.800 183.200 78.400 M210.000 108.400 L 210.000 110.000 206.600 110.000 L 203.200 110.000 203.200 111.600 L 203.200 113.200 190.000 113.200 L 176.800 113.200 176.800 111.600 L 176.800 110.000 171.800 110.000 L 166.800 110.000 166.800 111.600 L 166.800 113.200 165.000 113.200 L 163.200 113.200 163.200 116.600 L 163.200 120.000 161.600 120.000 L 160.000 120.000 160.000 121.600 L 160.000 123.200 175.000 123.200 L 190.000 123.200 190.000 121.600 L 190.000 120.000 198.400 120.000 L 206.800 120.000 206.800 121.600 L 206.800 123.200 203.400 123.200 L 200.000 123.200 200.000 125.000 L 200.000 126.800 203.400 126.800 L 206.800 126.800 206.800 125.000 L 206.800 123.200 211.800 123.200 L 216.800 123.200 216.800 115.000 L 216.800 106.800 213.400 106.800 L 210.000 106.800 210.000 108.400 M173.200 128.400 L 173.200 130.000 181.600 130.000 L 190.000 130.000 190.000 128.400 L 190.000 126.800 181.600 126.800 L 173.200 126.800 173.200 128.400 M213.200 128.400 L 213.200 130.000 216.600 130.000 L 220.000 130.000 220.000 128.400 L 220.000 126.800 216.600 126.800 L 213.200 126.800 213.200 128.400 M173.200 145.000 L 173.200 146.800 175.000 146.800 L 176.800 146.800 176.800 148.400 L 176.800 150.000 178.400 150.000 L 180.000 150.000 180.000 146.600 L 180.000 143.200 176.600 143.200 L 173.200 143.200 173.200 145.000 M196.800 145.000 L 196.800 146.800 198.400 146.800 L 200.000 146.800 200.000 148.400 L 200.000 150.000 201.600 150.000 L 203.200 150.000 203.200 146.600 L 203.200 143.200 200.000 143.200 L 196.800 143.200 196.800 145.000 M156.800 171.600 L 156.800 173.200 158.400 173.200 L 160.000 173.200 160.000 171.600 L 160.000 170.000 158.400 170.000 L 156.800 170.000 156.800 171.600 M213.200 171.600 L 213.200 173.200 211.600 173.200 L 210.000 173.200 210.000 175.000 L 210.000 176.800 211.600 176.800 L 213.200 176.800 213.200 175.000 L 213.200 173.200 215.000 173.200 L 216.800 173.200 216.800 171.600 L 216.800 170.000 215.000 170.000 L 213.200 170.000 213.200 171.600 M166.800 175.000 L 166.800 176.800 168.400 176.800 L 170.000 176.800 170.000 175.000 L 170.000 173.200 168.400 173.200 L 166.800 173.200 166.800 175.000 M176.800 178.400 L 176.800 180.000 178.400 180.000 L 180.000 180.000 180.000 178.400 L 180.000 176.800 178.400 176.800 L 176.800 176.800 176.800 178.400 M183.200 178.400 L 183.200 180.000 185.000 180.000 L 186.800 180.000 186.800 178.400 L 186.800 176.800 185.000 176.800 L 183.200 176.800 183.200 178.400 M190.000 178.400 L 190.000 180.000 191.600 180.000 L 193.200 180.000 193.200 178.400 L 193.200 176.800 191.600 176.800 L 190.000 176.800 190.000 178.400 M196.800 178.400 L 196.800 180.000 198.400 180.000 L 200.000 180.000 200.000 178.400 L 200.000 176.800 198.400 176.800 L 196.800 176.800 196.800 178.400 M203.200 178.400 L 203.200 180.000 205.000 180.000 L 206.800 180.000 206.800 178.400 L 206.800 176.800 205.000 176.800 L 203.200 176.800 203.200 178.400 M176.800 188.400 L 176.800 190.000 171.800 190.000 L 166.800 190.000 166.800 191.600 L 166.800 193.200 165.000 193.200 L 163.200 193.200 163.200 195.000 L 163.200 196.800 165.000 196.800 L 166.800 196.800 166.800 201.800 L 166.800 206.800 165.000 206.800 L 163.200 206.800 163.200 215.000 L 163.200 223.200 161.600 223.200 L 160.000 223.200 160.000 226.600 L 160.000 230.000 161.600 230.000 L 163.200 230.000 163.200 233.400 L 163.200 236.800 165.000 236.800 L 166.800 236.800 166.800 233.400 L 166.800 230.000 168.400 230.000 L 170.000 230.000 170.000 235.000 L 170.000 240.000 168.400 240.000 L 166.800 240.000 166.800 243.400 L 166.800 246.800 168.400 246.800 L 170.000 246.800 170.000 250.000 L 170.000 253.200 171.600 253.200 L 173.200 253.200 173.200 250.000 L 173.200 246.800 175.000 246.800 L 176.800 246.800 176.800 250.000 L 176.800 253.200 180.000 253.200 L 183.200 253.200 183.200 255.000 L 183.200 256.800 186.600 256.800 L 190.000 256.800 190.000 226.800 L 190.000 196.800 188.400 196.800 L 186.800 196.800 186.800 193.400 L 186.800 190.000 185.000 190.000 L 183.200 190.000 183.200 188.400 L 183.200 186.800 180.000 186.800 L 176.800 186.800 176.800 188.400 M206.800 188.400 L 206.800 190.000 203.400 190.000 L 200.000 190.000 200.000 191.600 L 200.000 193.200 198.400 193.200 L 196.800 193.200 196.800 198.200 L 196.800 203.200 195.000 203.200 L 193.200 203.200 193.200 215.000 L 193.200 226.800 195.000 226.800 L 196.800 226.800 196.800 233.400 L 196.800 240.000 198.400 240.000 L 200.000 240.000 200.000 246.600 L 200.000 253.200 201.600 253.200 L 203.200 253.200 203.200 251.600 L 203.200 250.000 208.200 250.000 L 213.200 250.000 213.200 248.400 L 213.200 246.800 218.200 246.800 L 223.200 246.800 223.200 241.800 L 223.200 236.800 220.000 236.800 L 216.800 236.800 216.800 233.400 L 216.800 230.000 218.400 230.000 L 220.000 230.000 220.000 228.400 L 220.000 226.800 218.400 226.800 L 216.800 226.800 216.800 216.800 L 216.800 206.800 215.000 206.800 L 213.200 206.800 213.200 196.800 L 213.200 186.800 210.000 186.800 L 206.800 186.800 206.800 188.400 M173.200 201.800 L 173.200 206.800 171.600 206.800 L 170.000 206.800 170.000 215.000 L 170.000 223.200 168.400 223.200 L 166.800 223.200 166.800 226.600 L 166.800 230.000 165.000 230.000 L 163.200 230.000 163.200 226.600 L 163.200 223.200 165.000 223.200 L 166.800 223.200 166.800 215.000 L 166.800 206.800 168.400 206.800 L 170.000 206.800 170.000 201.800 L 170.000 196.800 171.600 196.800 L 173.200 196.800 173.200 201.800 M200.000 210.000 L 200.000 213.200 198.400 213.200 L 196.800 213.200 196.800 210.000 L 196.800 206.800 198.400 206.800 L 200.000 206.800 200.000 210.000 M213.200 210.000 L 213.200 213.200 211.600 213.200 L 210.000 213.200 210.000 210.000 L 210.000 206.800 211.600 206.800 L 213.200 206.800 213.200 210.000 M206.800 233.400 L 206.800 236.800 205.000 236.800 L 203.200 236.800 203.200 233.400 L 203.200 230.000 205.000 230.000 L 206.800 230.000 206.800 233.400 M173.200 243.400 L 173.200 246.800 171.600 246.800 L 170.000 246.800 170.000 243.400 L 170.000 240.000 171.600 240.000 L 173.200 240.000 173.200 243.400 M243.200 261.600 L 243.200 263.200 241.600 263.200 L 240.000 263.200 240.000 265.000 L 240.000 266.800 238.400 266.800 L 236.800 266.800 236.800 268.400 L 236.800 270.000 235.000 270.000 L 233.200 270.000 233.200 271.600 L 233.200 273.200 226.600 273.200 L 220.000 273.200 220.000 275.000 L 220.000 276.800 216.600 276.800 L 213.200 276.800 213.200 278.400 L 213.200 280.000 208.200 280.000 L 203.200 280.000 203.200 281.600 L 203.200 283.200 210.000 283.200 L 216.800 283.200 216.800 281.600 L 216.800 280.000 221.800 280.000 L 226.800 280.000 226.800 278.400 L 226.800 276.800 230.000 276.800 L 233.200 276.800 233.200 275.000 L 233.200 273.200 236.600 273.200 L 240.000 273.200 240.000 271.600 L 240.000 270.000 243.400 270.000 L 246.800 270.000 246.800 265.000 L 246.800 260.000 245.000 260.000 L 243.200 260.000 243.200 261.600 M186.800 273.400 L 186.800 276.800 188.400 276.800 L 190.000 276.800 190.000 280.000 L 190.000 283.200 191.600 283.200 L 193.200 283.200 193.200 280.000 L 193.200 276.800 191.600 276.800 L 190.000 276.800 190.000 273.400 L 190.000 270.000 188.400 270.000 L 186.800 270.000 186.800 273.400 " stroke="none" fill="#f7f5f9" fill-rule="evenodd"></path><path id="path1" d="M180.000 75.000 L 180.000 76.800 173.400 76.800 L 166.800 76.800 166.800 78.400 L 166.800 80.000 161.800 80.000 L 156.800 80.000 156.800 83.400 L 156.800 86.800 155.000 86.800 L 153.200 86.800 153.200 91.800 L 153.200 96.800 155.000 96.800 L 156.800 96.800 156.800 100.000 L 156.800 103.200 160.000 103.200 L 163.200 103.200 163.200 101.600 L 163.200 100.000 161.600 100.000 L 160.000 100.000 160.000 98.400 L 160.000 96.800 161.600 96.800 L 163.200 96.800 163.200 91.800 L 163.200 86.800 165.000 86.800 L 166.800 86.800 166.800 85.000 L 166.800 83.200 170.000 83.200 L 173.200 83.200 173.200 81.600 L 173.200 80.000 178.200 80.000 L 183.200 80.000 183.200 78.400 L 183.200 76.800 191.600 76.800 L 200.000 76.800 200.000 75.000 L 200.000 73.200 190.000 73.200 L 180.000 73.200 180.000 75.000 M183.200 91.800 L 183.200 96.800 181.600 96.800 L 180.000 96.800 180.000 98.400 L 180.000 100.000 178.400 100.000 L 176.800 100.000 176.800 101.600 L 176.800 103.200 180.000 103.200 L 183.200 103.200 183.200 101.600 L 183.200 100.000 185.000 100.000 L 186.800 100.000 186.800 93.400 L 186.800 86.800 185.000 86.800 L 183.200 86.800 183.200 91.800 M213.200 93.400 L 213.200 96.800 211.600 96.800 L 210.000 96.800 210.000 98.400 L 210.000 100.000 208.400 100.000 L 206.800 100.000 206.800 101.600 L 206.800 103.200 210.000 103.200 L 213.200 103.200 213.200 101.600 L 213.200 100.000 215.000 100.000 L 216.800 100.000 216.800 95.000 L 216.800 90.000 215.000 90.000 L 213.200 90.000 213.200 93.400 M160.000 113.400 L 160.000 120.000 161.600 120.000 L 163.200 120.000 163.200 116.600 L 163.200 113.200 165.000 113.200 L 166.800 113.200 166.800 111.600 L 166.800 110.000 171.800 110.000 L 176.800 110.000 176.800 111.600 L 176.800 113.200 190.000 113.200 L 203.200 113.200 203.200 111.600 L 203.200 110.000 206.600 110.000 L 210.000 110.000 210.000 108.400 L 210.000 106.800 206.600 106.800 L 203.200 106.800 203.200 108.400 L 203.200 110.000 190.000 110.000 L 176.800 110.000 176.800 108.400 L 176.800 106.800 168.400 106.800 L 160.000 106.800 160.000 113.400 M190.000 125.000 L 190.000 126.800 195.000 126.800 L 200.000 126.800 200.000 125.000 L 200.000 123.200 195.000 123.200 L 190.000 123.200 190.000 125.000 M156.800 128.400 L 156.800 130.000 165.000 130.000 L 173.200 130.000 173.200 128.400 L 173.200 126.800 165.000 126.800 L 156.800 126.800 156.800 128.400 M206.800 128.400 L 206.800 130.000 210.000 130.000 L 213.200 130.000 213.200 128.400 L 213.200 126.800 210.000 126.800 L 206.800 126.800 206.800 128.400 M156.800 190.000 L 156.800 203.200 158.400 203.200 L 160.000 203.200 160.000 211.600 L 160.000 220.000 158.400 220.000 L 156.800 220.000 156.800 225.000 L 156.800 230.000 158.400 230.000 L 160.000 230.000 160.000 235.000 L 160.000 240.000 161.600 240.000 L 163.200 240.000 163.200 243.400 L 163.200 246.800 165.000 246.800 L 166.800 246.800 166.800 250.000 L 166.800 253.200 168.400 253.200 L 170.000 253.200 170.000 255.000 L 170.000 256.800 171.600 256.800 L 173.200 256.800 173.200 255.000 L 173.200 253.200 171.600 253.200 L 170.000 253.200 170.000 250.000 L 170.000 246.800 168.400 246.800 L 166.800 246.800 166.800 241.800 L 166.800 236.800 165.000 236.800 L 163.200 236.800 163.200 233.400 L 163.200 230.000 161.600 230.000 L 160.000 230.000 160.000 226.600 L 160.000 223.200 161.600 223.200 L 163.200 223.200 163.200 215.000 L 163.200 206.800 165.000 206.800 L 166.800 206.800 166.800 201.800 L 166.800 196.800 165.000 196.800 L 163.200 196.800 163.200 195.000 L 163.200 193.200 165.000 193.200 L 166.800 193.200 166.800 191.600 L 166.800 190.000 171.800 190.000 L 176.800 190.000 176.800 188.400 L 176.800 186.800 180.000 186.800 L 183.200 186.800 183.200 188.400 L 183.200 190.000 185.000 190.000 L 186.800 190.000 186.800 193.400 L 186.800 196.800 188.400 196.800 L 190.000 196.800 190.000 190.000 L 190.000 183.200 181.600 183.200 L 173.200 183.200 173.200 181.600 L 173.200 180.000 168.200 180.000 L 163.200 180.000 163.200 178.400 L 163.200 176.800 160.000 176.800 L 156.800 176.800 156.800 190.000 M213.200 178.400 L 213.200 180.000 211.600 180.000 L 210.000 180.000 210.000 181.600 L 210.000 183.200 201.600 183.200 L 193.200 183.200 193.200 193.200 L 193.200 203.200 195.000 203.200 L 196.800 203.200 196.800 198.200 L 196.800 193.200 198.400 193.200 L 200.000 193.200 200.000 191.600 L 200.000 190.000 203.400 190.000 L 206.800 190.000 206.800 188.400 L 206.800 186.800 210.000 186.800 L 213.200 186.800 213.200 196.800 L 213.200 206.800 215.000 206.800 L 216.800 206.800 216.800 191.800 L 216.800 176.800 215.000 176.800 L 213.200 176.800 213.200 178.400 M163.200 200.000 L 163.200 203.200 161.600 203.200 L 160.000 203.200 160.000 200.000 L 160.000 196.800 161.600 196.800 L 163.200 196.800 163.200 200.000 M216.800 218.400 L 216.800 226.800 218.400 226.800 L 220.000 226.800 220.000 231.800 L 220.000 236.800 221.600 236.800 L 223.200 236.800 223.200 241.800 L 223.200 246.800 225.000 246.800 L 226.800 246.800 226.800 241.800 L 226.800 236.800 225.000 236.800 L 223.200 236.800 223.200 231.800 L 223.200 226.800 221.600 226.800 L 220.000 226.800 220.000 218.400 L 220.000 210.000 218.400 210.000 L 216.800 210.000 216.800 218.400 M193.200 233.400 L 193.200 240.000 191.600 240.000 L 190.000 240.000 190.000 248.400 L 190.000 256.800 191.600 256.800 L 193.200 256.800 193.200 248.400 L 193.200 240.000 195.000 240.000 L 196.800 240.000 196.800 246.600 L 196.800 253.200 198.400 253.200 L 200.000 253.200 200.000 246.600 L 200.000 240.000 198.400 240.000 L 196.800 240.000 196.800 233.400 L 196.800 226.800 195.000 226.800 L 193.200 226.800 193.200 233.400 M243.200 250.000 L 243.200 253.200 241.600 253.200 L 240.000 253.200 240.000 255.000 L 240.000 256.800 235.000 256.800 L 230.000 256.800 230.000 258.400 L 230.000 260.000 226.600 260.000 L 223.200 260.000 223.200 261.600 L 223.200 263.200 220.000 263.200 L 216.800 263.200 216.800 265.000 L 216.800 266.800 213.400 266.800 L 210.000 266.800 210.000 268.400 L 210.000 270.000 208.400 270.000 L 206.800 270.000 206.800 271.600 L 206.800 273.200 205.000 273.200 L 203.200 273.200 203.200 276.600 L 203.200 280.000 208.200 280.000 L 213.200 280.000 213.200 278.400 L 213.200 276.800 216.600 276.800 L 220.000 276.800 220.000 275.000 L 220.000 273.200 226.600 273.200 L 233.200 273.200 233.200 271.600 L 233.200 270.000 235.000 270.000 L 236.800 270.000 236.800 268.400 L 236.800 266.800 238.400 266.800 L 240.000 266.800 240.000 265.000 L 240.000 263.200 241.600 263.200 L 243.200 263.200 243.200 261.600 L 243.200 260.000 245.000 260.000 L 246.800 260.000 246.800 256.600 L 246.800 253.200 248.400 253.200 L 250.000 253.200 250.000 250.000 L 250.000 246.800 246.600 246.800 L 243.200 246.800 243.200 250.000 M183.200 271.600 L 183.200 273.200 181.600 273.200 L 180.000 273.200 180.000 276.600 L 180.000 280.000 181.600 280.000 L 183.200 280.000 183.200 283.400 L 183.200 286.800 185.000 286.800 L 186.800 286.800 186.800 290.000 L 186.800 293.200 191.800 293.200 L 196.800 293.200 196.800 290.000 L 196.800 286.800 195.000 286.800 L 193.200 286.800 193.200 285.000 L 193.200 283.200 191.600 283.200 L 190.000 283.200 190.000 280.000 L 190.000 276.800 188.400 276.800 L 186.800 276.800 186.800 273.400 L 186.800 270.000 185.000 270.000 L 183.200 270.000 183.200 271.600 M240.000 275.000 L 240.000 276.800 236.600 276.800 L 233.200 276.800 233.200 278.400 L 233.200 280.000 230.000 280.000 L 226.800 280.000 226.800 281.600 L 226.800 283.200 231.800 283.200 L 236.800 283.200 236.800 281.600 L 236.800 280.000 240.000 280.000 L 243.200 280.000 243.200 276.600 L 243.200 273.200 241.600 273.200 L 240.000 273.200 240.000 275.000 M200.000 285.000 L 200.000 286.800 201.600 286.800 L 203.200 286.800 203.200 288.400 L 203.200 290.000 205.000 290.000 L 206.800 290.000 206.800 288.400 L 206.800 286.800 205.000 286.800 L 203.200 286.800 203.200 285.000 L 203.200 283.200 201.600 283.200 L 200.000 283.200 200.000 285.000 M216.800 285.000 L 216.800 286.800 220.000 286.800 L 223.200 286.800 223.200 285.000 L 223.200 283.200 220.000 283.200 L 216.800 283.200 216.800 285.000 " stroke="none" fill="#bcbcbc" fill-rule="evenodd"></path><path id="path2" d="M187.200 55.200 C 187.200 56.762,187.233 56.800,188.600 56.800 C 189.967 56.800,190.000 56.762,190.000 55.200 C 190.000 53.638,189.967 53.600,188.600 53.600 C 187.233 53.600,187.200 53.638,187.200 55.200 M183.600 61.800 L 183.600 66.400 185.200 66.400 L 186.800 66.400 186.800 61.800 L 186.800 57.200 185.200 57.200 L 183.600 57.200 183.600 61.800 M187.200 68.200 C 187.200 69.533,187.267 69.600,188.600 69.600 C 189.933 69.600,190.000 69.533,190.000 68.200 C 190.000 66.867,189.933 66.800,188.600 66.800 C 187.267 66.800,187.200 66.867,187.200 68.200 M163.523 135.300 C 163.404 136.949,163.355 137.004,161.907 137.124 L 160.414 137.247 160.307 147.124 L 160.200 157.000 158.700 157.124 L 157.200 157.248 157.200 161.824 L 157.200 166.400 160.200 166.400 L 163.200 166.400 163.200 168.200 L 163.200 170.000 168.200 170.000 L 173.200 170.000 173.200 161.600 L 173.200 153.200 175.000 153.200 L 176.800 153.200 176.800 150.000 L 176.800 146.800 175.000 146.800 L 173.200 146.800 173.200 143.400 L 173.200 140.000 175.000 140.000 L 176.800 140.000 176.800 138.400 L 176.800 136.800 178.400 136.800 L 180.000 136.800 180.000 135.200 L 180.000 133.600 171.823 133.600 L 163.646 133.600 163.523 135.300 M177.200 264.800 L 177.200 269.600 179.944 269.600 L 182.689 269.600 182.941 267.500 C 183.442 263.326,183.403 263.200,181.600 263.200 L 180.000 263.200 180.000 261.600 C 180.000 260.038,179.967 260.000,178.600 260.000 L 177.200 260.000 177.200 264.800 M206.800 293.358 L 206.800 296.800 208.400 296.800 L 210.000 296.800 210.000 300.000 L 210.000 303.200 208.400 303.200 C 205.801 303.200,205.895 306.289,208.500 306.477 C 210.147 306.596,210.204 306.647,210.323 308.084 L 210.446 309.568 213.723 309.684 L 217.000 309.800 217.123 311.284 L 217.246 312.767 220.323 312.884 L 223.400 313.000 223.522 314.688 L 223.645 316.376 228.522 316.488 L 233.400 316.600 233.524 318.092 L 233.647 319.584 241.924 319.692 L 250.200 319.800 250.324 321.300 L 250.448 322.800 256.600 322.800 L 262.752 322.800 262.876 321.300 L 263.000 319.800 267.877 319.688 L 272.753 319.576 272.877 318.088 C 272.996 316.646,273.053 316.596,274.700 316.477 C 276.392 316.355,276.400 316.346,276.400 314.777 L 276.400 313.200 269.800 313.200 L 263.200 313.200 263.200 311.600 L 263.200 310.000 261.600 310.000 L 260.000 310.000 260.000 308.400 L 260.000 306.800 253.400 306.800 L 246.800 306.800 246.800 305.000 L 246.800 303.200 243.400 303.200 L 240.000 303.200 240.000 301.600 L 240.000 300.000 236.600 300.000 L 233.200 300.000 233.200 298.400 L 233.200 296.800 230.059 296.800 L 226.917 296.800 226.658 293.733 C 226.329 289.837,227.408 290.222,216.367 290.058 L 206.800 289.917 206.800 293.358 " stroke="none" fill="#f4a404" fill-rule="evenodd"></path><path id="path3" d="M183.200 158.200 L 183.200 160.000 181.600 160.000 L 180.000 160.000 180.000 161.600 L 180.000 163.200 181.600 163.200 L 183.200 163.200 183.200 165.000 L 183.200 166.800 195.000 166.800 L 206.800 166.800 206.800 163.400 L 206.800 160.000 205.000 160.000 L 203.200 160.000 203.200 158.200 L 203.200 156.400 193.200 156.400 L 183.200 156.400 183.200 158.200 M200.000 161.600 L 200.000 163.200 195.000 163.200 L 190.000 163.200 190.000 161.600 L 190.000 160.000 195.000 160.000 L 200.000 160.000 200.000 161.600 M240.000 241.600 L 240.000 243.200 236.600 243.200 L 233.200 243.200 233.200 245.000 L 233.200 246.800 230.000 246.800 L 226.800 246.800 226.800 248.400 L 226.800 250.000 220.000 250.000 L 213.200 250.000 213.200 251.600 L 213.200 253.200 208.200 253.200 L 203.200 253.200 203.200 255.000 L 203.200 256.800 198.200 256.800 L 193.200 256.800 193.200 258.400 L 193.200 260.000 195.000 260.000 L 196.800 260.000 196.800 263.400 L 196.800 266.800 195.000 266.800 L 193.200 266.800 193.200 271.800 L 193.200 276.800 195.000 276.800 L 196.800 276.800 196.800 281.800 L 196.800 286.800 198.400 286.800 L 200.000 286.800 200.000 285.000 L 200.000 283.200 201.600 283.200 L 203.200 283.200 203.200 278.200 L 203.200 273.200 205.000 273.200 L 206.800 273.200 206.800 271.600 L 206.800 270.000 208.400 270.000 L 210.000 270.000 210.000 268.400 L 210.000 266.800 213.400 266.800 L 216.800 266.800 216.800 265.000 L 216.800 263.200 220.000 263.200 L 223.200 263.200 223.200 261.600 L 223.200 260.000 226.600 260.000 L 230.000 260.000 230.000 258.400 L 230.000 256.800 233.400 256.800 L 236.800 256.800 236.800 255.000 L 236.800 253.200 235.000 253.200 L 233.200 253.200 233.200 251.600 L 233.200 250.000 235.000 250.000 L 236.800 250.000 236.800 248.400 L 236.800 246.800 238.400 246.800 L 240.000 246.800 240.000 248.400 L 240.000 250.000 241.600 250.000 L 243.200 250.000 243.200 248.400 L 243.200 246.800 246.600 246.800 L 250.000 246.800 250.000 243.400 L 250.000 240.000 245.000 240.000 L 240.000 240.000 240.000 241.600 " stroke="none" fill="#9c9c9c" fill-rule="evenodd"></path><path id="path4" d="M203.200 133.400 L 203.200 136.800 205.000 136.800 L 206.800 136.800 206.800 133.400 L 206.800 130.000 205.000 130.000 L 203.200 130.000 203.200 133.400 M190.000 263.400 L 190.000 266.800 191.600 266.800 L 193.200 266.800 193.200 263.400 L 193.200 260.000 191.600 260.000 L 190.000 260.000 190.000 263.400 M160.000 266.600 L 160.000 270.000 166.600 270.000 L 173.200 270.000 173.200 266.600 L 173.200 263.200 166.600 263.200 L 160.000 263.200 160.000 266.600 M223.200 288.400 L 223.200 290.000 225.000 290.000 L 226.800 290.000 226.800 291.600 L 226.800 293.200 230.000 293.200 L 233.200 293.200 233.200 291.600 L 233.200 290.000 230.000 290.000 L 226.800 290.000 226.800 288.400 L 226.800 286.800 225.000 286.800 L 223.200 286.800 223.200 288.400 " stroke="none" fill="#7e5440" fill-rule="evenodd"></path><path id="path5" d="M186.800 55.000 L 186.800 56.800 185.000 56.800 L 183.200 56.800 183.200 61.800 L 183.200 66.800 185.000 66.800 L 186.800 66.800 186.800 68.400 L 186.800 70.000 191.800 70.000 L 196.800 70.000 196.800 61.600 L 196.800 53.200 191.800 53.200 L 186.800 53.200 186.800 55.000 M190.000 55.200 C 190.000 56.762,189.967 56.800,188.600 56.800 C 187.233 56.800,187.200 56.762,187.200 55.200 C 187.200 53.638,187.233 53.600,188.600 53.600 C 189.967 53.600,190.000 53.638,190.000 55.200 M186.800 61.800 L 186.800 66.400 185.200 66.400 L 183.600 66.400 183.600 61.800 L 183.600 57.200 185.200 57.200 L 186.800 57.200 186.800 61.800 M190.000 68.200 C 190.000 69.533,189.933 69.600,188.600 69.600 C 187.267 69.600,187.200 69.533,187.200 68.200 C 187.200 66.867,187.267 66.800,188.600 66.800 C 189.933 66.800,190.000 66.867,190.000 68.200 M190.000 131.800 L 190.000 133.600 185.000 133.600 L 180.000 133.600 180.000 135.200 L 180.000 136.800 178.400 136.800 L 176.800 136.800 176.800 138.400 L 176.800 140.000 185.000 140.000 L 193.200 140.000 193.200 141.600 L 193.200 143.200 191.600 143.200 L 190.000 143.200 190.000 148.400 L 190.000 153.600 185.000 153.600 L 180.000 153.600 180.000 151.800 L 180.000 150.000 178.400 150.000 L 176.800 150.000 176.800 151.600 L 176.800 153.200 175.000 153.200 L 173.200 153.200 173.200 163.200 L 173.200 173.200 191.600 173.200 L 210.000 173.200 210.000 171.600 L 210.000 170.000 211.600 170.000 L 213.200 170.000 213.200 168.200 L 213.200 166.400 215.000 166.400 L 216.800 166.400 216.800 154.800 L 216.800 143.200 215.000 143.200 L 213.200 143.200 213.200 148.400 L 213.200 153.600 208.200 153.600 L 203.200 153.600 203.200 151.800 L 203.200 150.000 201.600 150.000 L 200.000 150.000 200.000 148.400 L 200.000 146.800 198.400 146.800 L 196.800 146.800 196.800 143.400 L 196.800 140.000 206.800 140.000 L 216.800 140.000 216.800 138.400 L 216.800 136.800 215.000 136.800 L 213.200 136.800 213.200 135.200 L 213.200 133.600 210.000 133.600 L 206.800 133.600 206.800 135.200 L 206.800 136.800 205.000 136.800 L 203.200 136.800 203.200 133.400 L 203.200 130.000 196.600 130.000 L 190.000 130.000 190.000 131.800 M163.264 135.100 L 163.200 136.800 161.600 136.800 L 160.000 136.800 160.000 146.800 L 160.000 156.800 158.400 156.800 L 156.800 156.800 156.886 161.700 L 156.972 166.600 157.099 161.923 L 157.225 157.247 158.712 157.123 L 160.200 157.000 160.307 147.100 L 160.414 137.200 161.820 137.200 C 163.408 137.200,163.735 136.718,163.492 134.738 C 163.344 133.531,163.322 133.567,163.264 135.100 M203.200 158.200 L 203.200 160.000 205.000 160.000 L 206.800 160.000 206.800 163.400 L 206.800 166.800 195.000 166.800 L 183.200 166.800 183.200 165.000 L 183.200 163.200 181.600 163.200 L 180.000 163.200 180.000 161.600 L 180.000 160.000 181.600 160.000 L 183.200 160.000 183.200 158.200 L 183.200 156.400 193.200 156.400 L 203.200 156.400 203.200 158.200 M176.800 263.400 L 176.800 270.000 180.000 270.000 L 183.200 270.000 183.200 268.400 L 183.200 266.800 185.000 266.800 L 186.800 266.800 186.800 263.400 L 186.800 260.000 185.000 260.000 L 183.200 260.000 183.200 258.400 L 183.200 256.800 180.000 256.800 L 176.800 256.800 176.800 263.400 M180.000 261.600 L 180.000 263.200 181.600 263.200 C 183.403 263.200,183.442 263.326,182.941 267.500 L 182.689 269.600 179.944 269.600 L 177.200 269.600 177.200 264.800 L 177.200 260.000 178.600 260.000 C 179.967 260.000,180.000 260.038,180.000 261.600 M243.200 281.600 L 243.200 283.200 240.000 283.200 L 236.800 283.200 236.800 285.000 L 236.800 286.800 231.800 286.800 L 226.800 286.800 226.800 288.400 L 226.800 290.000 225.100 290.067 L 223.400 290.134 224.876 290.290 C 226.196 290.429,226.370 290.581,226.512 291.723 C 226.666 292.952,226.674 292.944,226.736 291.500 L 226.800 290.000 230.000 290.000 L 233.200 290.000 233.200 291.600 L 233.200 293.200 230.000 293.200 L 226.800 293.200 226.800 295.000 L 226.800 296.800 230.000 296.800 L 233.200 296.800 233.200 298.400 L 233.200 300.000 236.600 300.000 L 240.000 300.000 240.000 301.600 L 240.000 303.200 243.400 303.200 L 246.800 303.200 246.800 305.000 L 246.800 306.800 253.400 306.800 L 260.000 306.800 260.000 308.400 L 260.000 310.000 261.600 310.000 L 263.200 310.000 263.200 311.600 L 263.200 313.200 269.800 313.200 L 276.400 313.200 276.400 314.777 C 276.400 316.346,276.392 316.355,274.700 316.477 C 273.053 316.596,272.996 316.646,272.877 318.088 L 272.753 319.576 267.877 319.688 L 263.000 319.800 262.876 321.300 L 262.752 322.800 256.600 322.800 L 250.448 322.800 250.324 321.300 L 250.200 319.800 241.924 319.692 L 233.647 319.584 233.524 318.092 L 233.400 316.600 228.522 316.488 L 223.645 316.376 223.522 314.688 L 223.400 313.000 220.323 312.884 L 217.246 312.767 217.123 311.284 L 217.000 309.800 213.723 309.684 L 210.446 309.568 210.323 308.084 C 210.203 306.631,210.165 306.599,208.497 306.561 L 206.794 306.522 208.397 306.684 C 209.969 306.843,210.000 306.876,210.000 308.423 L 210.000 310.000 213.400 310.000 L 216.800 310.000 216.800 311.600 L 216.800 313.200 220.000 313.200 L 223.200 313.200 223.200 315.000 L 223.200 316.800 228.200 316.800 L 233.200 316.800 233.200 318.400 L 233.200 320.000 241.600 320.000 L 250.000 320.000 250.000 321.600 L 250.000 323.200 256.600 323.200 L 263.200 323.200 263.200 321.600 L 263.200 320.000 268.200 320.000 L 273.200 320.000 273.200 318.400 L 273.200 316.800 275.000 316.800 L 276.800 316.800 276.800 311.800 L 276.800 306.800 275.000 306.800 L 273.200 306.800 273.200 305.000 L 273.200 303.200 271.600 303.200 L 270.000 303.200 270.000 301.600 L 270.000 300.000 268.400 300.000 L 266.800 300.000 266.800 298.400 L 266.800 296.800 265.000 296.800 L 263.200 296.800 263.200 295.000 L 263.200 293.200 261.600 293.200 L 260.000 293.200 260.000 291.600 L 260.000 290.000 258.400 290.000 L 256.800 290.000 256.800 288.400 L 256.800 286.800 255.000 286.800 L 253.200 286.800 253.200 285.000 L 253.200 283.200 251.600 283.200 L 250.000 283.200 250.000 281.600 L 250.000 280.000 246.600 280.000 L 243.200 280.000 243.200 281.600 " stroke="none" fill="#fcd304" fill-rule="evenodd"></path><path id="path6" d="M186.800 51.600 L 186.800 53.200 185.000 53.200 L 183.200 53.200 183.200 55.000 L 183.200 56.800 181.600 56.800 L 180.000 56.800 180.000 61.800 L 180.000 66.800 181.600 66.800 L 183.200 66.800 183.200 68.400 L 183.200 70.000 181.600 70.000 L 180.000 70.000 180.000 71.600 L 180.000 73.200 173.400 73.200 L 166.800 73.200 166.800 75.000 L 166.800 76.800 161.800 76.800 L 156.800 76.800 156.800 78.400 L 156.800 80.000 155.000 80.000 L 153.200 80.000 153.200 83.400 L 153.200 86.800 151.600 86.800 L 150.000 86.800 150.000 91.800 L 150.000 96.800 151.600 96.800 L 153.200 96.800 153.200 100.000 L 153.200 103.200 155.000 103.200 L 156.800 103.200 156.800 115.000 L 156.800 126.800 155.000 126.800 L 153.200 126.800 153.200 128.400 L 153.200 130.000 155.000 130.000 L 156.800 130.000 156.800 131.800 L 156.800 133.600 158.400 133.600 L 160.000 133.600 160.000 135.200 L 160.000 136.800 158.400 136.800 L 156.800 136.800 156.800 146.800 L 156.800 156.800 155.000 156.800 L 153.200 156.800 153.200 181.800 L 153.200 206.800 155.000 206.800 L 156.800 206.800 156.800 213.400 L 156.800 220.000 155.000 220.000 L 153.200 220.000 153.200 225.000 L 153.200 230.000 155.000 230.000 L 156.800 230.000 156.800 235.000 L 156.800 240.000 158.400 240.000 L 160.000 240.000 160.000 245.000 L 160.000 250.000 161.600 250.000 L 163.200 250.000 163.200 255.000 L 163.200 260.000 161.600 260.000 L 160.000 260.000 160.000 261.600 L 160.000 263.200 166.600 263.200 L 173.200 263.200 173.200 266.600 L 173.200 270.000 166.600 270.000 L 160.000 270.000 160.000 266.600 L 160.000 263.200 158.200 263.200 L 156.400 263.200 156.400 266.600 L 156.400 270.000 158.200 270.000 L 160.000 270.000 160.000 271.600 L 160.000 273.200 168.400 273.200 L 176.800 273.200 176.800 276.600 L 176.800 280.000 178.400 280.000 L 180.000 280.000 180.000 283.400 L 180.000 286.800 181.600 286.800 L 183.200 286.800 183.200 291.800 L 183.200 296.800 185.000 296.800 L 186.800 296.800 186.800 306.800 L 186.800 316.800 185.000 316.800 L 183.200 316.800 183.200 323.400 L 183.200 330.000 181.600 330.000 L 180.000 330.000 180.000 335.000 L 180.000 340.000 178.200 340.000 L 176.400 340.000 176.400 343.400 L 176.400 346.800 178.200 346.800 L 180.000 346.800 180.000 348.400 L 180.000 350.000 193.400 350.000 L 206.800 350.000 206.800 348.400 L 206.800 346.800 205.000 346.800 L 203.200 346.800 203.200 345.000 L 203.200 343.200 201.600 343.200 L 200.000 343.200 200.000 341.600 L 200.000 340.000 198.400 340.000 L 196.800 340.000 196.800 338.400 L 196.800 336.800 195.000 336.800 L 193.200 336.800 193.200 333.400 L 193.200 330.000 195.000 330.000 L 196.800 330.000 196.800 325.000 L 196.800 320.000 198.400 320.000 L 200.000 320.000 200.000 316.600 L 200.000 313.200 201.600 313.200 L 203.200 313.200 203.200 311.600 L 203.200 310.000 206.600 310.000 L 210.000 310.000 210.000 311.600 L 210.000 313.200 213.400 313.200 L 216.800 313.200 216.800 321.600 L 216.800 330.000 215.000 330.000 L 213.200 330.000 213.200 335.000 L 213.200 340.000 211.600 340.000 L 210.000 340.000 210.000 343.400 L 210.000 346.800 211.600 346.800 L 213.200 346.800 213.200 348.400 L 213.200 350.000 228.400 350.000 L 243.600 350.000 243.600 348.400 L 243.600 346.800 241.800 346.800 L 240.000 346.800 240.000 345.000 L 240.000 343.200 236.600 343.200 L 233.200 343.200 233.200 341.600 L 233.200 340.000 231.600 340.000 L 230.000 340.000 230.000 338.400 L 230.000 336.800 228.400 336.800 L 226.800 336.800 226.800 331.800 L 226.800 326.800 228.400 326.800 L 230.000 326.800 230.000 323.400 L 230.000 320.000 231.600 320.000 L 233.200 320.000 233.200 321.600 L 233.200 323.200 241.600 323.200 L 250.000 323.200 250.000 325.000 L 250.000 326.800 256.600 326.800 L 263.200 326.800 263.200 325.000 L 263.200 323.200 268.200 323.200 L 273.200 323.200 273.200 321.600 L 273.200 320.000 275.000 320.000 L 276.800 320.000 276.800 318.400 L 276.800 316.800 278.400 316.800 L 280.000 316.800 280.000 311.800 L 280.000 306.800 278.400 306.800 L 276.800 306.800 276.800 305.000 L 276.800 303.200 275.000 303.200 L 273.200 303.200 273.200 301.600 L 273.200 300.000 271.600 300.000 L 270.000 300.000 270.000 298.400 L 270.000 296.800 268.400 296.800 L 266.800 296.800 266.800 295.000 L 266.800 293.200 265.000 293.200 L 263.200 293.200 263.200 291.600 L 263.200 290.000 261.600 290.000 L 260.000 290.000 260.000 288.400 L 260.000 286.800 258.400 286.800 L 256.800 286.800 256.800 285.000 L 256.800 283.200 255.000 283.200 L 253.200 283.200 253.200 281.600 L 253.200 280.000 251.600 280.000 L 250.000 280.000 250.000 278.400 L 250.000 276.800 248.400 276.800 L 246.800 276.800 246.800 273.400 L 246.800 270.000 248.400 270.000 L 250.000 270.000 250.000 261.600 L 250.000 253.200 251.800 253.200 L 253.600 253.200 253.600 246.600 L 253.600 240.000 251.800 240.000 L 250.000 240.000 250.000 238.200 L 250.000 236.400 245.000 236.400 L 240.000 236.400 240.000 238.200 L 240.000 240.000 236.600 240.000 L 233.200 240.000 233.200 241.600 L 233.200 243.200 231.600 243.200 L 230.000 243.200 230.000 240.000 L 230.000 236.800 228.400 236.800 L 226.800 236.800 226.800 231.800 L 226.800 226.800 225.000 226.800 L 223.200 226.800 223.200 218.400 L 223.200 210.000 221.600 210.000 L 220.000 210.000 220.000 173.400 L 220.000 136.800 218.400 136.800 L 216.800 136.800 216.800 135.200 L 216.800 133.600 218.400 133.600 L 220.000 133.600 220.000 131.800 L 220.000 130.000 221.600 130.000 L 223.200 130.000 223.200 128.400 L 223.200 126.800 221.600 126.800 L 220.000 126.800 220.000 116.800 L 220.000 106.800 221.600 106.800 L 223.200 106.800 223.200 105.000 L 223.200 103.200 225.000 103.200 L 226.800 103.200 226.800 100.000 L 226.800 96.800 228.400 96.800 L 230.000 96.800 230.000 91.800 L 230.000 86.800 228.400 86.800 L 226.800 86.800 226.800 83.400 L 226.800 80.000 225.000 80.000 L 223.200 80.000 223.200 78.400 L 223.200 76.800 218.200 76.800 L 213.200 76.800 213.200 75.000 L 213.200 73.200 206.600 73.200 L 200.000 73.200 200.000 63.200 L 200.000 53.200 198.400 53.200 L 196.800 53.200 196.800 51.600 L 196.800 50.000 191.800 50.000 L 186.800 50.000 186.800 51.600 M196.800 61.600 L 196.800 70.000 191.800 70.000 L 186.800 70.000 186.800 68.400 L 186.800 66.800 185.000 66.800 L 183.200 66.800 183.200 61.800 L 183.200 56.800 185.000 56.800 L 186.800 56.800 186.800 55.000 L 186.800 53.200 191.800 53.200 L 196.800 53.200 196.800 61.600 M200.000 75.000 L 200.000 76.800 206.600 76.800 L 213.200 76.800 213.200 78.400 L 213.200 80.000 218.200 80.000 L 223.200 80.000 223.200 83.400 L 223.200 86.800 225.000 86.800 L 226.800 86.800 226.800 91.800 L 226.800 96.800 225.000 96.800 L 223.200 96.800 223.200 100.000 L 223.200 103.200 215.000 103.200 L 206.800 103.200 206.800 101.600 L 206.800 100.000 205.000 100.000 L 203.200 100.000 203.200 103.400 L 203.200 106.800 210.000 106.800 L 216.800 106.800 216.800 115.000 L 216.800 123.200 211.800 123.200 L 206.800 123.200 206.800 125.000 L 206.800 126.800 213.400 126.800 L 220.000 126.800 220.000 128.400 L 220.000 130.000 213.400 130.000 L 206.800 130.000 206.800 131.800 L 206.800 133.600 210.000 133.600 L 213.200 133.600 213.200 135.200 L 213.200 136.800 215.000 136.800 L 216.800 136.800 216.800 138.400 L 216.800 140.000 206.800 140.000 L 196.800 140.000 196.800 141.600 L 196.800 143.200 200.000 143.200 L 203.200 143.200 203.200 148.400 L 203.200 153.600 208.200 153.600 L 213.200 153.600 213.200 148.400 L 213.200 143.200 215.000 143.200 L 216.800 143.200 216.800 154.800 L 216.800 166.400 215.000 166.400 L 213.200 166.400 213.200 168.200 L 213.200 170.000 215.000 170.000 L 216.800 170.000 216.800 171.600 L 216.800 173.200 215.000 173.200 L 213.200 173.200 213.200 175.000 L 213.200 176.800 215.000 176.800 L 216.800 176.800 216.800 193.400 L 216.800 210.000 218.400 210.000 L 220.000 210.000 220.000 218.400 L 220.000 226.800 221.600 226.800 L 223.200 226.800 223.200 231.800 L 223.200 236.800 225.000 236.800 L 226.800 236.800 226.800 241.800 L 226.800 246.800 230.000 246.800 L 233.200 246.800 233.200 245.000 L 233.200 243.200 236.600 243.200 L 240.000 243.200 240.000 241.600 L 240.000 240.000 245.000 240.000 L 250.000 240.000 250.000 246.600 L 250.000 253.200 248.400 253.200 L 246.800 253.200 246.800 261.600 L 246.800 270.000 243.400 270.000 L 240.000 270.000 240.000 271.600 L 240.000 273.200 241.600 273.200 L 243.200 273.200 243.200 276.600 L 243.200 280.000 246.600 280.000 L 250.000 280.000 250.000 281.600 L 250.000 283.200 251.600 283.200 L 253.200 283.200 253.200 285.000 L 253.200 286.800 255.000 286.800 L 256.800 286.800 256.800 288.400 L 256.800 290.000 258.400 290.000 L 260.000 290.000 260.000 291.600 L 260.000 293.200 261.600 293.200 L 263.200 293.200 263.200 295.000 L 263.200 296.800 265.000 296.800 L 266.800 296.800 266.800 298.400 L 266.800 300.000 268.400 300.000 L 270.000 300.000 270.000 301.600 L 270.000 303.200 271.600 303.200 L 273.200 303.200 273.200 305.000 L 273.200 306.800 275.000 306.800 L 276.800 306.800 276.800 311.800 L 276.800 316.800 275.000 316.800 L 273.200 316.800 273.200 318.400 L 273.200 320.000 268.200 320.000 L 263.200 320.000 263.200 321.600 L 263.200 323.200 256.600 323.200 L 250.000 323.200 250.000 321.600 L 250.000 320.000 241.600 320.000 L 233.200 320.000 233.200 318.400 L 233.200 316.800 228.200 316.800 L 223.200 316.800 223.200 315.000 L 223.200 313.200 220.000 313.200 L 216.800 313.200 216.800 311.600 L 216.800 310.000 213.400 310.000 L 210.000 310.000 210.000 308.400 L 210.000 306.800 208.400 306.800 L 206.800 306.800 206.800 305.000 L 206.800 303.200 208.400 303.200 L 210.000 303.200 210.000 300.000 L 210.000 296.800 208.400 296.800 L 206.800 296.800 206.800 293.400 L 206.800 290.000 205.000 290.000 L 203.200 290.000 203.200 288.400 L 203.200 286.800 200.000 286.800 L 196.800 286.800 196.800 290.000 L 196.800 293.200 191.800 293.200 L 186.800 293.200 186.800 290.000 L 186.800 286.800 185.000 286.800 L 183.200 286.800 183.200 283.400 L 183.200 280.000 181.600 280.000 L 180.000 280.000 180.000 276.600 L 180.000 273.200 181.600 273.200 L 183.200 273.200 183.200 271.600 L 183.200 270.000 180.000 270.000 L 176.800 270.000 176.800 263.400 L 176.800 256.800 180.000 256.800 L 183.200 256.800 183.200 255.000 L 183.200 253.200 180.000 253.200 L 176.800 253.200 176.800 250.000 L 176.800 246.800 175.000 246.800 L 173.200 246.800 173.200 251.800 L 173.200 256.800 171.600 256.800 L 170.000 256.800 170.000 255.000 L 170.000 253.200 168.400 253.200 L 166.800 253.200 166.800 250.000 L 166.800 246.800 165.000 246.800 L 163.200 246.800 163.200 243.400 L 163.200 240.000 161.600 240.000 L 160.000 240.000 160.000 235.000 L 160.000 230.000 158.400 230.000 L 156.800 230.000 156.800 225.000 L 156.800 220.000 158.400 220.000 L 160.000 220.000 160.000 211.600 L 160.000 203.200 158.400 203.200 L 156.800 203.200 156.800 190.000 L 156.800 176.800 160.000 176.800 L 163.200 176.800 163.200 178.400 L 163.200 180.000 168.200 180.000 L 173.200 180.000 173.200 181.600 L 173.200 183.200 181.600 183.200 L 190.000 183.200 190.000 211.600 L 190.000 240.000 191.600 240.000 L 193.200 240.000 193.200 211.600 L 193.200 183.200 201.600 183.200 L 210.000 183.200 210.000 181.600 L 210.000 180.000 211.600 180.000 L 213.200 180.000 213.200 178.400 L 213.200 176.800 211.600 176.800 L 210.000 176.800 210.000 175.000 L 210.000 173.200 191.600 173.200 L 173.200 173.200 173.200 171.600 L 173.200 170.000 168.200 170.000 L 163.200 170.000 163.200 168.200 L 163.200 166.400 160.000 166.400 L 156.800 166.400 156.800 161.600 L 156.800 156.800 158.400 156.800 L 160.000 156.800 160.000 146.800 L 160.000 136.800 161.600 136.800 L 163.200 136.800 163.200 135.200 L 163.200 133.600 176.600 133.600 L 190.000 133.600 190.000 131.800 L 190.000 130.000 173.400 130.000 L 156.800 130.000 156.800 128.400 L 156.800 126.800 173.400 126.800 L 190.000 126.800 190.000 125.000 L 190.000 123.200 175.000 123.200 L 160.000 123.200 160.000 115.000 L 160.000 106.800 168.400 106.800 L 176.800 106.800 176.800 108.400 L 176.800 110.000 190.000 110.000 L 203.200 110.000 203.200 108.400 L 203.200 106.800 191.600 106.800 L 180.000 106.800 180.000 105.000 L 180.000 103.200 178.400 103.200 L 176.800 103.200 176.800 101.600 L 176.800 100.000 173.400 100.000 L 170.000 100.000 170.000 101.600 L 170.000 103.200 163.400 103.200 L 156.800 103.200 156.800 100.000 L 156.800 96.800 155.000 96.800 L 153.200 96.800 153.200 91.800 L 153.200 86.800 155.000 86.800 L 156.800 86.800 156.800 83.400 L 156.800 80.000 161.800 80.000 L 166.800 80.000 166.800 78.400 L 166.800 76.800 173.400 76.800 L 180.000 76.800 180.000 75.000 L 180.000 73.200 190.000 73.200 L 200.000 73.200 200.000 75.000 M180.000 90.000 L 180.000 96.800 178.400 96.800 L 176.800 96.800 176.800 98.400 L 176.800 100.000 178.400 100.000 L 180.000 100.000 180.000 98.400 L 180.000 96.800 181.600 96.800 L 183.200 96.800 183.200 90.000 L 183.200 83.200 181.600 83.200 L 180.000 83.200 180.000 90.000 M210.000 91.800 L 210.000 96.800 208.400 96.800 L 206.800 96.800 206.800 98.400 L 206.800 100.000 208.400 100.000 L 210.000 100.000 210.000 98.400 L 210.000 96.800 211.600 96.800 L 213.200 96.800 213.200 91.800 L 213.200 86.800 211.600 86.800 L 210.000 86.800 210.000 91.800 M190.000 121.600 L 190.000 123.200 198.400 123.200 L 206.800 123.200 206.800 121.600 L 206.800 120.000 198.400 120.000 L 190.000 120.000 190.000 121.600 M190.000 128.400 L 190.000 130.000 198.400 130.000 L 206.800 130.000 206.800 128.400 L 206.800 126.800 198.400 126.800 L 190.000 126.800 190.000 128.400 M173.200 141.600 L 173.200 143.200 176.600 143.200 L 180.000 143.200 180.000 148.400 L 180.000 153.600 185.000 153.600 L 190.000 153.600 190.000 148.400 L 190.000 143.200 191.600 143.200 L 193.200 143.200 193.200 141.600 L 193.200 140.000 183.200 140.000 L 173.200 140.000 173.200 141.600 M190.000 161.600 L 190.000 163.200 195.000 163.200 L 200.000 163.200 200.000 161.600 L 200.000 160.000 195.000 160.000 L 190.000 160.000 190.000 161.600 M160.000 171.600 L 160.000 173.200 158.400 173.200 L 156.800 173.200 156.800 171.600 L 156.800 170.000 158.400 170.000 L 160.000 170.000 160.000 171.600 M210.000 171.600 L 210.000 173.200 211.600 173.200 L 213.200 173.200 213.200 171.600 L 213.200 170.000 211.600 170.000 L 210.000 170.000 210.000 171.600 M170.000 175.000 L 170.000 176.800 168.400 176.800 L 166.800 176.800 166.800 175.000 L 166.800 173.200 168.400 173.200 L 170.000 173.200 170.000 175.000 M180.000 178.400 L 180.000 180.000 178.400 180.000 L 176.800 180.000 176.800 178.400 L 176.800 176.800 178.400 176.800 L 180.000 176.800 180.000 178.400 M186.800 178.400 L 186.800 180.000 185.000 180.000 L 183.200 180.000 183.200 178.400 L 183.200 176.800 185.000 176.800 L 186.800 176.800 186.800 178.400 M193.200 178.400 L 193.200 180.000 191.600 180.000 L 190.000 180.000 190.000 178.400 L 190.000 176.800 191.600 176.800 L 193.200 176.800 193.200 178.400 M200.000 178.400 L 200.000 180.000 198.400 180.000 L 196.800 180.000 196.800 178.400 L 196.800 176.800 198.400 176.800 L 200.000 176.800 200.000 178.400 M206.800 178.400 L 206.800 180.000 205.000 180.000 L 203.200 180.000 203.200 178.400 L 203.200 176.800 205.000 176.800 L 206.800 176.800 206.800 178.400 M160.000 200.000 L 160.000 203.200 161.600 203.200 L 163.200 203.200 163.200 200.000 L 163.200 196.800 161.600 196.800 L 160.000 196.800 160.000 200.000 M170.000 201.800 L 170.000 206.800 168.400 206.800 L 166.800 206.800 166.800 215.000 L 166.800 223.200 165.000 223.200 L 163.200 223.200 163.200 226.600 L 163.200 230.000 165.000 230.000 L 166.800 230.000 166.800 235.000 L 166.800 240.000 168.400 240.000 L 170.000 240.000 170.000 243.400 L 170.000 246.800 171.600 246.800 L 173.200 246.800 173.200 243.400 L 173.200 240.000 171.600 240.000 L 170.000 240.000 170.000 235.000 L 170.000 230.000 168.400 230.000 L 166.800 230.000 166.800 226.600 L 166.800 223.200 168.400 223.200 L 170.000 223.200 170.000 215.000 L 170.000 206.800 171.600 206.800 L 173.200 206.800 173.200 201.800 L 173.200 196.800 171.600 196.800 L 170.000 196.800 170.000 201.800 M196.800 210.000 L 196.800 213.200 198.400 213.200 L 200.000 213.200 200.000 210.000 L 200.000 206.800 198.400 206.800 L 196.800 206.800 196.800 210.000 M210.000 210.000 L 210.000 213.200 211.600 213.200 L 213.200 213.200 213.200 210.000 L 213.200 206.800 211.600 206.800 L 210.000 206.800 210.000 210.000 M203.200 233.400 L 203.200 236.800 205.000 236.800 L 206.800 236.800 206.800 233.400 L 206.800 230.000 205.000 230.000 L 203.200 230.000 203.200 233.400 M216.800 233.400 L 216.800 236.800 218.400 236.800 L 220.000 236.800 220.000 233.400 L 220.000 230.000 218.400 230.000 L 216.800 230.000 216.800 233.400 M193.200 248.400 L 193.200 256.800 188.200 256.800 L 183.200 256.800 183.200 258.400 L 183.200 260.000 185.000 260.000 L 186.800 260.000 186.800 263.400 L 186.800 266.800 185.000 266.800 L 183.200 266.800 183.200 268.400 L 183.200 270.000 186.600 270.000 L 190.000 270.000 190.000 273.400 L 190.000 276.800 191.600 276.800 L 193.200 276.800 193.200 281.800 L 193.200 286.800 195.000 286.800 L 196.800 286.800 196.800 281.800 L 196.800 276.800 195.000 276.800 L 193.200 276.800 193.200 271.800 L 193.200 266.800 195.000 266.800 L 196.800 266.800 196.800 263.400 L 196.800 260.000 195.000 260.000 L 193.200 260.000 193.200 258.400 L 193.200 256.800 198.200 256.800 L 203.200 256.800 203.200 255.000 L 203.200 253.200 208.200 253.200 L 213.200 253.200 213.200 251.600 L 213.200 250.000 220.000 250.000 L 226.800 250.000 226.800 248.400 L 226.800 246.800 220.000 246.800 L 213.200 246.800 213.200 248.400 L 213.200 250.000 208.200 250.000 L 203.200 250.000 203.200 251.600 L 203.200 253.200 200.000 253.200 L 196.800 253.200 196.800 246.600 L 196.800 240.000 195.000 240.000 L 193.200 240.000 193.200 248.400 M236.800 248.400 L 236.800 250.000 235.000 250.000 L 233.200 250.000 233.200 251.600 L 233.200 253.200 235.000 253.200 L 236.800 253.200 236.800 255.000 L 236.800 256.800 238.400 256.800 L 240.000 256.800 240.000 255.000 L 240.000 253.200 241.600 253.200 L 243.200 253.200 243.200 251.600 L 243.200 250.000 241.600 250.000 L 240.000 250.000 240.000 248.400 L 240.000 246.800 238.400 246.800 L 236.800 246.800 236.800 248.400 M240.000 251.600 L 240.000 253.200 238.400 253.200 L 236.800 253.200 236.800 251.600 L 236.800 250.000 238.400 250.000 L 240.000 250.000 240.000 251.600 M193.200 263.400 L 193.200 266.800 191.600 266.800 L 190.000 266.800 190.000 263.400 L 190.000 260.000 191.600 260.000 L 193.200 260.000 193.200 263.400 M233.200 275.000 L 233.200 276.800 230.000 276.800 L 226.800 276.800 226.800 278.400 L 226.800 280.000 221.800 280.000 L 216.800 280.000 216.800 281.600 L 216.800 283.200 210.000 283.200 L 203.200 283.200 203.200 285.000 L 203.200 286.800 205.000 286.800 L 206.800 286.800 206.800 288.400 L 206.800 290.000 215.000 290.000 L 223.200 290.000 223.200 288.400 L 223.200 286.800 230.000 286.800 L 236.800 286.800 236.800 285.000 L 236.800 283.200 240.000 283.200 L 243.200 283.200 243.200 281.600 L 243.200 280.000 240.000 280.000 L 236.800 280.000 236.800 281.600 L 236.800 283.200 231.800 283.200 L 226.800 283.200 226.800 281.600 L 226.800 280.000 230.000 280.000 L 233.200 280.000 233.200 278.400 L 233.200 276.800 236.600 276.800 L 240.000 276.800 240.000 275.000 L 240.000 273.200 236.600 273.200 L 233.200 273.200 233.200 275.000 M223.200 285.000 L 223.200 286.800 220.000 286.800 L 216.800 286.800 216.800 285.000 L 216.800 283.200 220.000 283.200 L 223.200 283.200 223.200 285.000 " stroke="none" fill="#040404" fill-rule="evenodd"></path><path id="path7" d="" stroke="none" fill="#2c8480" fill-rule="evenodd"></path><path id="path8" d="" stroke="none" fill="#2c0484" fill-rule="evenodd"></path></g></svg>