<svg id="svg" version="1.1" xmlns="http://www.w3.org/2000/svg" xmlns:xlink="http://www.w3.org/1999/xlink" width="400" height="400" viewBox="0, 0, 400,400"><g id="svgg"><path id="path0" d="M240.000 145.000 L 240.000 146.800 238.400 146.800 L 236.800 146.800 236.800 148.400 L 236.800 150.000 238.400 150.000 L 240.000 150.000 240.000 151.600 L 240.000 153.200 243.400 153.200 L 246.800 153.200 246.800 151.600 L 246.800 150.000 245.000 150.000 L 243.200 150.000 243.200 146.600 L 243.200 143.200 241.600 143.200 L 240.000 143.200 240.000 145.000 M223.200 168.400 L 223.200 170.000 225.000 170.000 L 226.800 170.000 226.800 168.400 L 226.800 166.800 225.000 166.800 L 223.200 166.800 223.200 168.400 M233.200 171.600 L 233.200 173.200 235.000 173.200 L 236.800 173.200 236.800 175.000 L 236.800 176.800 240.000 176.800 L 243.200 176.800 243.200 175.000 L 243.200 173.200 241.600 173.200 L 240.000 173.200 240.000 171.600 L 240.000 170.000 236.600 170.000 L 233.200 170.000 233.200 171.600 M260.000 178.400 L 260.000 180.000 261.600 180.000 L 263.200 180.000 263.200 178.400 L 263.200 176.800 261.600 176.800 L 260.000 176.800 260.000 178.400 M276.800 185.000 L 276.800 186.800 278.400 186.800 L 280.000 186.800 280.000 188.400 L 280.000 190.000 281.600 190.000 L 283.200 190.000 283.200 191.600 L 283.200 193.200 285.000 193.200 L 286.800 193.200 286.800 198.200 L 286.800 203.200 285.000 203.200 L 283.200 203.200 283.200 205.000 L 283.200 206.800 281.600 206.800 L 280.000 206.800 280.000 208.400 L 280.000 210.000 276.600 210.000 L 273.200 210.000 273.200 208.400 L 273.200 206.800 268.200 206.800 L 263.200 206.800 263.200 208.400 L 263.200 210.000 265.000 210.000 L 266.800 210.000 266.800 211.600 L 266.800 213.200 270.000 213.200 L 273.200 213.200 273.200 215.000 L 273.200 216.800 276.600 216.800 L 280.000 216.800 280.000 218.400 L 280.000 220.000 281.600 220.000 L 283.200 220.000 283.200 225.000 L 283.200 230.000 281.600 230.000 L 280.000 230.000 280.000 231.600 L 280.000 233.200 278.400 233.200 L 276.800 233.200 276.800 235.000 L 276.800 236.800 273.400 236.800 L 270.000 236.800 270.000 238.400 L 270.000 240.000 271.600 240.000 L 273.200 240.000 273.200 241.600 L 273.200 243.200 275.000 243.200 L 276.800 243.200 276.800 245.000 L 276.800 246.800 278.400 246.800 L 280.000 246.800 280.000 253.400 L 280.000 260.000 278.400 260.000 L 276.800 260.000 276.800 261.600 L 276.800 263.200 275.000 263.200 L 273.200 263.200 273.200 265.000 L 273.200 266.800 271.600 266.800 L 270.000 266.800 270.000 270.000 L 270.000 273.200 268.400 273.200 L 266.800 273.200 266.800 275.000 L 266.800 276.800 263.400 276.800 L 260.000 276.800 260.000 278.400 L 260.000 280.000 258.400 280.000 L 256.800 280.000 256.800 283.400 L 256.800 286.800 258.400 286.800 L 260.000 286.800 260.000 288.400 L 260.000 290.000 261.600 290.000 L 263.200 290.000 263.200 291.600 L 263.200 293.200 265.000 293.200 L 266.800 293.200 266.800 295.000 L 266.800 296.800 268.400 296.800 L 270.000 296.800 270.000 298.400 L 270.000 300.000 271.600 300.000 L 273.200 300.000 273.200 301.600 L 273.200 303.200 275.000 303.200 L 276.800 303.200 276.800 305.000 L 276.800 306.800 278.400 306.800 L 280.000 306.800 280.000 311.800 L 280.000 316.800 278.400 316.800 L 276.800 316.800 276.800 318.400 L 276.800 320.000 275.000 320.000 L 273.200 320.000 273.200 321.600 L 273.200 323.200 268.200 323.200 L 263.200 323.200 263.200 325.000 L 263.200 326.800 261.600 326.800 L 260.000 326.800 260.000 330.000 L 260.000 333.200 265.000 333.200 L 270.000 333.200 270.000 331.600 L 270.000 330.000 271.600 330.000 L 273.200 330.000 273.200 328.400 L 273.200 326.800 275.000 326.800 L 276.800 326.800 276.800 325.000 L 276.800 323.200 278.400 323.200 L 280.000 323.200 280.000 321.600 L 280.000 320.000 281.600 320.000 L 283.200 320.000 283.200 316.600 L 283.200 313.200 285.000 313.200 L 286.800 313.200 286.800 305.000 L 286.800 296.800 288.400 296.800 L 290.000 296.800 290.000 281.800 L 290.000 266.800 291.600 266.800 L 293.200 266.800 293.200 236.800 L 293.200 206.800 291.600 206.800 L 290.000 206.800 290.000 196.800 L 290.000 186.800 286.600 186.800 L 283.200 186.800 283.200 185.000 L 283.200 183.200 280.000 183.200 L 276.800 183.200 276.800 185.000 M163.200 188.400 L 163.200 190.000 165.000 190.000 L 166.800 190.000 166.800 191.600 L 166.800 193.200 165.000 193.200 L 163.200 193.200 163.200 195.000 L 163.200 196.800 165.000 196.800 L 166.800 196.800 166.800 198.400 L 166.800 200.000 168.400 200.000 L 170.000 200.000 170.000 198.400 L 170.000 196.800 168.400 196.800 L 166.800 196.800 166.800 195.000 L 166.800 193.200 170.000 193.200 L 173.200 193.200 173.200 195.000 L 173.200 196.800 175.000 196.800 L 176.800 196.800 176.800 198.400 L 176.800 200.000 178.400 200.000 L 180.000 200.000 180.000 198.400 L 180.000 196.800 181.600 196.800 L 183.200 196.800 183.200 198.400 L 183.200 200.000 185.000 200.000 L 186.800 200.000 186.800 203.400 L 186.800 206.800 185.000 206.800 L 183.200 206.800 183.200 208.400 L 183.200 210.000 185.000 210.000 L 186.800 210.000 186.800 208.400 L 186.800 206.800 188.400 206.800 L 190.000 206.800 190.000 203.400 L 190.000 200.000 191.600 200.000 L 193.200 200.000 193.200 198.400 L 193.200 196.800 195.000 196.800 L 196.800 196.800 196.800 195.000 L 196.800 193.200 186.800 193.200 L 176.800 193.200 176.800 191.600 L 176.800 190.000 175.000 190.000 L 173.200 190.000 173.200 188.400 L 173.200 186.800 168.200 186.800 L 163.200 186.800 163.200 188.400 M213.200 193.400 L 213.200 200.000 215.000 200.000 L 216.800 200.000 216.800 193.400 L 216.800 186.800 215.000 186.800 L 213.200 186.800 213.200 193.400 M230.000 191.600 L 230.000 193.200 228.400 193.200 L 226.800 193.200 226.800 195.000 L 226.800 196.800 228.400 196.800 L 230.000 196.800 230.000 198.400 L 230.000 200.000 233.400 200.000 L 236.800 200.000 236.800 196.600 L 236.800 193.200 235.000 193.200 L 233.200 193.200 233.200 191.600 L 233.200 190.000 231.600 190.000 L 230.000 190.000 230.000 191.600 M200.000 205.000 L 200.000 206.800 196.600 206.800 L 193.200 206.800 193.200 208.400 L 193.200 210.000 195.000 210.000 L 196.800 210.000 196.800 211.600 L 196.800 213.200 198.400 213.200 L 200.000 213.200 200.000 210.000 L 200.000 206.800 201.600 206.800 L 203.200 206.800 203.200 208.400 L 203.200 210.000 206.600 210.000 L 210.000 210.000 210.000 211.600 L 210.000 213.200 211.600 213.200 L 213.200 213.200 213.200 218.200 L 213.200 223.200 210.000 223.200 L 206.800 223.200 206.800 225.000 L 206.800 226.800 210.000 226.800 L 213.200 226.800 213.200 225.000 L 213.200 223.200 215.000 223.200 L 216.800 223.200 216.800 225.000 L 216.800 226.800 218.400 226.800 L 220.000 226.800 220.000 225.000 L 220.000 223.200 218.400 223.200 L 216.800 223.200 216.800 215.000 L 216.800 206.800 213.400 206.800 L 210.000 206.800 210.000 205.000 L 210.000 203.200 205.000 203.200 L 200.000 203.200 200.000 205.000 M156.800 208.400 L 156.800 210.000 160.000 210.000 L 163.200 210.000 163.200 215.000 L 163.200 220.000 166.600 220.000 L 170.000 220.000 170.000 218.400 L 170.000 216.800 168.400 216.800 L 166.800 216.800 166.800 213.400 L 166.800 210.000 165.000 210.000 L 163.200 210.000 163.200 208.400 L 163.200 206.800 160.000 206.800 L 156.800 206.800 156.800 208.400 M173.200 208.400 L 173.200 210.000 175.000 210.000 L 176.800 210.000 176.800 208.400 L 176.800 206.800 175.000 206.800 L 173.200 206.800 173.200 208.400 M153.200 215.000 L 153.200 216.800 155.000 216.800 L 156.800 216.800 156.800 218.400 L 156.800 220.000 158.400 220.000 L 160.000 220.000 160.000 218.400 L 160.000 216.800 158.400 216.800 L 156.800 216.800 156.800 215.000 L 156.800 213.200 155.000 213.200 L 153.200 213.200 153.200 215.000 M173.200 218.400 L 173.200 220.000 175.000 220.000 L 176.800 220.000 176.800 218.400 L 176.800 216.800 175.000 216.800 L 173.200 216.800 173.200 218.400 M183.200 220.000 L 183.200 223.200 181.600 223.200 L 180.000 223.200 180.000 225.000 L 180.000 226.800 178.400 226.800 L 176.800 226.800 176.800 228.400 L 176.800 230.000 175.000 230.000 L 173.200 230.000 173.200 233.400 L 173.200 236.800 175.000 236.800 L 176.800 236.800 176.800 238.400 L 176.800 240.000 178.400 240.000 L 180.000 240.000 180.000 238.400 L 180.000 236.800 183.400 236.800 L 186.800 236.800 186.800 235.000 L 186.800 233.200 185.000 233.200 L 183.200 233.200 183.200 230.000 L 183.200 226.800 185.000 226.800 L 186.800 226.800 186.800 225.000 L 186.800 223.200 188.400 223.200 L 190.000 223.200 190.000 225.000 L 190.000 226.800 193.400 226.800 L 196.800 226.800 196.800 233.400 L 196.800 240.000 198.400 240.000 L 200.000 240.000 200.000 241.600 L 200.000 243.200 198.400 243.200 L 196.800 243.200 196.800 245.000 L 196.800 246.800 195.000 246.800 L 193.200 246.800 193.200 243.400 L 193.200 240.000 191.600 240.000 L 190.000 240.000 190.000 243.400 L 190.000 246.800 186.600 246.800 L 183.200 246.800 183.200 248.400 L 183.200 250.000 185.000 250.000 L 186.800 250.000 186.800 251.600 L 186.800 253.200 188.400 253.200 L 190.000 253.200 190.000 255.000 L 190.000 256.800 191.600 256.800 L 193.200 256.800 193.200 263.400 L 193.200 270.000 195.000 270.000 L 196.800 270.000 196.800 265.000 L 196.800 260.000 201.800 260.000 L 206.800 260.000 206.800 258.400 L 206.800 256.800 205.000 256.800 L 203.200 256.800 203.200 255.000 L 203.200 253.200 201.600 253.200 L 200.000 253.200 200.000 251.600 L 200.000 250.000 201.600 250.000 L 203.200 250.000 203.200 248.400 L 203.200 246.800 206.600 246.800 L 210.000 246.800 210.000 245.000 L 210.000 243.200 206.600 243.200 L 203.200 243.200 203.200 238.200 L 203.200 233.200 201.600 233.200 L 200.000 233.200 200.000 228.200 L 200.000 223.200 198.400 223.200 L 196.800 223.200 196.800 221.600 L 196.800 220.000 191.800 220.000 L 186.800 220.000 186.800 218.400 L 186.800 216.800 185.000 216.800 L 183.200 216.800 183.200 220.000 M210.000 235.000 L 210.000 236.800 211.600 236.800 L 213.200 236.800 213.200 238.400 L 213.200 240.000 215.000 240.000 L 216.800 240.000 216.800 238.400 L 216.800 236.800 220.000 236.800 L 223.200 236.800 223.200 235.000 L 223.200 233.200 220.000 233.200 L 216.800 233.200 216.800 235.000 L 216.800 236.800 215.000 236.800 L 213.200 236.800 213.200 235.000 L 213.200 233.200 211.600 233.200 L 210.000 233.200 210.000 235.000 M216.800 248.200 L 216.800 253.200 220.000 253.200 L 223.200 253.200 223.200 251.600 L 223.200 250.000 225.000 250.000 L 226.800 250.000 226.800 246.600 L 226.800 243.200 225.000 243.200 L 223.200 243.200 223.200 245.000 L 223.200 246.800 221.600 246.800 L 220.000 246.800 220.000 245.000 L 220.000 243.200 218.400 243.200 L 216.800 243.200 216.800 248.200 " stroke="none" fill="#748cfc" fill-rule="evenodd"></path><path id="path1" d="M233.200 140.000 L 233.200 146.800 236.600 146.800 L 240.000 146.800 240.000 145.000 L 240.000 143.200 241.600 143.200 L 243.200 143.200 243.200 141.600 L 243.200 140.000 241.600 140.000 L 240.000 140.000 240.000 138.400 L 240.000 136.800 238.400 136.800 L 236.800 136.800 236.800 135.000 L 236.800 133.200 235.000 133.200 L 233.200 133.200 233.200 140.000 M243.200 148.400 L 243.200 150.000 245.000 150.000 L 246.800 150.000 246.800 151.600 L 246.800 153.200 248.400 153.200 L 250.000 153.200 250.000 151.600 L 250.000 150.000 248.400 150.000 L 246.800 150.000 246.800 148.400 L 246.800 146.800 245.000 146.800 L 243.200 146.800 243.200 148.400 M226.800 166.600 L 226.800 170.000 228.400 170.000 L 230.000 170.000 230.000 171.600 L 230.000 173.200 231.600 173.200 L 233.200 173.200 233.200 171.600 L 233.200 170.000 236.600 170.000 L 240.000 170.000 240.000 171.600 L 240.000 173.200 241.600 173.200 L 243.200 173.200 243.200 175.000 L 243.200 176.800 245.000 176.800 L 246.800 176.800 246.800 175.000 L 246.800 173.200 245.000 173.200 L 243.200 173.200 243.200 171.600 L 243.200 170.000 241.600 170.000 L 240.000 170.000 240.000 168.400 L 240.000 166.800 236.600 166.800 L 233.200 166.800 233.200 165.000 L 233.200 163.200 230.000 163.200 L 226.800 163.200 226.800 166.600 M263.200 178.400 L 263.200 180.000 265.000 180.000 L 266.800 180.000 266.800 181.600 L 266.800 183.200 268.400 183.200 L 270.000 183.200 270.000 185.000 L 270.000 186.800 271.600 186.800 L 273.200 186.800 273.200 188.400 L 273.200 190.000 275.000 190.000 L 276.800 190.000 276.800 191.600 L 276.800 193.200 278.400 193.200 L 280.000 193.200 280.000 195.000 L 280.000 196.800 281.600 196.800 L 283.200 196.800 283.200 200.000 L 283.200 203.200 281.600 203.200 L 280.000 203.200 280.000 205.000 L 280.000 206.800 276.600 206.800 L 273.200 206.800 273.200 208.400 L 273.200 210.000 276.600 210.000 L 280.000 210.000 280.000 208.400 L 280.000 206.800 281.600 206.800 L 283.200 206.800 283.200 205.000 L 283.200 203.200 285.000 203.200 L 286.800 203.200 286.800 198.200 L 286.800 193.200 285.000 193.200 L 283.200 193.200 283.200 191.600 L 283.200 190.000 281.600 190.000 L 280.000 190.000 280.000 188.400 L 280.000 186.800 278.400 186.800 L 276.800 186.800 276.800 185.000 L 276.800 183.200 280.000 183.200 L 283.200 183.200 283.200 185.000 L 283.200 186.800 286.600 186.800 L 290.000 186.800 290.000 185.000 L 290.000 183.200 286.600 183.200 L 283.200 183.200 283.200 181.600 L 283.200 180.000 278.200 180.000 L 273.200 180.000 273.200 178.400 L 273.200 176.800 268.200 176.800 L 263.200 176.800 263.200 178.400 M220.000 186.600 L 220.000 193.200 221.600 193.200 L 223.200 193.200 223.200 195.000 L 223.200 196.800 225.000 196.800 L 226.800 196.800 226.800 195.000 L 226.800 193.200 228.400 193.200 L 230.000 193.200 230.000 190.000 L 230.000 186.800 228.400 186.800 L 226.800 186.800 226.800 185.000 L 226.800 183.200 225.000 183.200 L 223.200 183.200 223.200 181.600 L 223.200 180.000 221.600 180.000 L 220.000 180.000 220.000 186.600 M156.800 188.200 L 156.800 193.200 158.400 193.200 L 160.000 193.200 160.000 195.000 L 160.000 196.800 158.400 196.800 L 156.800 196.800 156.800 198.400 L 156.800 200.000 155.000 200.000 L 153.200 200.000 153.200 205.000 L 153.200 210.000 151.600 210.000 L 150.000 210.000 150.000 213.400 L 150.000 216.800 151.600 216.800 L 153.200 216.800 153.200 215.000 L 153.200 213.200 155.000 213.200 L 156.800 213.200 156.800 210.000 L 156.800 206.800 158.400 206.800 L 160.000 206.800 160.000 203.400 L 160.000 200.000 161.600 200.000 L 163.200 200.000 163.200 196.600 L 163.200 193.200 161.600 193.200 L 160.000 193.200 160.000 191.600 L 160.000 190.000 161.600 190.000 L 163.200 190.000 163.200 188.400 L 163.200 186.800 165.000 186.800 L 166.800 186.800 166.800 185.000 L 166.800 183.200 161.800 183.200 L 156.800 183.200 156.800 188.200 M213.200 185.000 L 213.200 186.800 210.000 186.800 L 206.800 186.800 206.800 188.400 L 206.800 190.000 203.400 190.000 L 200.000 190.000 200.000 196.600 L 200.000 203.200 205.000 203.200 L 210.000 203.200 210.000 205.000 L 210.000 206.800 211.600 206.800 L 213.200 206.800 213.200 203.400 L 213.200 200.000 208.200 200.000 L 203.200 200.000 203.200 196.600 L 203.200 193.200 205.000 193.200 L 206.800 193.200 206.800 191.600 L 206.800 190.000 210.000 190.000 L 213.200 190.000 213.200 188.400 L 213.200 186.800 215.000 186.800 L 216.800 186.800 216.800 185.000 L 216.800 183.200 215.000 183.200 L 213.200 183.200 213.200 185.000 M173.200 188.400 L 173.200 190.000 175.000 190.000 L 176.800 190.000 176.800 191.600 L 176.800 193.200 181.800 193.200 L 186.800 193.200 186.800 191.600 L 186.800 190.000 181.800 190.000 L 176.800 190.000 176.800 188.400 L 176.800 186.800 175.000 186.800 L 173.200 186.800 173.200 188.400 M233.200 191.600 L 233.200 193.200 235.000 193.200 L 236.800 193.200 236.800 195.000 L 236.800 196.800 240.000 196.800 L 243.200 196.800 243.200 195.000 L 243.200 193.200 240.000 193.200 L 236.800 193.200 236.800 191.600 L 236.800 190.000 235.000 190.000 L 233.200 190.000 233.200 191.600 M170.000 201.800 L 170.000 206.800 168.400 206.800 L 166.800 206.800 166.800 208.400 L 166.800 210.000 170.000 210.000 L 173.200 210.000 173.200 203.400 L 173.200 196.800 171.600 196.800 L 170.000 196.800 170.000 201.800 M253.200 205.000 L 253.200 206.800 251.600 206.800 L 250.000 206.800 250.000 208.400 L 250.000 210.000 255.000 210.000 L 260.000 210.000 260.000 211.600 L 260.000 213.200 263.400 213.200 L 266.800 213.200 266.800 211.600 L 266.800 210.000 265.000 210.000 L 263.200 210.000 263.200 208.400 L 263.200 206.800 265.000 206.800 L 266.800 206.800 266.800 205.000 L 266.800 203.200 260.000 203.200 L 253.200 203.200 253.200 205.000 M180.000 213.400 L 180.000 220.000 178.400 220.000 L 176.800 220.000 176.800 221.600 L 176.800 223.200 171.800 223.200 L 166.800 223.200 166.800 226.600 L 166.800 230.000 168.400 230.000 L 170.000 230.000 170.000 235.000 L 170.000 240.000 171.600 240.000 L 173.200 240.000 173.200 243.400 L 173.200 246.800 175.000 246.800 L 176.800 246.800 176.800 250.000 L 176.800 253.200 180.000 253.200 L 183.200 253.200 183.200 255.000 L 183.200 256.800 185.000 256.800 L 186.800 256.800 186.800 258.400 L 186.800 260.000 188.400 260.000 L 190.000 260.000 190.000 263.400 L 190.000 266.800 188.400 266.800 L 186.800 266.800 186.800 268.400 L 186.800 270.000 185.000 270.000 L 183.200 270.000 183.200 271.600 L 183.200 273.200 186.600 273.200 L 190.000 273.200 190.000 271.600 L 190.000 270.000 191.600 270.000 L 193.200 270.000 193.200 263.400 L 193.200 256.800 191.600 256.800 L 190.000 256.800 190.000 255.000 L 190.000 253.200 188.400 253.200 L 186.800 253.200 186.800 251.600 L 186.800 250.000 185.000 250.000 L 183.200 250.000 183.200 248.400 L 183.200 246.800 186.600 246.800 L 190.000 246.800 190.000 241.800 L 190.000 236.800 193.400 236.800 L 196.800 236.800 196.800 231.800 L 196.800 226.800 195.000 226.800 L 193.200 226.800 193.200 230.000 L 193.200 233.200 191.600 233.200 L 190.000 233.200 190.000 235.000 L 190.000 236.800 188.400 236.800 L 186.800 236.800 186.800 240.000 L 186.800 243.200 185.000 243.200 L 183.200 243.200 183.200 245.000 L 183.200 246.800 181.600 246.800 L 180.000 246.800 180.000 245.000 L 180.000 243.200 178.400 243.200 L 176.800 243.200 176.800 240.000 L 176.800 236.800 175.000 236.800 L 173.200 236.800 173.200 233.400 L 173.200 230.000 175.000 230.000 L 176.800 230.000 176.800 228.400 L 176.800 226.800 178.400 226.800 L 180.000 226.800 180.000 225.000 L 180.000 223.200 181.600 223.200 L 183.200 223.200 183.200 215.000 L 183.200 206.800 181.600 206.800 L 180.000 206.800 180.000 213.400 M190.000 210.000 L 190.000 213.200 191.600 213.200 L 193.200 213.200 193.200 215.000 L 193.200 216.800 191.600 216.800 L 190.000 216.800 190.000 218.400 L 190.000 220.000 193.400 220.000 L 196.800 220.000 196.800 221.600 L 196.800 223.200 198.400 223.200 L 200.000 223.200 200.000 228.200 L 200.000 233.200 201.600 233.200 L 203.200 233.200 203.200 238.200 L 203.200 243.200 205.000 243.200 L 206.800 243.200 206.800 238.200 L 206.800 233.200 208.400 233.200 L 210.000 233.200 210.000 230.000 L 210.000 226.800 208.400 226.800 L 206.800 226.800 206.800 230.000 L 206.800 233.200 205.000 233.200 L 203.200 233.200 203.200 228.200 L 203.200 223.200 208.200 223.200 L 213.200 223.200 213.200 220.000 L 213.200 216.800 211.600 216.800 L 210.000 216.800 210.000 218.400 L 210.000 220.000 206.600 220.000 L 203.200 220.000 203.200 221.600 L 203.200 223.200 201.600 223.200 L 200.000 223.200 200.000 218.200 L 200.000 213.200 198.400 213.200 L 196.800 213.200 196.800 211.600 L 196.800 210.000 195.000 210.000 L 193.200 210.000 193.200 208.400 L 193.200 206.800 191.600 206.800 L 190.000 206.800 190.000 210.000 M216.800 216.600 L 216.800 223.200 218.400 223.200 L 220.000 223.200 220.000 216.600 L 220.000 210.000 218.400 210.000 L 216.800 210.000 216.800 216.600 M270.000 215.000 L 270.000 216.800 271.600 216.800 L 273.200 216.800 273.200 218.400 L 273.200 220.000 275.000 220.000 L 276.800 220.000 276.800 225.000 L 276.800 230.000 275.000 230.000 L 273.200 230.000 273.200 231.600 L 273.200 233.200 268.200 233.200 L 263.200 233.200 263.200 231.600 L 263.200 230.000 255.000 230.000 L 246.800 230.000 246.800 231.600 L 246.800 233.200 251.800 233.200 L 256.800 233.200 256.800 235.000 L 256.800 236.800 258.400 236.800 L 260.000 236.800 260.000 238.400 L 260.000 240.000 261.600 240.000 L 263.200 240.000 263.200 241.600 L 263.200 243.200 265.000 243.200 L 266.800 243.200 266.800 245.000 L 266.800 246.800 268.400 246.800 L 270.000 246.800 270.000 251.800 L 270.000 256.800 268.400 256.800 L 266.800 256.800 266.800 260.000 L 266.800 263.200 265.000 263.200 L 263.200 263.200 263.200 265.000 L 263.200 266.800 261.600 266.800 L 260.000 266.800 260.000 268.400 L 260.000 270.000 258.400 270.000 L 256.800 270.000 256.800 271.600 L 256.800 273.200 251.800 273.200 L 246.800 273.200 246.800 275.000 L 246.800 276.800 248.400 276.800 L 250.000 276.800 250.000 278.400 L 250.000 280.000 251.600 280.000 L 253.200 280.000 253.200 281.600 L 253.200 283.200 255.000 283.200 L 256.800 283.200 256.800 281.600 L 256.800 280.000 258.400 280.000 L 260.000 280.000 260.000 278.400 L 260.000 276.800 263.400 276.800 L 266.800 276.800 266.800 275.000 L 266.800 273.200 268.400 273.200 L 270.000 273.200 270.000 270.000 L 270.000 266.800 271.600 266.800 L 273.200 266.800 273.200 265.000 L 273.200 263.200 275.000 263.200 L 276.800 263.200 276.800 261.600 L 276.800 260.000 278.400 260.000 L 280.000 260.000 280.000 253.400 L 280.000 246.800 278.400 246.800 L 276.800 246.800 276.800 245.000 L 276.800 243.200 275.000 243.200 L 273.200 243.200 273.200 241.600 L 273.200 240.000 271.600 240.000 L 270.000 240.000 270.000 238.400 L 270.000 236.800 273.400 236.800 L 276.800 236.800 276.800 235.000 L 276.800 233.200 278.400 233.200 L 280.000 233.200 280.000 231.600 L 280.000 230.000 281.600 230.000 L 283.200 230.000 283.200 225.000 L 283.200 220.000 281.600 220.000 L 280.000 220.000 280.000 218.400 L 280.000 216.800 276.600 216.800 L 273.200 216.800 273.200 215.000 L 273.200 213.200 271.600 213.200 L 270.000 213.200 270.000 215.000 M220.000 230.000 L 220.000 233.200 221.600 233.200 L 223.200 233.200 223.200 230.000 L 223.200 226.800 221.600 226.800 L 220.000 226.800 220.000 230.000 M213.200 246.600 L 213.200 253.200 211.600 253.200 L 210.000 253.200 210.000 255.000 L 210.000 256.800 208.400 256.800 L 206.800 256.800 206.800 258.400 L 206.800 260.000 205.000 260.000 L 203.200 260.000 203.200 261.600 L 203.200 263.200 206.600 263.200 L 210.000 263.200 210.000 261.600 L 210.000 260.000 211.600 260.000 L 213.200 260.000 213.200 256.600 L 213.200 253.200 215.000 253.200 L 216.800 253.200 216.800 256.600 L 216.800 260.000 218.400 260.000 L 220.000 260.000 220.000 256.600 L 220.000 253.200 218.400 253.200 L 216.800 253.200 216.800 246.600 L 216.800 240.000 215.000 240.000 L 213.200 240.000 213.200 246.600 M226.800 250.000 L 226.800 253.200 228.400 253.200 L 230.000 253.200 230.000 255.000 L 230.000 256.800 231.600 256.800 L 233.200 256.800 233.200 255.000 L 233.200 253.200 231.600 253.200 L 230.000 253.200 230.000 250.000 L 230.000 246.800 228.400 246.800 L 226.800 246.800 226.800 250.000 M166.800 258.400 L 166.800 260.000 168.400 260.000 L 170.000 260.000 170.000 263.400 L 170.000 266.800 171.600 266.800 L 173.200 266.800 173.200 263.400 L 173.200 260.000 171.600 260.000 L 170.000 260.000 170.000 258.400 L 170.000 256.800 168.400 256.800 L 166.800 256.800 166.800 258.400 M280.000 321.600 L 280.000 323.200 278.400 323.200 L 276.800 323.200 276.800 325.000 L 276.800 326.800 275.000 326.800 L 273.200 326.800 273.200 328.400 L 273.200 330.000 271.600 330.000 L 270.000 330.000 270.000 331.600 L 270.000 333.200 265.000 333.200 L 260.000 333.200 260.000 330.000 L 260.000 326.800 255.000 326.800 L 250.000 326.800 250.000 325.000 L 250.000 323.200 245.000 323.200 L 240.000 323.200 240.000 326.600 L 240.000 330.000 243.400 330.000 L 246.800 330.000 246.800 331.600 L 246.800 333.200 250.000 333.200 L 253.200 333.200 253.200 335.000 L 253.200 336.800 256.600 336.800 L 260.000 336.800 260.000 338.400 L 260.000 340.000 263.400 340.000 L 266.800 340.000 266.800 338.400 L 266.800 336.800 273.400 336.800 L 280.000 336.800 280.000 331.800 L 280.000 326.800 281.600 326.800 L 283.200 326.800 283.200 323.400 L 283.200 320.000 281.600 320.000 L 280.000 320.000 280.000 321.600 " stroke="none" fill="#5c74dc" fill-rule="evenodd"></path><path id="path2" d="M186.800 55.000 L 186.800 56.800 185.000 56.800 L 183.200 56.800 183.200 61.800 L 183.200 66.800 185.000 66.800 L 186.800 66.800 186.800 68.400 L 186.800 70.000 188.400 70.000 L 190.000 70.000 190.000 83.400 L 190.000 96.800 188.400 96.800 L 186.800 96.800 186.800 98.400 L 186.800 100.000 185.000 100.000 L 183.200 100.000 183.200 101.600 L 183.200 103.200 181.600 103.200 L 180.000 103.200 180.000 105.000 L 180.000 106.800 178.400 106.800 L 176.800 106.800 176.800 108.400 L 176.800 110.000 175.000 110.000 L 173.200 110.000 173.200 111.600 L 173.200 113.200 171.600 113.200 L 170.000 113.200 170.000 116.600 L 170.000 120.000 168.400 120.000 L 166.800 120.000 166.800 123.400 L 166.800 126.800 165.000 126.800 L 163.200 126.800 163.200 131.800 L 163.200 136.800 161.600 136.800 L 160.000 136.800 160.000 146.800 L 160.000 156.800 158.400 156.800 L 156.800 156.800 156.800 161.600 L 156.800 166.400 160.000 166.400 L 163.200 166.400 163.200 168.200 L 163.200 170.000 168.200 170.000 L 173.200 170.000 173.200 171.600 L 173.200 173.200 191.600 173.200 L 210.000 173.200 210.000 171.600 L 210.000 170.000 211.600 170.000 L 213.200 170.000 213.200 168.200 L 213.200 166.400 215.000 166.400 L 216.800 166.400 216.800 154.800 L 216.800 143.200 215.000 143.200 L 213.200 143.200 213.200 148.400 L 213.200 153.600 208.200 153.600 L 203.200 153.600 203.200 151.800 L 203.200 150.000 201.600 150.000 L 200.000 150.000 200.000 148.400 L 200.000 146.800 198.400 146.800 L 196.800 146.800 196.800 143.400 L 196.800 140.000 206.800 140.000 L 216.800 140.000 216.800 138.400 L 216.800 136.800 215.000 136.800 L 213.200 136.800 213.200 131.800 L 213.200 126.800 211.600 126.800 L 210.000 126.800 210.000 121.800 L 210.000 116.800 208.400 116.800 L 206.800 116.800 206.800 113.400 L 206.800 110.000 205.000 110.000 L 203.200 110.000 203.200 106.600 L 203.200 103.200 201.600 103.200 L 200.000 103.200 200.000 101.600 L 200.000 100.000 198.400 100.000 L 196.800 100.000 196.800 98.400 L 196.800 96.800 195.000 96.800 L 193.200 96.800 193.200 83.400 L 193.200 70.000 195.000 70.000 L 196.800 70.000 196.800 61.600 L 196.800 53.200 191.800 53.200 L 186.800 53.200 186.800 55.000 M186.800 108.400 L 186.800 110.000 185.000 110.000 L 183.200 110.000 183.200 113.400 L 183.200 116.800 181.600 116.800 L 180.000 116.800 180.000 120.000 L 180.000 123.200 178.400 123.200 L 176.800 123.200 176.800 126.600 L 176.800 130.000 175.000 130.000 L 173.200 130.000 173.200 126.600 L 173.200 123.200 175.000 123.200 L 176.800 123.200 176.800 120.000 L 176.800 116.800 178.400 116.800 L 180.000 116.800 180.000 113.400 L 180.000 110.000 181.600 110.000 L 183.200 110.000 183.200 108.400 L 183.200 106.800 185.000 106.800 L 186.800 106.800 186.800 108.400 M203.200 128.400 L 203.200 130.000 205.000 130.000 L 206.800 130.000 206.800 133.400 L 206.800 136.800 205.000 136.800 L 203.200 136.800 203.200 133.400 L 203.200 130.000 201.600 130.000 L 200.000 130.000 200.000 128.400 L 200.000 126.800 201.600 126.800 L 203.200 126.800 203.200 128.400 M193.200 141.600 L 193.200 143.200 191.600 143.200 L 190.000 143.200 190.000 148.400 L 190.000 153.600 185.000 153.600 L 180.000 153.600 180.000 151.800 L 180.000 150.000 178.400 150.000 L 176.800 150.000 176.800 148.400 L 176.800 146.800 175.000 146.800 L 173.200 146.800 173.200 143.400 L 173.200 140.000 183.200 140.000 L 193.200 140.000 193.200 141.600 M203.200 158.200 L 203.200 160.000 205.000 160.000 L 206.800 160.000 206.800 163.400 L 206.800 166.800 195.000 166.800 L 183.200 166.800 183.200 165.000 L 183.200 163.200 181.600 163.200 L 180.000 163.200 180.000 161.600 L 180.000 160.000 181.600 160.000 L 183.200 160.000 183.200 158.200 L 183.200 156.400 193.200 156.400 L 203.200 156.400 203.200 158.200 M156.800 178.400 L 156.800 180.000 160.000 180.000 L 163.200 180.000 163.200 178.400 L 163.200 176.800 160.000 176.800 L 156.800 176.800 156.800 178.400 M213.200 178.400 L 213.200 180.000 215.000 180.000 L 216.800 180.000 216.800 178.400 L 216.800 176.800 215.000 176.800 L 213.200 176.800 213.200 178.400 M166.800 181.600 L 166.800 183.200 170.000 183.200 L 173.200 183.200 173.200 181.600 L 173.200 180.000 170.000 180.000 L 166.800 180.000 166.800 181.600 M176.800 185.200 L 176.800 186.800 181.800 186.800 L 186.800 186.800 186.800 188.400 L 186.800 190.000 193.400 190.000 L 200.000 190.000 200.000 188.400 L 200.000 186.800 203.400 186.800 L 206.800 186.800 206.800 185.200 L 206.800 183.600 191.800 183.600 L 176.800 183.600 176.800 185.200 M156.800 226.600 L 156.800 230.000 158.400 230.000 L 160.000 230.000 160.000 235.000 L 160.000 240.000 161.600 240.000 L 163.200 240.000 163.200 243.400 L 163.200 246.800 165.000 246.800 L 166.800 246.800 166.800 250.000 L 166.800 253.200 168.400 253.200 L 170.000 253.200 170.000 255.000 L 170.000 256.800 171.600 256.800 L 173.200 256.800 173.200 258.400 L 173.200 260.000 175.000 260.000 L 176.800 260.000 176.800 265.000 L 176.800 270.000 180.000 270.000 L 183.200 270.000 183.200 268.400 L 183.200 266.800 185.000 266.800 L 186.800 266.800 186.800 263.400 L 186.800 260.000 185.000 260.000 L 183.200 260.000 183.200 258.400 L 183.200 256.800 180.000 256.800 L 176.800 256.800 176.800 255.000 L 176.800 253.200 175.000 253.200 L 173.200 253.200 173.200 250.000 L 173.200 246.800 171.600 246.800 L 170.000 246.800 170.000 243.400 L 170.000 240.000 168.400 240.000 L 166.800 240.000 166.800 235.000 L 166.800 230.000 165.000 230.000 L 163.200 230.000 163.200 226.600 L 163.200 223.200 160.000 223.200 L 156.800 223.200 156.800 226.600 M213.200 263.400 L 213.200 266.800 208.200 266.800 L 203.200 266.800 203.200 268.400 L 203.200 270.000 201.600 270.000 L 200.000 270.000 200.000 271.600 L 200.000 273.200 195.000 273.200 L 190.000 273.200 190.000 275.000 L 190.000 276.800 185.000 276.800 L 180.000 276.800 180.000 278.400 L 180.000 280.000 181.600 280.000 L 183.200 280.000 183.200 283.400 L 183.200 286.800 185.000 286.800 L 186.800 286.800 186.800 285.000 L 186.800 283.200 188.600 283.200 L 190.400 283.200 190.400 300.000 L 190.400 316.800 188.800 316.800 L 187.200 316.800 187.200 323.400 L 187.200 330.000 185.400 330.000 L 183.600 330.000 183.600 335.000 L 183.600 340.000 182.000 340.000 L 180.400 340.000 180.400 343.400 L 180.400 346.800 183.800 346.800 L 187.200 346.800 187.200 345.000 L 187.200 343.200 188.800 343.200 L 190.400 343.200 190.400 341.600 L 190.400 340.000 192.000 340.000 L 193.600 340.000 193.600 338.400 L 193.600 336.800 192.000 336.800 L 190.400 336.800 190.400 333.400 L 190.400 330.000 192.000 330.000 L 193.600 330.000 193.600 325.000 L 193.600 320.000 195.400 320.000 L 197.200 320.000 197.200 316.600 L 197.200 313.200 198.800 313.200 L 200.400 313.200 200.400 311.600 L 200.400 310.000 202.000 310.000 L 203.600 310.000 203.600 308.400 L 203.600 306.800 206.800 306.800 L 210.000 306.800 210.000 308.400 L 210.000 310.000 213.400 310.000 L 216.800 310.000 216.800 311.600 L 216.800 313.200 220.000 313.200 L 223.200 313.200 223.200 315.000 C 223.200 316.790,223.193 316.800,221.800 316.800 L 220.400 316.800 220.400 323.400 L 220.400 330.000 218.800 330.000 L 217.200 330.000 217.200 335.000 L 217.200 340.000 215.400 340.000 L 213.600 340.000 213.600 343.400 L 213.600 346.800 217.000 346.800 L 220.400 346.800 220.400 345.000 L 220.400 343.200 222.000 343.200 L 223.600 343.200 223.600 341.600 L 223.600 340.000 225.400 340.000 L 227.200 340.000 227.200 338.400 L 227.200 336.800 225.400 336.800 L 223.600 336.800 223.600 330.000 L 223.600 323.200 225.400 323.200 L 227.200 323.200 227.200 321.600 L 227.200 320.000 225.400 320.000 L 223.600 320.000 223.600 318.400 L 223.600 316.800 228.400 316.800 L 233.200 316.800 233.200 318.400 L 233.200 320.000 241.600 320.000 L 250.000 320.000 250.000 321.600 L 250.000 323.200 256.600 323.200 L 263.200 323.200 263.200 321.600 L 263.200 320.000 268.200 320.000 L 273.200 320.000 273.200 318.400 L 273.200 316.800 275.000 316.800 L 276.800 316.800 276.800 311.800 L 276.800 306.800 275.000 306.800 L 273.200 306.800 273.200 305.000 L 273.200 303.200 271.600 303.200 L 270.000 303.200 270.000 301.600 L 270.000 300.000 268.400 300.000 L 266.800 300.000 266.800 298.400 L 266.800 296.800 265.000 296.800 L 263.200 296.800 263.200 295.000 L 263.200 293.200 261.600 293.200 L 260.000 293.200 260.000 291.600 L 260.000 290.000 258.400 290.000 L 256.800 290.000 256.800 288.400 L 256.800 286.800 255.000 286.800 L 253.200 286.800 253.200 285.000 L 253.200 283.200 251.600 283.200 L 250.000 283.200 250.000 281.600 L 250.000 280.000 248.400 280.000 L 246.800 280.000 246.800 278.400 L 246.800 276.800 245.000 276.800 L 243.200 276.800 243.200 275.000 L 243.200 273.200 241.600 273.200 L 240.000 273.200 240.000 270.000 L 240.000 266.800 238.400 266.800 L 236.800 266.800 236.800 265.000 L 236.800 263.200 235.000 263.200 L 233.200 263.200 233.200 261.600 L 233.200 260.000 230.000 260.000 L 226.800 260.000 226.800 261.600 L 226.800 263.200 221.800 263.200 L 216.800 263.200 216.800 261.600 L 216.800 260.000 215.000 260.000 L 213.200 260.000 213.200 263.400 M230.000 266.600 L 230.000 270.000 231.600 270.000 L 233.200 270.000 233.200 271.600 L 233.200 273.200 231.600 273.200 L 230.000 273.200 230.000 271.600 L 230.000 270.000 228.400 270.000 L 226.800 270.000 226.800 266.600 L 226.800 263.200 228.400 263.200 L 230.000 263.200 230.000 266.600 M223.200 280.000 L 223.200 283.200 225.000 283.200 L 226.800 283.200 226.800 286.600 L 226.800 290.000 230.000 290.000 L 233.200 290.000 233.200 291.600 L 233.200 293.200 230.000 293.200 L 226.800 293.200 226.800 291.600 L 226.800 290.000 225.000 290.000 L 223.200 290.000 223.200 286.600 L 223.200 283.200 221.600 283.200 L 220.000 283.200 220.000 280.000 L 220.000 276.800 221.600 276.800 L 223.200 276.800 223.200 280.000 M193.600 345.000 L 193.600 346.800 197.000 346.800 L 200.400 346.800 200.400 345.000 L 200.400 343.200 197.000 343.200 L 193.600 343.200 193.600 345.000 M227.200 345.000 L 227.200 346.800 230.400 346.800 L 233.600 346.800 233.600 345.000 L 233.600 343.200 230.400 343.200 L 227.200 343.200 227.200 345.000 " stroke="none" fill="#f8bc04" fill-rule="evenodd"></path><path id="path3" d="M253.200 105.000 L 253.200 106.800 251.600 106.800 L 250.000 106.800 250.000 108.400 L 250.000 110.000 248.400 110.000 L 246.800 110.000 246.800 111.600 L 246.800 113.200 245.000 113.200 L 243.200 113.200 243.200 116.600 L 243.200 120.000 241.600 120.000 L 240.000 120.000 240.000 123.400 L 240.000 126.800 238.400 126.800 L 236.800 126.800 236.800 130.000 L 236.800 133.200 238.400 133.200 L 240.000 133.200 240.000 135.000 L 240.000 136.800 243.400 136.800 L 246.800 136.800 246.800 131.800 L 246.800 126.800 248.400 126.800 L 250.000 126.800 250.000 123.400 L 250.000 120.000 251.600 120.000 L 253.200 120.000 253.200 116.600 L 253.200 113.200 255.000 113.200 L 256.800 113.200 256.800 111.600 L 256.800 110.000 258.400 110.000 L 260.000 110.000 260.000 111.600 L 260.000 113.200 261.600 113.200 L 263.200 113.200 263.200 116.600 L 263.200 120.000 265.000 120.000 L 266.800 120.000 266.800 123.400 L 266.800 126.800 268.400 126.800 L 270.000 126.800 270.000 130.000 L 270.000 133.200 271.600 133.200 L 273.200 133.200 273.200 138.200 L 273.200 143.200 275.000 143.200 L 276.800 143.200 276.800 148.200 L 276.800 153.200 278.400 153.200 L 280.000 153.200 280.000 160.000 L 280.000 166.800 281.600 166.800 L 283.200 166.800 283.200 173.400 L 283.200 180.000 285.000 180.000 L 286.800 180.000 286.800 173.400 L 286.800 166.800 285.000 166.800 L 283.200 166.800 283.200 160.000 L 283.200 153.200 281.600 153.200 L 280.000 153.200 280.000 148.200 L 280.000 143.200 278.400 143.200 L 276.800 143.200 276.800 138.200 L 276.800 133.200 275.000 133.200 L 273.200 133.200 273.200 130.000 L 273.200 126.800 271.600 126.800 L 270.000 126.800 270.000 123.400 L 270.000 120.000 268.400 120.000 L 266.800 120.000 266.800 116.600 L 266.800 113.200 265.000 113.200 L 263.200 113.200 263.200 111.600 L 263.200 110.000 261.600 110.000 L 260.000 110.000 260.000 108.400 L 260.000 106.800 258.400 106.800 L 256.800 106.800 256.800 105.000 L 256.800 103.200 255.000 103.200 L 253.200 103.200 253.200 105.000 M230.000 150.000 L 230.000 153.200 228.400 153.200 L 226.800 153.200 226.800 156.600 L 226.800 160.000 230.000 160.000 L 233.200 160.000 233.200 161.600 L 233.200 163.200 235.000 163.200 L 236.800 163.200 236.800 161.600 L 236.800 160.000 238.400 160.000 L 240.000 160.000 240.000 156.600 L 240.000 153.200 238.400 153.200 L 236.800 153.200 236.800 151.600 L 236.800 150.000 235.000 150.000 L 233.200 150.000 233.200 148.400 L 233.200 146.800 231.600 146.800 L 230.000 146.800 230.000 150.000 M183.200 158.200 L 183.200 160.000 181.600 160.000 L 180.000 160.000 180.000 161.600 L 180.000 163.200 181.600 163.200 L 183.200 163.200 183.200 165.000 L 183.200 166.800 195.000 166.800 L 206.800 166.800 206.800 163.400 L 206.800 160.000 205.000 160.000 L 203.200 160.000 203.200 158.200 L 203.200 156.400 193.200 156.400 L 183.200 156.400 183.200 158.200 M200.000 161.600 L 200.000 163.200 195.000 163.200 L 190.000 163.200 190.000 161.600 L 190.000 160.000 195.000 160.000 L 200.000 160.000 200.000 161.600 M223.200 176.600 L 223.200 180.000 225.000 180.000 L 226.800 180.000 226.800 181.600 L 226.800 183.200 228.400 183.200 L 230.000 183.200 230.000 185.000 L 230.000 186.800 231.600 186.800 L 233.200 186.800 233.200 183.400 L 233.200 180.000 235.000 180.000 L 236.800 180.000 236.800 178.400 L 236.800 176.800 233.400 176.800 L 230.000 176.800 230.000 175.000 L 230.000 173.200 226.600 173.200 L 223.200 173.200 223.200 176.600 M256.800 183.400 L 256.800 186.800 258.400 186.800 L 260.000 186.800 260.000 188.400 L 260.000 190.000 261.600 190.000 L 263.200 190.000 263.200 191.600 L 263.200 193.200 265.000 193.200 L 266.800 193.200 266.800 195.000 L 266.800 196.800 268.400 196.800 L 270.000 196.800 270.000 198.400 L 270.000 200.000 271.600 200.000 L 273.200 200.000 273.200 201.600 L 273.200 203.200 276.600 203.200 L 280.000 203.200 280.000 200.000 L 280.000 196.800 278.400 196.800 L 276.800 196.800 276.800 195.000 L 276.800 193.200 275.000 193.200 L 273.200 193.200 273.200 191.600 L 273.200 190.000 271.600 190.000 L 270.000 190.000 270.000 188.400 L 270.000 186.800 268.400 186.800 L 266.800 186.800 266.800 185.000 L 266.800 183.200 263.400 183.200 L 260.000 183.200 260.000 181.600 L 260.000 180.000 258.400 180.000 L 256.800 180.000 256.800 183.400 M220.000 203.400 L 220.000 210.000 221.600 210.000 L 223.200 210.000 223.200 218.400 L 223.200 226.800 225.000 226.800 L 226.800 226.800 226.800 231.800 L 226.800 236.800 228.400 236.800 L 230.000 236.800 230.000 233.400 L 230.000 230.000 231.600 230.000 L 233.200 230.000 233.200 216.600 L 233.200 203.200 231.600 203.200 L 230.000 203.200 230.000 201.600 L 230.000 200.000 226.600 200.000 L 223.200 200.000 223.200 198.400 L 223.200 196.800 221.600 196.800 L 220.000 196.800 220.000 203.400 M246.800 213.400 L 246.800 216.800 248.400 216.800 L 250.000 216.800 250.000 218.400 L 250.000 220.000 251.600 220.000 L 253.200 220.000 253.200 216.600 L 253.200 213.200 251.600 213.200 L 250.000 213.200 250.000 211.600 L 250.000 210.000 248.400 210.000 L 246.800 210.000 246.800 213.400 M256.800 216.600 L 256.800 220.000 260.000 220.000 L 263.200 220.000 263.200 221.600 L 263.200 223.200 266.600 223.200 L 270.000 223.200 270.000 226.600 L 270.000 230.000 271.600 230.000 L 273.200 230.000 273.200 225.000 L 273.200 220.000 271.600 220.000 L 270.000 220.000 270.000 218.400 L 270.000 216.800 265.000 216.800 L 260.000 216.800 260.000 215.000 L 260.000 213.200 258.400 213.200 L 256.800 213.200 256.800 216.600 M243.200 236.600 L 243.200 240.000 245.000 240.000 L 246.800 240.000 246.800 241.600 L 246.800 243.200 250.000 243.200 L 253.200 243.200 253.200 240.000 L 253.200 236.800 250.000 236.800 L 246.800 236.800 246.800 235.000 L 246.800 233.200 245.000 233.200 L 243.200 233.200 243.200 236.600 M256.800 243.400 L 256.800 246.800 258.400 246.800 L 260.000 246.800 260.000 248.400 L 260.000 250.000 261.600 250.000 L 263.200 250.000 263.200 253.400 L 263.200 256.800 265.000 256.800 L 266.800 256.800 266.800 251.800 L 266.800 246.800 265.000 246.800 L 263.200 246.800 263.200 245.000 L 263.200 243.200 261.600 243.200 L 260.000 243.200 260.000 241.600 L 260.000 240.000 258.400 240.000 L 256.800 240.000 256.800 243.400 M230.000 328.400 L 230.000 336.800 236.600 336.800 L 243.200 336.800 243.200 338.400 L 243.200 340.000 248.200 340.000 L 253.200 340.000 253.200 338.400 L 253.200 336.800 250.000 336.800 L 246.800 336.800 246.800 335.000 L 246.800 333.200 243.400 333.200 L 240.000 333.200 240.000 331.600 L 240.000 330.000 238.400 330.000 L 236.800 330.000 236.800 326.600 L 236.800 323.200 235.000 323.200 L 233.200 323.200 233.200 321.600 L 233.200 320.000 231.600 320.000 L 230.000 320.000 230.000 328.400 " stroke="none" fill="#bc84c4" fill-rule="evenodd"></path><path id="path4" d="M256.800 143.400 L 256.800 176.800 258.400 176.800 L 260.000 176.800 260.000 175.000 L 260.000 173.200 266.600 173.200 L 273.200 173.200 273.200 175.000 L 273.200 176.800 278.200 176.800 L 283.200 176.800 283.200 171.800 L 283.200 166.800 281.600 166.800 L 280.000 166.800 280.000 160.000 L 280.000 153.200 278.400 153.200 L 276.800 153.200 276.800 148.200 L 276.800 143.200 275.000 143.200 L 273.200 143.200 273.200 138.200 L 273.200 133.200 271.600 133.200 L 270.000 133.200 270.000 130.000 L 270.000 126.800 268.400 126.800 L 266.800 126.800 266.800 123.400 L 266.800 120.000 265.000 120.000 L 263.200 120.000 263.200 116.600 L 263.200 113.200 261.600 113.200 L 260.000 113.200 260.000 111.600 L 260.000 110.000 258.400 110.000 L 256.800 110.000 256.800 143.400 M250.000 123.400 L 250.000 126.800 248.400 126.800 L 246.800 126.800 246.800 131.800 L 246.800 136.800 245.000 136.800 L 243.200 136.800 243.200 138.400 L 243.200 140.000 245.000 140.000 L 246.800 140.000 246.800 143.400 L 246.800 146.800 248.400 146.800 L 250.000 146.800 250.000 148.400 L 250.000 150.000 251.600 150.000 L 253.200 150.000 253.200 135.000 L 253.200 120.000 251.600 120.000 L 250.000 120.000 250.000 123.400 M173.200 145.000 L 173.200 146.800 175.000 146.800 L 176.800 146.800 176.800 148.400 L 176.800 150.000 178.400 150.000 L 180.000 150.000 180.000 146.600 L 180.000 143.200 176.600 143.200 L 173.200 143.200 173.200 145.000 M196.800 145.000 L 196.800 146.800 198.400 146.800 L 200.000 146.800 200.000 148.400 L 200.000 150.000 201.600 150.000 L 203.200 150.000 203.200 146.600 L 203.200 143.200 200.000 143.200 L 196.800 143.200 196.800 145.000 M250.000 155.000 L 250.000 156.800 245.000 156.800 L 240.000 156.800 240.000 158.400 L 240.000 160.000 238.400 160.000 L 236.800 160.000 236.800 161.600 L 236.800 163.200 238.400 163.200 L 240.000 163.200 240.000 165.000 L 240.000 166.800 241.600 166.800 L 243.200 166.800 243.200 168.400 L 243.200 170.000 245.000 170.000 L 246.800 170.000 246.800 171.600 L 246.800 173.200 248.400 173.200 L 250.000 173.200 250.000 175.000 L 250.000 176.800 248.400 176.800 L 246.800 176.800 246.800 178.400 L 246.800 180.000 240.000 180.000 L 233.200 180.000 233.200 183.400 L 233.200 186.800 235.000 186.800 L 236.800 186.800 236.800 188.400 L 236.800 190.000 240.000 190.000 L 243.200 190.000 243.200 191.600 L 243.200 193.200 245.000 193.200 L 246.800 193.200 246.800 195.000 L 246.800 196.800 245.000 196.800 L 243.200 196.800 243.200 198.400 L 243.200 200.000 240.000 200.000 L 236.800 200.000 236.800 201.600 L 236.800 203.200 235.000 203.200 L 233.200 203.200 233.200 216.600 L 233.200 230.000 231.600 230.000 L 230.000 230.000 230.000 238.400 L 230.000 246.800 231.600 246.800 L 233.200 246.800 233.200 250.000 L 233.200 253.200 235.000 253.200 L 236.800 253.200 236.800 256.600 L 236.800 260.000 238.400 260.000 L 240.000 260.000 240.000 263.400 L 240.000 266.800 241.600 266.800 L 243.200 266.800 243.200 270.000 L 243.200 273.200 245.000 273.200 L 246.800 273.200 246.800 271.600 L 246.800 270.000 250.000 270.000 L 253.200 270.000 253.200 256.600 L 253.200 243.200 250.000 243.200 L 246.800 243.200 246.800 241.600 L 246.800 240.000 245.000 240.000 L 243.200 240.000 243.200 235.000 L 243.200 230.000 245.000 230.000 L 246.800 230.000 246.800 228.400 L 246.800 226.800 250.000 226.800 L 253.200 226.800 253.200 223.400 L 253.200 220.000 251.600 220.000 L 250.000 220.000 250.000 218.400 L 250.000 216.800 248.400 216.800 L 246.800 216.800 246.800 211.800 L 246.800 206.800 248.400 206.800 L 250.000 206.800 250.000 205.000 L 250.000 203.200 251.600 203.200 L 253.200 203.200 253.200 178.200 L 253.200 153.200 251.600 153.200 L 250.000 153.200 250.000 155.000 M156.800 171.600 L 156.800 173.200 158.400 173.200 L 160.000 173.200 160.000 171.600 L 160.000 170.000 158.400 170.000 L 156.800 170.000 156.800 171.600 M213.200 171.600 L 213.200 173.200 211.600 173.200 L 210.000 173.200 210.000 175.000 L 210.000 176.800 211.600 176.800 L 213.200 176.800 213.200 175.000 L 213.200 173.200 215.000 173.200 L 216.800 173.200 216.800 171.600 L 216.800 170.000 215.000 170.000 L 213.200 170.000 213.200 171.600 M166.800 175.000 L 166.800 176.800 168.400 176.800 L 170.000 176.800 170.000 175.000 L 170.000 173.200 168.400 173.200 L 166.800 173.200 166.800 175.000 M176.800 178.400 L 176.800 180.000 178.400 180.000 L 180.000 180.000 180.000 178.400 L 180.000 176.800 178.400 176.800 L 176.800 176.800 176.800 178.400 M183.200 178.400 L 183.200 180.000 185.000 180.000 L 186.800 180.000 186.800 178.400 L 186.800 176.800 185.000 176.800 L 183.200 176.800 183.200 178.400 M190.000 178.400 L 190.000 180.000 191.600 180.000 L 193.200 180.000 193.200 178.400 L 193.200 176.800 191.600 176.800 L 190.000 176.800 190.000 178.400 M196.800 178.400 L 196.800 180.000 198.400 180.000 L 200.000 180.000 200.000 178.400 L 200.000 176.800 198.400 176.800 L 196.800 176.800 196.800 178.400 M203.200 178.400 L 203.200 180.000 205.000 180.000 L 206.800 180.000 206.800 178.400 L 206.800 176.800 205.000 176.800 L 203.200 176.800 203.200 178.400 M256.800 193.400 L 256.800 200.000 261.800 200.000 L 266.800 200.000 266.800 201.600 L 266.800 203.200 270.000 203.200 L 273.200 203.200 273.200 201.600 L 273.200 200.000 271.600 200.000 L 270.000 200.000 270.000 198.400 L 270.000 196.800 268.400 196.800 L 266.800 196.800 266.800 195.000 L 266.800 193.200 265.000 193.200 L 263.200 193.200 263.200 191.600 L 263.200 190.000 261.600 190.000 L 260.000 190.000 260.000 188.400 L 260.000 186.800 258.400 186.800 L 256.800 186.800 256.800 193.400 M206.800 191.600 L 206.800 193.200 205.000 193.200 L 203.200 193.200 203.200 196.600 L 203.200 200.000 208.200 200.000 L 213.200 200.000 213.200 203.400 L 213.200 206.800 215.000 206.800 L 216.800 206.800 216.800 203.400 L 216.800 200.000 215.000 200.000 L 213.200 200.000 213.200 195.000 L 213.200 190.000 210.000 190.000 L 206.800 190.000 206.800 191.600 M163.200 198.400 L 163.200 200.000 161.600 200.000 L 160.000 200.000 160.000 203.400 L 160.000 206.800 161.600 206.800 L 163.200 206.800 163.200 208.400 L 163.200 210.000 160.000 210.000 L 156.800 210.000 156.800 213.400 L 156.800 216.800 158.400 216.800 L 160.000 216.800 160.000 218.400 L 160.000 220.000 161.600 220.000 L 163.200 220.000 163.200 215.000 L 163.200 210.000 165.000 210.000 L 166.800 210.000 166.800 213.400 L 166.800 216.800 168.400 216.800 L 170.000 216.800 170.000 218.400 L 170.000 220.000 171.600 220.000 L 173.200 220.000 173.200 218.400 L 173.200 216.800 175.000 216.800 L 176.800 216.800 176.800 213.400 L 176.800 210.000 171.800 210.000 L 166.800 210.000 166.800 208.400 L 166.800 206.800 168.400 206.800 L 170.000 206.800 170.000 203.400 L 170.000 200.000 168.400 200.000 L 166.800 200.000 166.800 198.400 L 166.800 196.800 165.000 196.800 L 163.200 196.800 163.200 198.400 M180.000 198.400 L 180.000 200.000 178.400 200.000 L 176.800 200.000 176.800 203.400 L 176.800 206.800 181.800 206.800 L 186.800 206.800 186.800 208.400 L 186.800 210.000 185.000 210.000 L 183.200 210.000 183.200 213.400 L 183.200 216.800 185.000 216.800 L 186.800 216.800 186.800 218.400 L 186.800 220.000 188.400 220.000 L 190.000 220.000 190.000 218.400 L 190.000 216.800 191.600 216.800 L 193.200 216.800 193.200 215.000 L 193.200 213.200 191.600 213.200 L 190.000 213.200 190.000 210.000 L 190.000 206.800 193.400 206.800 L 196.800 206.800 196.800 201.800 L 196.800 196.800 195.000 196.800 L 193.200 196.800 193.200 198.400 L 193.200 200.000 191.600 200.000 L 190.000 200.000 190.000 203.400 L 190.000 206.800 188.400 206.800 L 186.800 206.800 186.800 203.400 L 186.800 200.000 185.000 200.000 L 183.200 200.000 183.200 198.400 L 183.200 196.800 181.600 196.800 L 180.000 196.800 180.000 198.400 M203.200 215.000 L 203.200 220.000 206.600 220.000 L 210.000 220.000 210.000 218.400 L 210.000 216.800 211.600 216.800 L 213.200 216.800 213.200 215.000 L 213.200 213.200 211.600 213.200 L 210.000 213.200 210.000 211.600 L 210.000 210.000 206.600 210.000 L 203.200 210.000 203.200 215.000 M256.800 223.400 L 256.800 226.800 260.000 226.800 L 263.200 226.800 263.200 228.400 L 263.200 230.000 266.600 230.000 L 270.000 230.000 270.000 226.600 L 270.000 223.200 266.600 223.200 L 263.200 223.200 263.200 221.600 L 263.200 220.000 260.000 220.000 L 256.800 220.000 256.800 223.400 M186.800 225.000 L 186.800 226.800 185.000 226.800 L 183.200 226.800 183.200 230.000 L 183.200 233.200 185.000 233.200 L 186.800 233.200 186.800 235.000 L 186.800 236.800 183.400 236.800 L 180.000 236.800 180.000 238.400 L 180.000 240.000 178.400 240.000 L 176.800 240.000 176.800 241.600 L 176.800 243.200 178.400 243.200 L 180.000 243.200 180.000 245.000 L 180.000 246.800 181.600 246.800 L 183.200 246.800 183.200 245.000 L 183.200 243.200 185.000 243.200 L 186.800 243.200 186.800 240.000 L 186.800 236.800 188.400 236.800 L 190.000 236.800 190.000 238.400 L 190.000 240.000 191.600 240.000 L 193.200 240.000 193.200 243.400 L 193.200 246.800 195.000 246.800 L 196.800 246.800 196.800 245.000 L 196.800 243.200 198.400 243.200 L 200.000 243.200 200.000 241.600 L 200.000 240.000 198.400 240.000 L 196.800 240.000 196.800 238.400 L 196.800 236.800 193.400 236.800 L 190.000 236.800 190.000 235.000 L 190.000 233.200 191.600 233.200 L 193.200 233.200 193.200 230.000 L 193.200 226.800 191.600 226.800 L 190.000 226.800 190.000 225.000 L 190.000 223.200 188.400 223.200 L 186.800 223.200 186.800 225.000 M213.200 225.000 L 213.200 226.800 211.600 226.800 L 210.000 226.800 210.000 230.000 L 210.000 233.200 211.600 233.200 L 213.200 233.200 213.200 235.000 L 213.200 236.800 211.600 236.800 L 210.000 236.800 210.000 240.000 L 210.000 243.200 211.600 243.200 L 213.200 243.200 213.200 240.000 L 213.200 236.800 215.000 236.800 L 216.800 236.800 216.800 240.000 L 216.800 243.200 218.400 243.200 L 220.000 243.200 220.000 245.000 L 220.000 246.800 221.600 246.800 L 223.200 246.800 223.200 245.000 L 223.200 243.200 225.000 243.200 L 226.800 243.200 226.800 240.000 L 226.800 236.800 221.800 236.800 L 216.800 236.800 216.800 235.000 L 216.800 233.200 218.400 233.200 L 220.000 233.200 220.000 230.000 L 220.000 226.800 218.400 226.800 L 216.800 226.800 216.800 225.000 L 216.800 223.200 215.000 223.200 L 213.200 223.200 213.200 225.000 M203.200 248.400 L 203.200 250.000 201.600 250.000 L 200.000 250.000 200.000 251.600 L 200.000 253.200 201.600 253.200 L 203.200 253.200 203.200 255.000 L 203.200 256.800 206.600 256.800 L 210.000 256.800 210.000 251.800 L 210.000 246.800 206.600 246.800 L 203.200 246.800 203.200 248.400 M256.800 256.800 L 256.800 266.800 258.400 266.800 L 260.000 266.800 260.000 265.000 L 260.000 263.200 261.600 263.200 L 263.200 263.200 263.200 256.600 L 263.200 250.000 261.600 250.000 L 260.000 250.000 260.000 248.400 L 260.000 246.800 258.400 246.800 L 256.800 246.800 256.800 256.800 M223.200 251.600 L 223.200 253.200 221.600 253.200 L 220.000 253.200 220.000 256.600 L 220.000 260.000 223.400 260.000 L 226.800 260.000 226.800 258.400 L 226.800 256.800 228.400 256.800 L 230.000 256.800 230.000 255.000 L 230.000 253.200 228.400 253.200 L 226.800 253.200 226.800 251.600 L 226.800 250.000 225.000 250.000 L 223.200 250.000 223.200 251.600 M196.800 263.400 L 196.800 266.800 200.000 266.800 L 203.200 266.800 203.200 263.400 L 203.200 260.000 200.000 260.000 L 196.800 260.000 196.800 263.400 M170.400 351.600 L 170.400 353.200 187.000 353.200 L 203.600 353.200 203.600 351.600 L 203.600 350.000 187.000 350.000 L 170.400 350.000 170.400 351.600 M213.600 351.600 L 213.600 353.200 227.000 353.200 L 240.400 353.200 240.400 351.600 L 240.400 350.000 227.000 350.000 L 213.600 350.000 213.600 351.600 " stroke="none" fill="#d5a6dc" fill-rule="evenodd"></path><path id="path5" d="M186.800 51.600 L 186.800 53.200 185.000 53.200 L 183.200 53.200 183.200 55.000 L 183.200 56.800 181.600 56.800 L 180.000 56.800 180.000 61.800 L 180.000 66.800 181.600 66.800 L 183.200 66.800 183.200 68.400 L 183.200 70.000 185.000 70.000 L 186.800 70.000 186.800 83.400 L 186.800 96.800 185.000 96.800 L 183.200 96.800 183.200 98.400 L 183.200 100.000 181.600 100.000 L 180.000 100.000 180.000 101.600 L 180.000 103.200 178.400 103.200 L 176.800 103.200 176.800 105.000 L 176.800 106.800 175.000 106.800 L 173.200 106.800 173.200 108.400 L 173.200 110.000 171.600 110.000 L 170.000 110.000 170.000 111.600 L 170.000 113.200 168.400 113.200 L 166.800 113.200 166.800 116.600 L 166.800 120.000 165.000 120.000 L 163.200 120.000 163.200 123.400 L 163.200 126.800 161.600 126.800 L 160.000 126.800 160.000 131.800 L 160.000 136.800 158.400 136.800 L 156.800 136.800 156.800 146.800 L 156.800 156.800 155.000 156.800 L 153.200 156.800 153.200 178.400 L 153.200 200.000 151.600 200.000 L 150.000 200.000 150.000 205.000 L 150.000 210.000 148.200 210.000 L 146.400 210.000 146.400 215.000 L 146.400 220.000 149.800 220.000 L 153.200 220.000 153.200 225.000 L 153.200 230.000 155.000 230.000 L 156.800 230.000 156.800 235.000 L 156.800 240.000 158.400 240.000 L 160.000 240.000 160.000 245.000 L 160.000 250.000 161.600 250.000 L 163.200 250.000 163.200 255.000 L 163.200 260.000 165.000 260.000 L 166.800 260.000 166.800 263.400 L 166.800 266.800 168.400 266.800 L 170.000 266.800 170.000 268.400 L 170.000 270.000 171.600 270.000 L 173.200 270.000 173.200 271.600 L 173.200 273.200 175.000 273.200 L 176.800 273.200 176.800 276.600 L 176.800 280.000 178.400 280.000 L 180.000 280.000 180.000 283.400 L 180.000 286.800 181.600 286.800 L 183.200 286.800 183.200 288.400 L 183.200 290.000 185.000 290.000 L 186.800 290.000 186.800 303.400 L 186.800 316.800 185.000 316.800 L 183.200 316.800 183.200 323.400 L 183.200 330.000 181.600 330.000 L 180.000 330.000 180.000 335.000 L 180.000 340.000 178.200 340.000 L 176.400 340.000 176.400 343.400 L 176.400 346.800 171.600 346.800 L 166.800 346.800 166.800 350.000 L 166.800 353.200 168.600 353.200 L 170.400 353.200 170.400 355.000 L 170.400 356.800 187.000 356.800 L 203.600 356.800 203.600 355.000 L 203.600 353.200 205.457 353.200 L 207.314 353.200 207.057 350.741 C 206.916 349.389,206.800 347.949,206.800 347.541 C 206.800 346.929,206.486 346.800,205.000 346.800 L 203.200 346.800 203.200 345.000 C 203.200 343.210,203.193 343.200,201.800 343.200 C 200.407 343.200,200.400 343.210,200.400 345.000 L 200.400 346.800 197.000 346.800 L 193.600 346.800 193.600 345.000 L 193.600 343.200 196.800 343.200 L 200.000 343.200 200.000 341.600 L 200.000 340.000 198.400 340.000 L 196.800 340.000 196.800 338.400 L 196.800 336.800 195.200 336.800 L 193.600 336.800 193.600 338.400 L 193.600 340.000 192.000 340.000 L 190.400 340.000 190.400 341.600 L 190.400 343.200 188.800 343.200 L 187.200 343.200 187.200 345.000 L 187.200 346.800 183.800 346.800 L 180.400 346.800 180.400 343.400 L 180.400 340.000 182.000 340.000 L 183.600 340.000 183.600 335.000 L 183.600 330.000 185.400 330.000 L 187.200 330.000 187.200 323.400 L 187.200 316.800 188.800 316.800 L 190.400 316.800 190.400 300.000 L 190.400 283.200 188.600 283.200 L 186.800 283.200 186.800 285.000 L 186.800 286.800 185.000 286.800 L 183.200 286.800 183.200 283.400 L 183.200 280.000 181.600 280.000 L 180.000 280.000 180.000 278.400 L 180.000 276.800 185.000 276.800 L 190.000 276.800 190.000 275.000 L 190.000 273.200 195.000 273.200 L 200.000 273.200 200.000 271.600 L 200.000 270.000 201.600 270.000 L 203.200 270.000 203.200 268.400 L 203.200 266.800 206.600 266.800 L 210.000 266.800 210.000 265.000 L 210.000 263.200 211.600 263.200 L 213.200 263.200 213.200 261.600 L 213.200 260.000 215.000 260.000 L 216.800 260.000 216.800 261.600 L 216.800 263.200 221.800 263.200 L 226.800 263.200 226.800 261.600 L 226.800 260.000 230.000 260.000 L 233.200 260.000 233.200 261.600 L 233.200 263.200 235.000 263.200 L 236.800 263.200 236.800 265.000 L 236.800 266.800 238.400 266.800 L 240.000 266.800 240.000 270.000 L 240.000 273.200 241.600 273.200 L 243.200 273.200 243.200 275.000 L 243.200 276.800 245.000 276.800 L 246.800 276.800 246.800 278.400 L 246.800 280.000 248.400 280.000 L 250.000 280.000 250.000 281.600 L 250.000 283.200 251.600 283.200 L 253.200 283.200 253.200 285.000 L 253.200 286.800 255.000 286.800 L 256.800 286.800 256.800 288.400 L 256.800 290.000 258.400 290.000 L 260.000 290.000 260.000 291.600 L 260.000 293.200 261.600 293.200 L 263.200 293.200 263.200 295.000 L 263.200 296.800 265.000 296.800 L 266.800 296.800 266.800 298.400 L 266.800 300.000 268.400 300.000 L 270.000 300.000 270.000 301.600 L 270.000 303.200 271.600 303.200 L 273.200 303.200 273.200 305.000 L 273.200 306.800 275.000 306.800 L 276.800 306.800 276.800 311.800 L 276.800 316.800 275.000 316.800 L 273.200 316.800 273.200 318.400 L 273.200 320.000 268.200 320.000 L 263.200 320.000 263.200 321.600 L 263.200 323.200 256.600 323.200 L 250.000 323.200 250.000 321.600 L 250.000 320.000 241.600 320.000 L 233.200 320.000 233.200 318.400 L 233.200 316.800 228.400 316.800 L 223.600 316.800 223.600 318.400 L 223.600 320.000 225.400 320.000 L 227.200 320.000 227.200 321.600 L 227.200 323.200 225.400 323.200 L 223.600 323.200 223.600 330.000 L 223.600 336.800 225.400 336.800 L 227.200 336.800 227.200 338.400 L 227.200 340.000 225.400 340.000 L 223.600 340.000 223.600 341.600 L 223.600 343.200 222.000 343.200 L 220.400 343.200 220.400 345.000 L 220.400 346.800 217.000 346.800 L 213.600 346.800 213.600 343.400 L 213.600 340.000 215.400 340.000 L 217.200 340.000 217.200 335.000 L 217.200 330.000 218.800 330.000 L 220.400 330.000 220.400 323.400 L 220.400 316.800 221.800 316.800 C 223.193 316.800,223.200 316.790,223.200 315.000 L 223.200 313.200 220.000 313.200 L 216.800 313.200 216.800 311.600 L 216.800 310.000 213.400 310.000 L 210.000 310.000 210.000 308.400 L 210.000 306.800 206.800 306.800 L 203.600 306.800 203.600 308.400 L 203.600 310.000 206.800 310.000 L 210.000 310.000 210.000 311.600 L 210.000 313.200 213.400 313.200 L 216.800 313.200 216.800 321.600 L 216.800 330.000 215.000 330.000 L 213.200 330.000 213.200 335.000 L 213.200 340.000 211.600 340.000 L 210.000 340.000 210.000 341.737 C 210.000 342.693,210.118 345.663,210.261 348.337 L 210.523 353.200 212.061 353.200 L 213.600 353.200 213.600 355.000 L 213.600 356.800 227.000 356.800 L 240.400 356.800 240.400 355.000 L 240.400 353.200 242.200 353.200 L 244.000 353.200 244.000 350.000 L 244.000 346.800 242.000 346.800 L 240.000 346.800 240.000 345.000 L 240.000 343.200 236.800 343.200 L 233.600 343.200 233.600 345.000 L 233.600 346.800 230.400 346.800 L 227.200 346.800 227.200 345.000 L 227.200 343.200 230.200 343.200 L 233.200 343.200 233.200 341.600 L 233.200 340.000 238.200 340.000 L 243.200 340.000 243.200 341.600 L 243.200 343.200 255.000 343.200 L 266.800 343.200 266.800 341.600 L 266.800 340.000 273.400 340.000 L 280.000 340.000 280.000 338.400 L 280.000 336.800 281.600 336.800 L 283.200 336.800 283.200 331.800 L 283.200 326.800 285.000 326.800 L 286.800 326.800 286.800 320.000 L 286.800 313.200 288.400 313.200 L 290.000 313.200 290.000 305.000 L 290.000 296.800 291.600 296.800 L 293.200 296.800 293.200 281.800 L 293.200 266.800 295.000 266.800 L 296.800 266.800 296.800 236.800 L 296.800 206.800 295.000 206.800 L 293.200 206.800 293.200 193.400 L 293.200 180.000 291.600 180.000 L 290.000 180.000 290.000 173.400 L 290.000 166.800 288.400 166.800 L 286.800 166.800 286.800 160.000 L 286.800 153.200 285.000 153.200 L 283.200 153.200 283.200 148.200 L 283.200 143.200 281.600 143.200 L 280.000 143.200 280.000 138.200 L 280.000 133.200 278.400 133.200 L 276.800 133.200 276.800 130.000 L 276.800 126.800 275.000 126.800 L 273.200 126.800 273.200 123.400 L 273.200 120.000 271.600 120.000 L 270.000 120.000 270.000 116.600 L 270.000 113.200 268.400 113.200 L 266.800 113.200 266.800 111.600 L 266.800 110.000 265.000 110.000 L 263.200 110.000 263.200 108.400 L 263.200 106.800 261.600 106.800 L 260.000 106.800 260.000 105.000 L 260.000 103.200 258.400 103.200 L 256.800 103.200 256.800 101.600 L 256.800 100.000 255.000 100.000 L 253.200 100.000 253.200 101.600 L 253.200 103.200 251.600 103.200 L 250.000 103.200 250.000 105.000 L 250.000 106.800 248.400 106.800 L 246.800 106.800 246.800 108.400 L 246.800 110.000 245.000 110.000 L 243.200 110.000 243.200 111.600 L 243.200 113.200 241.600 113.200 L 240.000 113.200 240.000 116.600 L 240.000 120.000 238.400 120.000 L 236.800 120.000 236.800 123.400 L 236.800 126.800 235.000 126.800 L 233.200 126.800 233.200 130.000 L 233.200 133.200 231.600 133.200 L 230.000 133.200 230.000 138.200 L 230.000 143.200 228.400 143.200 L 226.800 143.200 226.800 148.200 L 226.800 153.200 225.000 153.200 L 223.200 153.200 223.200 160.000 L 223.200 166.800 221.600 166.800 L 220.000 166.800 220.000 151.800 L 220.000 136.800 218.400 136.800 L 216.800 136.800 216.800 131.800 L 216.800 126.800 215.000 126.800 L 213.200 126.800 213.200 121.800 L 213.200 116.800 211.600 116.800 L 210.000 116.800 210.000 113.400 L 210.000 110.000 208.400 110.000 L 206.800 110.000 206.800 106.600 L 206.800 103.200 205.000 103.200 L 203.200 103.200 203.200 101.600 L 203.200 100.000 201.600 100.000 L 200.000 100.000 200.000 98.400 L 200.000 96.800 198.400 96.800 L 196.800 96.800 196.800 83.400 L 196.800 70.000 198.400 70.000 L 200.000 70.000 200.000 61.600 L 200.000 53.200 198.400 53.200 L 196.800 53.200 196.800 51.600 L 196.800 50.000 191.800 50.000 L 186.800 50.000 186.800 51.600 M196.800 61.600 L 196.800 70.000 195.000 70.000 L 193.200 70.000 193.200 83.400 L 193.200 96.800 195.000 96.800 L 196.800 96.800 196.800 98.400 L 196.800 100.000 198.400 100.000 L 200.000 100.000 200.000 101.600 L 200.000 103.200 201.600 103.200 L 203.200 103.200 203.200 106.600 L 203.200 110.000 205.000 110.000 L 206.800 110.000 206.800 113.400 L 206.800 116.800 208.400 116.800 L 210.000 116.800 210.000 121.800 L 210.000 126.800 211.600 126.800 L 213.200 126.800 213.200 131.800 L 213.200 136.800 215.000 136.800 L 216.800 136.800 216.800 138.400 L 216.800 140.000 206.800 140.000 L 196.800 140.000 196.800 141.600 L 196.800 143.200 200.000 143.200 L 203.200 143.200 203.200 148.400 L 203.200 153.600 208.200 153.600 L 213.200 153.600 213.200 148.400 L 213.200 143.200 215.000 143.200 L 216.800 143.200 216.800 154.800 L 216.800 166.400 215.000 166.400 L 213.200 166.400 213.200 168.200 L 213.200 170.000 215.000 170.000 L 216.800 170.000 216.800 171.600 L 216.800 173.200 215.000 173.200 L 213.200 173.200 213.200 175.000 L 213.200 176.800 215.000 176.800 L 216.800 176.800 216.800 178.400 L 216.800 180.000 215.000 180.000 L 213.200 180.000 213.200 178.400 L 213.200 176.800 211.600 176.800 L 210.000 176.800 210.000 175.000 L 210.000 173.200 191.600 173.200 L 173.200 173.200 173.200 171.600 L 173.200 170.000 168.200 170.000 L 163.200 170.000 163.200 168.200 L 163.200 166.400 160.000 166.400 L 156.800 166.400 156.800 161.600 L 156.800 156.800 158.400 156.800 L 160.000 156.800 160.000 146.800 L 160.000 136.800 161.600 136.800 L 163.200 136.800 163.200 131.800 L 163.200 126.800 165.000 126.800 L 166.800 126.800 166.800 123.400 L 166.800 120.000 168.400 120.000 L 170.000 120.000 170.000 116.600 L 170.000 113.200 171.600 113.200 L 173.200 113.200 173.200 111.600 L 173.200 110.000 175.000 110.000 L 176.800 110.000 176.800 108.400 L 176.800 106.800 178.400 106.800 L 180.000 106.800 180.000 105.000 L 180.000 103.200 181.600 103.200 L 183.200 103.200 183.200 101.600 L 183.200 100.000 185.000 100.000 L 186.800 100.000 186.800 98.400 L 186.800 96.800 188.400 96.800 L 190.000 96.800 190.000 83.400 L 190.000 70.000 188.400 70.000 L 186.800 70.000 186.800 68.400 L 186.800 66.800 185.000 66.800 L 183.200 66.800 183.200 61.800 L 183.200 56.800 185.000 56.800 L 186.800 56.800 186.800 55.000 L 186.800 53.200 191.800 53.200 L 196.800 53.200 196.800 61.600 M256.800 105.000 L 256.800 106.800 258.400 106.800 L 260.000 106.800 260.000 108.400 L 260.000 110.000 261.600 110.000 L 263.200 110.000 263.200 111.600 L 263.200 113.200 265.000 113.200 L 266.800 113.200 266.800 116.600 L 266.800 120.000 268.400 120.000 L 270.000 120.000 270.000 123.400 L 270.000 126.800 271.600 126.800 L 273.200 126.800 273.200 130.000 L 273.200 133.200 275.000 133.200 L 276.800 133.200 276.800 138.200 L 276.800 143.200 278.400 143.200 L 280.000 143.200 280.000 148.200 L 280.000 153.200 281.600 153.200 L 283.200 153.200 283.200 160.000 L 283.200 166.800 285.000 166.800 L 286.800 166.800 286.800 173.400 L 286.800 180.000 285.000 180.000 L 283.200 180.000 283.200 181.600 L 283.200 183.200 286.600 183.200 L 290.000 183.200 290.000 195.000 L 290.000 206.800 291.600 206.800 L 293.200 206.800 293.200 236.800 L 293.200 266.800 291.600 266.800 L 290.000 266.800 290.000 281.800 L 290.000 296.800 288.400 296.800 L 286.800 296.800 286.800 305.000 L 286.800 313.200 285.000 313.200 L 283.200 313.200 283.200 320.000 L 283.200 326.800 281.600 326.800 L 280.000 326.800 280.000 331.800 L 280.000 336.800 273.400 336.800 L 266.800 336.800 266.800 338.400 L 266.800 340.000 263.400 340.000 L 260.000 340.000 260.000 338.400 L 260.000 336.800 256.600 336.800 L 253.200 336.800 253.200 338.400 L 253.200 340.000 248.200 340.000 L 243.200 340.000 243.200 338.400 L 243.200 336.800 236.600 336.800 L 230.000 336.800 230.000 328.400 L 230.000 320.000 231.600 320.000 L 233.200 320.000 233.200 321.600 L 233.200 323.200 235.000 323.200 L 236.800 323.200 236.800 326.600 L 236.800 330.000 238.400 330.000 L 240.000 330.000 240.000 326.600 L 240.000 323.200 245.000 323.200 L 250.000 323.200 250.000 325.000 L 250.000 326.800 256.600 326.800 L 263.200 326.800 263.200 325.000 L 263.200 323.200 268.200 323.200 L 273.200 323.200 273.200 321.600 L 273.200 320.000 275.000 320.000 L 276.800 320.000 276.800 318.400 L 276.800 316.800 278.400 316.800 L 280.000 316.800 280.000 311.800 L 280.000 306.800 278.400 306.800 L 276.800 306.800 276.800 305.000 L 276.800 303.200 275.000 303.200 L 273.200 303.200 273.200 301.600 L 273.200 300.000 271.600 300.000 L 270.000 300.000 270.000 298.400 L 270.000 296.800 268.400 296.800 L 266.800 296.800 266.800 295.000 L 266.800 293.200 265.000 293.200 L 263.200 293.200 263.200 291.600 L 263.200 290.000 261.600 290.000 L 260.000 290.000 260.000 288.400 L 260.000 286.800 258.400 286.800 L 256.800 286.800 256.800 285.000 L 256.800 283.200 255.000 283.200 L 253.200 283.200 253.200 281.600 L 253.200 280.000 251.600 280.000 L 250.000 280.000 250.000 278.400 L 250.000 276.800 248.400 276.800 L 246.800 276.800 246.800 275.000 L 246.800 273.200 245.000 273.200 L 243.200 273.200 243.200 270.000 L 243.200 266.800 241.600 266.800 L 240.000 266.800 240.000 263.400 L 240.000 260.000 238.400 260.000 L 236.800 260.000 236.800 256.600 L 236.800 253.200 235.000 253.200 L 233.200 253.200 233.200 255.000 L 233.200 256.800 230.000 256.800 L 226.800 256.800 226.800 258.400 L 226.800 260.000 221.800 260.000 L 216.800 260.000 216.800 256.600 L 216.800 253.200 215.000 253.200 L 213.200 253.200 213.200 256.600 L 213.200 260.000 211.600 260.000 L 210.000 260.000 210.000 261.600 L 210.000 263.200 206.600 263.200 L 203.200 263.200 203.200 265.000 L 203.200 266.800 200.000 266.800 L 196.800 266.800 196.800 268.400 L 196.800 270.000 193.400 270.000 L 190.000 270.000 190.000 271.600 L 190.000 273.200 186.600 273.200 L 183.200 273.200 183.200 271.600 L 183.200 270.000 180.000 270.000 L 176.800 270.000 176.800 265.000 L 176.800 260.000 175.000 260.000 L 173.200 260.000 173.200 263.400 L 173.200 266.800 171.600 266.800 L 170.000 266.800 170.000 263.400 L 170.000 260.000 168.400 260.000 L 166.800 260.000 166.800 258.400 L 166.800 256.800 168.400 256.800 L 170.000 256.800 170.000 255.000 L 170.000 253.200 168.400 253.200 L 166.800 253.200 166.800 250.000 L 166.800 246.800 165.000 246.800 L 163.200 246.800 163.200 243.400 L 163.200 240.000 161.600 240.000 L 160.000 240.000 160.000 235.000 L 160.000 230.000 158.400 230.000 L 156.800 230.000 156.800 226.600 L 156.800 223.200 160.000 223.200 L 163.200 223.200 163.200 226.600 L 163.200 230.000 165.000 230.000 L 166.800 230.000 166.800 226.600 L 166.800 223.200 171.800 223.200 L 176.800 223.200 176.800 221.600 L 176.800 220.000 166.800 220.000 L 156.800 220.000 156.800 218.400 L 156.800 216.800 153.400 216.800 L 150.000 216.800 150.000 213.400 L 150.000 210.000 151.600 210.000 L 153.200 210.000 153.200 205.000 L 153.200 200.000 155.000 200.000 L 156.800 200.000 156.800 198.400 L 156.800 196.800 158.400 196.800 L 160.000 196.800 160.000 195.000 L 160.000 193.200 158.400 193.200 L 156.800 193.200 156.800 188.200 L 156.800 183.200 161.800 183.200 L 166.800 183.200 166.800 181.600 L 166.800 180.000 170.000 180.000 L 173.200 180.000 173.200 181.600 L 173.200 183.200 170.000 183.200 L 166.800 183.200 166.800 185.000 L 166.800 186.800 171.800 186.800 L 176.800 186.800 176.800 185.200 L 176.800 183.600 191.800 183.600 L 206.800 183.600 206.800 185.200 L 206.800 186.800 210.000 186.800 L 213.200 186.800 213.200 185.000 L 213.200 183.200 215.000 183.200 L 216.800 183.200 216.800 196.600 L 216.800 210.000 218.400 210.000 L 220.000 210.000 220.000 203.400 L 220.000 196.800 221.600 196.800 L 223.200 196.800 223.200 195.000 L 223.200 193.200 221.600 193.200 L 220.000 193.200 220.000 186.600 L 220.000 180.000 221.600 180.000 L 223.200 180.000 223.200 176.600 L 223.200 173.200 226.600 173.200 L 230.000 173.200 230.000 171.600 L 230.000 170.000 226.600 170.000 L 223.200 170.000 223.200 168.400 L 223.200 166.800 225.000 166.800 L 226.800 166.800 226.800 165.000 L 226.800 163.200 230.000 163.200 L 233.200 163.200 233.200 161.600 L 233.200 160.000 230.000 160.000 L 226.800 160.000 226.800 156.600 L 226.800 153.200 228.400 153.200 L 230.000 153.200 230.000 150.000 L 230.000 146.800 231.600 146.800 L 233.200 146.800 233.200 140.000 L 233.200 133.200 235.000 133.200 L 236.800 133.200 236.800 130.000 L 236.800 126.800 238.400 126.800 L 240.000 126.800 240.000 123.400 L 240.000 120.000 241.600 120.000 L 243.200 120.000 243.200 116.600 L 243.200 113.200 245.000 113.200 L 246.800 113.200 246.800 111.600 L 246.800 110.000 248.400 110.000 L 250.000 110.000 250.000 108.400 L 250.000 106.800 251.600 106.800 L 253.200 106.800 253.200 105.000 L 253.200 103.200 255.000 103.200 L 256.800 103.200 256.800 105.000 M253.200 131.600 L 253.200 150.000 251.600 150.000 L 250.000 150.000 250.000 148.400 L 250.000 146.800 248.400 146.800 L 246.800 146.800 246.800 143.400 L 246.800 140.000 245.000 140.000 L 243.200 140.000 243.200 138.400 L 243.200 136.800 241.600 136.800 L 240.000 136.800 240.000 135.000 L 240.000 133.200 238.400 133.200 L 236.800 133.200 236.800 135.000 L 236.800 136.800 238.400 136.800 L 240.000 136.800 240.000 138.400 L 240.000 140.000 241.600 140.000 L 243.200 140.000 243.200 143.400 L 243.200 146.800 245.000 146.800 L 246.800 146.800 246.800 148.400 L 246.800 150.000 248.400 150.000 L 250.000 150.000 250.000 151.600 L 250.000 153.200 245.000 153.200 L 240.000 153.200 240.000 151.600 L 240.000 150.000 238.400 150.000 L 236.800 150.000 236.800 148.400 L 236.800 146.800 235.000 146.800 L 233.200 146.800 233.200 148.400 L 233.200 150.000 235.000 150.000 L 236.800 150.000 236.800 151.600 L 236.800 153.200 238.400 153.200 L 240.000 153.200 240.000 155.000 L 240.000 156.800 245.000 156.800 L 250.000 156.800 250.000 155.000 L 250.000 153.200 251.600 153.200 L 253.200 153.200 253.200 178.200 L 253.200 203.200 251.600 203.200 L 250.000 203.200 250.000 205.000 L 250.000 206.800 248.400 206.800 L 246.800 206.800 246.800 208.400 L 246.800 210.000 248.400 210.000 L 250.000 210.000 250.000 211.600 L 250.000 213.200 251.600 213.200 L 253.200 213.200 253.200 220.000 L 253.200 226.800 250.000 226.800 L 246.800 226.800 246.800 228.400 L 246.800 230.000 245.000 230.000 L 243.200 230.000 243.200 231.600 L 243.200 233.200 245.000 233.200 L 246.800 233.200 246.800 235.000 L 246.800 236.800 250.000 236.800 L 253.200 236.800 253.200 253.400 L 253.200 270.000 250.000 270.000 L 246.800 270.000 246.800 271.600 L 246.800 273.200 251.800 273.200 L 256.800 273.200 256.800 271.600 L 256.800 270.000 258.400 270.000 L 260.000 270.000 260.000 268.400 L 260.000 266.800 261.600 266.800 L 263.200 266.800 263.200 265.000 L 263.200 263.200 265.000 263.200 L 266.800 263.200 266.800 260.000 L 266.800 256.800 268.400 256.800 L 270.000 256.800 270.000 251.800 L 270.000 246.800 268.400 246.800 L 266.800 246.800 266.800 245.000 L 266.800 243.200 265.000 243.200 L 263.200 243.200 263.200 241.600 L 263.200 240.000 261.600 240.000 L 260.000 240.000 260.000 238.400 L 260.000 236.800 258.400 236.800 L 256.800 236.800 256.800 235.000 L 256.800 233.200 251.800 233.200 L 246.800 233.200 246.800 231.600 L 246.800 230.000 255.000 230.000 L 263.200 230.000 263.200 231.600 L 263.200 233.200 268.200 233.200 L 273.200 233.200 273.200 231.600 L 273.200 230.000 275.000 230.000 L 276.800 230.000 276.800 225.000 L 276.800 220.000 275.000 220.000 L 273.200 220.000 273.200 218.400 L 273.200 216.800 271.600 216.800 L 270.000 216.800 270.000 215.000 L 270.000 213.200 265.000 213.200 L 260.000 213.200 260.000 211.600 L 260.000 210.000 255.000 210.000 L 250.000 210.000 250.000 208.400 L 250.000 206.800 251.600 206.800 L 253.200 206.800 253.200 205.000 L 253.200 203.200 260.000 203.200 L 266.800 203.200 266.800 205.000 L 266.800 206.800 273.400 206.800 L 280.000 206.800 280.000 205.000 L 280.000 203.200 281.600 203.200 L 283.200 203.200 283.200 200.000 L 283.200 196.800 281.600 196.800 L 280.000 196.800 280.000 195.000 L 280.000 193.200 278.400 193.200 L 276.800 193.200 276.800 191.600 L 276.800 190.000 275.000 190.000 L 273.200 190.000 273.200 188.400 L 273.200 186.800 271.600 186.800 L 270.000 186.800 270.000 185.000 L 270.000 183.200 268.400 183.200 L 266.800 183.200 266.800 181.600 L 266.800 180.000 263.400 180.000 L 260.000 180.000 260.000 178.400 L 260.000 176.800 266.600 176.800 L 273.200 176.800 273.200 178.400 L 273.200 180.000 278.200 180.000 L 283.200 180.000 283.200 178.400 L 283.200 176.800 278.200 176.800 L 273.200 176.800 273.200 175.000 L 273.200 173.200 266.600 173.200 L 260.000 173.200 260.000 175.000 L 260.000 176.800 258.400 176.800 L 256.800 176.800 256.800 145.000 L 256.800 113.200 255.000 113.200 L 253.200 113.200 253.200 131.600 M173.200 141.600 L 173.200 143.200 176.600 143.200 L 180.000 143.200 180.000 148.400 L 180.000 153.600 185.000 153.600 L 190.000 153.600 190.000 148.400 L 190.000 143.200 191.600 143.200 L 193.200 143.200 193.200 141.600 L 193.200 140.000 183.200 140.000 L 173.200 140.000 173.200 141.600 M190.000 161.600 L 190.000 163.200 195.000 163.200 L 200.000 163.200 200.000 161.600 L 200.000 160.000 195.000 160.000 L 190.000 160.000 190.000 161.600 M233.200 165.000 L 233.200 166.800 236.600 166.800 L 240.000 166.800 240.000 168.400 L 240.000 170.000 241.600 170.000 L 243.200 170.000 243.200 171.600 L 243.200 173.200 245.000 173.200 L 246.800 173.200 246.800 175.000 L 246.800 176.800 241.800 176.800 L 236.800 176.800 236.800 175.000 L 236.800 173.200 233.400 173.200 L 230.000 173.200 230.000 175.000 L 230.000 176.800 233.400 176.800 L 236.800 176.800 236.800 178.400 L 236.800 180.000 241.800 180.000 L 246.800 180.000 246.800 178.400 L 246.800 176.800 248.400 176.800 L 250.000 176.800 250.000 175.000 L 250.000 173.200 248.400 173.200 L 246.800 173.200 246.800 171.600 L 246.800 170.000 245.000 170.000 L 243.200 170.000 243.200 168.400 L 243.200 166.800 241.600 166.800 L 240.000 166.800 240.000 165.000 L 240.000 163.200 236.600 163.200 L 233.200 163.200 233.200 165.000 M160.000 171.600 L 160.000 173.200 158.400 173.200 L 156.800 173.200 156.800 171.600 L 156.800 170.000 158.400 170.000 L 160.000 170.000 160.000 171.600 M210.000 171.600 L 210.000 173.200 211.600 173.200 L 213.200 173.200 213.200 171.600 L 213.200 170.000 211.600 170.000 L 210.000 170.000 210.000 171.600 M170.000 175.000 L 170.000 176.800 168.400 176.800 L 166.800 176.800 166.800 175.000 L 166.800 173.200 168.400 173.200 L 170.000 173.200 170.000 175.000 M163.200 178.400 L 163.200 180.000 160.000 180.000 L 156.800 180.000 156.800 178.400 L 156.800 176.800 160.000 176.800 L 163.200 176.800 163.200 178.400 M180.000 178.400 L 180.000 180.000 178.400 180.000 L 176.800 180.000 176.800 178.400 L 176.800 176.800 178.400 176.800 L 180.000 176.800 180.000 178.400 M186.800 178.400 L 186.800 180.000 185.000 180.000 L 183.200 180.000 183.200 178.400 L 183.200 176.800 185.000 176.800 L 186.800 176.800 186.800 178.400 M193.200 178.400 L 193.200 180.000 191.600 180.000 L 190.000 180.000 190.000 178.400 L 190.000 176.800 191.600 176.800 L 193.200 176.800 193.200 178.400 M200.000 178.400 L 200.000 180.000 198.400 180.000 L 196.800 180.000 196.800 178.400 L 196.800 176.800 198.400 176.800 L 200.000 176.800 200.000 178.400 M206.800 178.400 L 206.800 180.000 205.000 180.000 L 203.200 180.000 203.200 178.400 L 203.200 176.800 205.000 176.800 L 206.800 176.800 206.800 178.400 M223.200 181.600 L 223.200 183.200 225.000 183.200 L 226.800 183.200 226.800 185.000 L 226.800 186.800 228.400 186.800 L 230.000 186.800 230.000 188.400 L 230.000 190.000 233.400 190.000 L 236.800 190.000 236.800 191.600 L 236.800 193.200 240.000 193.200 L 243.200 193.200 243.200 195.000 L 243.200 196.800 240.000 196.800 L 236.800 196.800 236.800 198.400 L 236.800 200.000 233.400 200.000 L 230.000 200.000 230.000 198.400 L 230.000 196.800 226.600 196.800 L 223.200 196.800 223.200 198.400 L 223.200 200.000 226.600 200.000 L 230.000 200.000 230.000 201.600 L 230.000 203.200 233.400 203.200 L 236.800 203.200 236.800 201.600 L 236.800 200.000 240.000 200.000 L 243.200 200.000 243.200 198.400 L 243.200 196.800 245.000 196.800 L 246.800 196.800 246.800 195.000 L 246.800 193.200 245.000 193.200 L 243.200 193.200 243.200 191.600 L 243.200 190.000 240.000 190.000 L 236.800 190.000 236.800 188.400 L 236.800 186.800 233.400 186.800 L 230.000 186.800 230.000 185.000 L 230.000 183.200 228.400 183.200 L 226.800 183.200 226.800 181.600 L 226.800 180.000 225.000 180.000 L 223.200 180.000 223.200 181.600 M260.000 181.600 L 260.000 183.200 263.400 183.200 L 266.800 183.200 266.800 185.000 L 266.800 186.800 268.400 186.800 L 270.000 186.800 270.000 188.400 L 270.000 190.000 271.600 190.000 L 273.200 190.000 273.200 191.600 L 273.200 193.200 275.000 193.200 L 276.800 193.200 276.800 195.000 L 276.800 196.800 278.400 196.800 L 280.000 196.800 280.000 200.000 L 280.000 203.200 273.400 203.200 L 266.800 203.200 266.800 201.600 L 266.800 200.000 261.800 200.000 L 256.800 200.000 256.800 190.000 L 256.800 180.000 258.400 180.000 L 260.000 180.000 260.000 181.600 M176.800 188.400 L 176.800 190.000 181.800 190.000 L 186.800 190.000 186.800 191.600 L 186.800 193.200 191.800 193.200 L 196.800 193.200 196.800 200.000 L 196.800 206.800 198.400 206.800 L 200.000 206.800 200.000 215.000 L 200.000 223.200 201.600 223.200 L 203.200 223.200 203.200 228.200 L 203.200 233.200 205.000 233.200 L 206.800 233.200 206.800 238.200 L 206.800 243.200 208.400 243.200 L 210.000 243.200 210.000 248.200 L 210.000 253.200 211.600 253.200 L 213.200 253.200 213.200 248.200 L 213.200 243.200 211.600 243.200 L 210.000 243.200 210.000 238.200 L 210.000 233.200 208.400 233.200 L 206.800 233.200 206.800 228.200 L 206.800 223.200 205.000 223.200 L 203.200 223.200 203.200 215.000 L 203.200 206.800 201.600 206.800 L 200.000 206.800 200.000 198.400 L 200.000 190.000 203.400 190.000 L 206.800 190.000 206.800 188.400 L 206.800 186.800 203.400 186.800 L 200.000 186.800 200.000 188.400 L 200.000 190.000 193.400 190.000 L 186.800 190.000 186.800 188.400 L 186.800 186.800 181.800 186.800 L 176.800 186.800 176.800 188.400 M160.000 191.600 L 160.000 193.200 163.400 193.200 L 166.800 193.200 166.800 195.000 L 166.800 196.800 170.000 196.800 L 173.200 196.800 173.200 201.800 L 173.200 206.800 175.000 206.800 L 176.800 206.800 176.800 213.400 L 176.800 220.000 178.400 220.000 L 180.000 220.000 180.000 213.400 L 180.000 206.800 178.400 206.800 L 176.800 206.800 176.800 201.800 L 176.800 196.800 175.000 196.800 L 173.200 196.800 173.200 195.000 L 173.200 193.200 170.000 193.200 L 166.800 193.200 166.800 191.600 L 166.800 190.000 163.400 190.000 L 160.000 190.000 160.000 191.600 M220.000 218.400 L 220.000 226.800 221.600 226.800 L 223.200 226.800 223.200 231.800 L 223.200 236.800 225.000 236.800 L 226.800 236.800 226.800 241.800 L 226.800 246.800 228.400 246.800 L 230.000 246.800 230.000 250.000 L 230.000 253.200 231.600 253.200 L 233.200 253.200 233.200 250.000 L 233.200 246.800 231.600 246.800 L 230.000 246.800 230.000 241.800 L 230.000 236.800 228.400 236.800 L 226.800 236.800 226.800 231.800 L 226.800 226.800 225.000 226.800 L 223.200 226.800 223.200 218.400 L 223.200 210.000 221.600 210.000 L 220.000 210.000 220.000 218.400 M260.000 215.000 L 260.000 216.800 265.000 216.800 L 270.000 216.800 270.000 218.400 L 270.000 220.000 271.600 220.000 L 273.200 220.000 273.200 225.000 L 273.200 230.000 268.200 230.000 L 263.200 230.000 263.200 228.400 L 263.200 226.800 260.000 226.800 L 256.800 226.800 256.800 220.000 L 256.800 213.200 258.400 213.200 L 260.000 213.200 260.000 215.000 M166.800 235.000 L 166.800 240.000 168.400 240.000 L 170.000 240.000 170.000 243.400 L 170.000 246.800 171.600 246.800 L 173.200 246.800 173.200 250.000 L 173.200 253.200 175.000 253.200 L 176.800 253.200 176.800 255.000 L 176.800 256.800 180.000 256.800 L 183.200 256.800 183.200 258.400 L 183.200 260.000 185.000 260.000 L 186.800 260.000 186.800 263.400 L 186.800 266.800 185.000 266.800 L 183.200 266.800 183.200 268.400 L 183.200 270.000 185.000 270.000 L 186.800 270.000 186.800 268.400 L 186.800 266.800 188.400 266.800 L 190.000 266.800 190.000 263.400 L 190.000 260.000 188.400 260.000 L 186.800 260.000 186.800 258.400 L 186.800 256.800 185.000 256.800 L 183.200 256.800 183.200 255.000 L 183.200 253.200 180.000 253.200 L 176.800 253.200 176.800 250.000 L 176.800 246.800 175.000 246.800 L 173.200 246.800 173.200 243.400 L 173.200 240.000 171.600 240.000 L 170.000 240.000 170.000 235.000 L 170.000 230.000 168.400 230.000 L 166.800 230.000 166.800 235.000 M260.000 241.600 L 260.000 243.200 261.600 243.200 L 263.200 243.200 263.200 245.000 L 263.200 246.800 265.000 246.800 L 266.800 246.800 266.800 251.800 L 266.800 256.800 265.000 256.800 L 263.200 256.800 263.200 260.000 L 263.200 263.200 261.600 263.200 L 260.000 263.200 260.000 265.000 L 260.000 266.800 258.400 266.800 L 256.800 266.800 256.800 253.400 L 256.800 240.000 258.400 240.000 L 260.000 240.000 260.000 241.600 M170.000 258.400 L 170.000 260.000 171.600 260.000 L 173.200 260.000 173.200 258.400 L 173.200 256.800 171.600 256.800 L 170.000 256.800 170.000 258.400 M200.400 311.600 C 200.400 313.162,200.433 313.200,201.800 313.200 C 203.167 313.200,203.200 313.162,203.200 311.600 C 203.200 310.038,203.167 310.000,201.800 310.000 C 200.433 310.000,200.400 310.038,200.400 311.600 M197.200 316.600 L 197.200 320.000 198.600 320.000 L 200.000 320.000 200.000 316.600 L 200.000 313.200 198.600 313.200 L 197.200 313.200 197.200 316.600 M193.600 325.000 L 193.600 330.000 195.200 330.000 L 196.800 330.000 196.800 325.000 L 196.800 320.000 195.200 320.000 L 193.600 320.000 193.600 325.000 M190.400 333.400 L 190.400 336.800 191.800 336.800 L 193.200 336.800 193.200 333.400 L 193.200 330.000 191.800 330.000 L 190.400 330.000 190.400 333.400 M240.000 331.600 L 240.000 333.200 243.400 333.200 L 246.800 333.200 246.800 335.000 L 246.800 336.800 250.000 336.800 L 253.200 336.800 253.200 335.000 L 253.200 333.200 250.000 333.200 L 246.800 333.200 246.800 331.600 L 246.800 330.000 243.400 330.000 L 240.000 330.000 240.000 331.600 M203.600 351.600 L 203.600 353.200 187.000 353.200 L 170.400 353.200 170.400 351.600 L 170.400 350.000 187.000 350.000 L 203.600 350.000 203.600 351.600 M240.400 351.600 L 240.400 353.200 227.000 353.200 L 213.600 353.200 213.600 351.600 L 213.600 350.000 227.000 350.000 L 240.400 350.000 240.400 351.600 " stroke="none" fill="#040404" fill-rule="evenodd"></path><path id="path6" d="M183.200 108.400 L 183.200 110.000 181.600 110.000 L 180.000 110.000 180.000 113.400 L 180.000 116.800 178.400 116.800 L 176.800 116.800 176.800 120.000 L 176.800 123.200 175.000 123.200 L 173.200 123.200 173.200 126.600 L 173.200 130.000 175.000 130.000 L 176.800 130.000 176.800 126.600 L 176.800 123.200 178.400 123.200 L 180.000 123.200 180.000 120.000 L 180.000 116.800 181.600 116.800 L 183.200 116.800 183.200 113.400 L 183.200 110.000 185.000 110.000 L 186.800 110.000 186.800 108.400 L 186.800 106.800 185.000 106.800 L 183.200 106.800 183.200 108.400 M200.000 128.400 L 200.000 130.000 201.600 130.000 L 203.200 130.000 203.200 133.400 L 203.200 136.800 205.000 136.800 L 206.800 136.800 206.800 133.400 L 206.800 130.000 205.000 130.000 L 203.200 130.000 203.200 128.400 L 203.200 126.800 201.600 126.800 L 200.000 126.800 200.000 128.400 M210.000 265.000 L 210.000 266.800 211.600 266.800 L 213.200 266.800 213.200 265.000 L 213.200 263.200 211.600 263.200 L 210.000 263.200 210.000 265.000 M226.800 266.600 L 226.800 270.000 228.400 270.000 L 230.000 270.000 230.000 271.600 L 230.000 273.200 231.600 273.200 L 233.200 273.200 233.200 271.600 L 233.200 270.000 231.600 270.000 L 230.000 270.000 230.000 266.600 L 230.000 263.200 228.400 263.200 L 226.800 263.200 226.800 266.600 M220.000 280.000 L 220.000 283.200 221.600 283.200 L 223.200 283.200 223.200 286.600 L 223.200 290.000 225.000 290.000 L 226.800 290.000 226.800 291.600 L 226.800 293.200 230.000 293.200 L 233.200 293.200 233.200 291.600 L 233.200 290.000 230.000 290.000 L 226.800 290.000 226.800 286.600 L 226.800 283.200 225.000 283.200 L 223.200 283.200 223.200 280.000 L 223.200 276.800 221.600 276.800 L 220.000 276.800 220.000 280.000 " stroke="none" fill="#8e561c" fill-rule="evenodd"></path><path id="path7" d="" stroke="none" fill="#5cc0100" fill-rule="evenodd"></path><path id="path8" d="" stroke="none" fill="#304440" fill-rule="evenodd"></path></g></svg>