<svg fill="none" height="104" viewBox="0 0 460 104" width="460" xmlns="http://www.w3.org/2000/svg" xmlns:xlink="http://www.w3.org/1999/xlink"><clipPath id="a"><path d="m0 0h460v104h-460z"/></clipPath><g clip-path="url(#a)" fill="#fffcf5"><path d="m74.2999 11.81c-.0801-.67-.4001-1.25-.93-1.72-.49-.44-1.1201-.72-1.6201-.95l-.44-.21c-1.03-.49-2.06-.97-3.12-1.45l-.61-.27c-1.14-.5-2.29-1-3.44-1.49 0 0-3.8599-1.65-4.67-2-1.13-.49-2.27-.95-3.41-1.4l-1.8-.73c-1.91-.78-3.88-1.59-5.97-1.59-1.39 0-2.62.36-3.77 1.09-1.33.83-2.17 2.08-2.49 3.71-.42 2-1.5 6.36-2.48 10.26-.22.86-1.07 1.4-1.94 1.24-1.72-.32-3.45-.62-5.18-.91-2.37-.39-4.72-1.04-7.14-1.22-2.41-.16-4.77.51-7.1 1.08-5.09 1.22-10.07995 2.94-14.81995 5.2-1.24.61-1.54 1.22-1.56 2.54-.1 4.85-.850004 9.78-1.140004 14.63-.32 5.28-.51 10.56-.6099998 15.87-.1800002 10.76.0000001 21.66 1.6600038 32.33.06.36.2.77.18 1.14 0 .28.06.57.22.83.26.47 1.03 1.89 15.20995 5.12 4.16.95 14.29 3.09 20.8 3.09.26 0 .53 0 .79-.02 15.27-.45 20.46-6.66 20.68-6.92.4-.51.65-.81 1.05-11.25.2401-5.89.45-13.82.59-21.78.16-8.4.24-16.12.2-21.78-.02-2.37-.02-4.71-.12-7.06-.04-1.02-.1-2.05-.24-3.06-.22-1.56-1.56-2.09-2.86-2.64-.53-.22-1.11-.43-1.66-.63-1.2799-.47-2.5999-.87-3.93-1.24-.2599-.08-2.96-.83-3.06-.83l-.73-.16c-.63-.14-1.6-.93-1.33-2.29l1.79-7.63c.24-.15.59-.39.89-.69l2.29.99c.46.19 15.6801 6.71 15.85 6.78.27.11.53.22.81.36l.2.09c.13.06.26.12.43.17.25.09.59.22 1 .25.29 0 .53-.06.76-.12.47-.15.91-.43 1.33-.85.4-.4.72-.85.97-1.38.43-.9.58-1.75.48-2.52zm-63.2101 71.81c-.12.22-.41.31-.64.2s-.34-.39-.26-.64l8.54-26.4-13.70995-1.32c-.19-.02-.35-.15-.42-.33-.05-.18-.02-.39.11-.53l16.81995-19.4c.16-.18.44-.22.64-.07.21.13.28.4.2.64l-5.13 12.04c-.08.19.06.4.26.4h13.76c.18 0 .34.09.42.26.09.17.09.37 0 .51l-20.57 34.65zm26.29 6.39c-.02.47-.44.83-.99.83-3.57.11-9.12-.11-14.23-1.3-.35-.08-.29-.59.07-.61 15.67-.9 11.11-33.47 14.42-51.85 3.2201-17.99 1.01 45.06.72 52.93zm13-65.36c1.42-.29 2.87-.45 4.32-.53 2.14-.12 2.26-.18 1.87.2-.29.29-.92.43-1.29.58-.57.22-1.1599.43-1.74.63-2.6.9-5.23 1.71-7.87 2.5-1.94.58-3.87 1.18-5.83 1.65-.29.07-.59.13-.89.17-1.4199.19-2.82-.01-4.21-.28-1.9599-.38-3.9-.8-5.84-1.27-5.35-1.3-10.67-2.72-15.98-4.19-5.37995-1.54-6.27995-2.46.41-1.5.24.03.44.05.66.07 3.6.55 7.23 1.03 10.81 1.59 5.33.84 10.8 1.99 16.21 1.7 3.15-.17 6.28-.7 9.37-1.32z"/><path d="m192.33 35.3h-9.71v48.19h9.71z"/><path d="m187.43 17.3601c-1.88 0-3.44.59-4.64 1.75-1.22 1.17-1.83 2.73-1.83 4.62s.61 3.45 1.81 4.65 2.77 1.81 4.66 1.81 3.45-.6 4.69-1.8c1.24-1.21 1.87-2.78 1.87-4.67s-.64-3.46-1.89-4.64c-1.23-1.15-2.8-1.73-4.67-1.73z"/><path d="m239.36 64.34c-.54 3.5-2.22 6.38-4.99 8.55-2.81 2.21-6.15 3.33-9.93 3.33-3.02 0-5.75-.7-8.12-2.09-2.36-1.38-4.23-3.36-5.56-5.89-1.35-2.56-2.04-5.52-2.04-8.8s.65-6.26 1.92-8.83c1.25-2.53 2.98-4.51 5.14-5.89 2.15-1.37 4.61-2.06 7.31-2.06 3.02 0 5.73.9 8.07 2.67s3.93 4.14 4.74 7.04l.37 1.32 9.42-2.16-.35-1.42c-1.21-4.92-3.9-8.96-7.99-12.02-4.07-3.05-8.87-4.6-14.25-4.6-4.62 0-8.81 1.13-12.47 3.35-3.65 2.22-6.54 5.34-8.57 9.27-2.01 3.9-3.03 8.37-3.03 13.31s1.09 9.43 3.23 13.3c2.16 3.9 5.21 6.99 9.08 9.21 3.86 2.21 8.27 3.33 13.11 3.33 4.03 0 7.83-.83 11.3-2.47s6.41-3.93 8.73-6.82c2.33-2.91 3.81-6.23 4.39-9.87l.21-1.36-9.48-1.92-.23 1.49z"/><path d="m293.66 68.38c-1.18 2.25-3.08 4.14-5.64 5.61-2.58 1.48-5.51 2.23-8.71 2.23-4.46 0-8.28-1.37-11.35-4.08-2.67-2.36-4.37-5.39-5.04-9.01h37.82l.13-1.3c.06-.65.1-1.6.1-2.85-.06-4.87-1.08-9.26-3.03-13.07-1.97-3.84-4.76-6.9-8.29-9.09-3.54-2.2-7.68-3.31-12.3-3.31s-8.94 1.11-12.67 3.29c-3.74 2.19-6.71 5.24-8.8 9.08-2.08 3.82-3.14 8.2-3.14 13.03s1.15 9.49 3.42 13.5 5.48 7.2 9.53 9.47c4.03 2.27 8.59 3.41 13.55 3.41 5.26 0 10.04-1.23 14.2-3.65 4.21-2.45 7.17-5.69 8.78-9.63l.55-1.33-8.48-3.46-.61 1.16zm-16.42-25.71c3.79 0 6.94 1.15 9.34 3.42 2.1 1.99 3.46 4.73 4.02 8.15h-27.52c.77-3.21 2.29-5.89 4.53-7.96 2.59-2.39 5.82-3.61 9.62-3.61z"/><path d="m410.77 45.88c-2.13-3.9-5.17-6.98-9.05-9.14-3.86-2.15-8.39-3.23-13.46-3.23s-9.51 1.09-13.37 3.23c-3.88 2.16-6.92 5.23-9.05 9.14-2.11 3.87-3.19 8.44-3.19 13.56s1.07 9.6 3.18 13.47c2.13 3.91 5.18 6.98 9.05 9.14 3.85 2.15 8.35 3.23 13.37 3.23s9.6-1.09 13.46-3.23c3.87-2.16 6.92-5.23 9.05-9.14 2.11-3.87 3.18-8.41 3.18-13.47s-1.07-9.69-3.18-13.56zm-22.51 30.34c-4.83 0-8.73-1.52-11.58-4.53-2.87-3.03-4.32-7.15-4.32-12.25s1.46-9.22 4.32-12.25c2.85-3.01 6.74-4.53 11.58-4.53s8.73 1.52 11.57 4.53c2.87 3.03 4.32 7.15 4.32 12.25s-1.46 9.22-4.32 12.25c-2.85 3.01-6.74 4.53-11.57 4.53z"/><path d="m442.22 58.6301 16.91-23.3301-11.56.13-11.39 16.46-11.69-16.59h-11.33l16.91 23.18-17.78 25.01 11.63-.1199 12.26-17.9501 12.33 18.07h11.49z"/><path d="m111.83 61.1201c0 3.42-.37 8.38-3.54 11.94-2.34 2.62-5.52 3.9-9.7098 3.9-3.92 0-6.92-1.12-9.73-3.62-.92-.82-1.73-1.79-2.4-2.88-.66-1.07-1.23-2.31-1.68-3.68-.31-.96-.54-1.76-.69-2.53-.12-.59-.2-1.19-.27-1.79l-.1-.72-9.28 3.94.22 1.02c1.29 6.21 4.12 11.1 8.4 14.53 4.33 3.47 9.54 5.15 15.92 5.15 7.2098 0 12.9398-2.15 17.0498-6.38 4.09-4.22 6.17-10.07 6.17-17.37v-45.27h-10.34v43.76z"/><path d="m163.98 35.3v27.0101c0 2.78-.62 5.2799-1.83 7.41-1.21 2.1199-2.9 3.8-5.02 4.97-2.14 1.19-4.61 1.79-7.34 1.79-3.21 0-5.67-.9701-7.52-2.9501-1.86-1.98-2.8-4.76-2.8-8.26v-29.97h-9.8v30.69c0 5.92 1.64 10.6601 4.88 14.0901 3.26 3.45 7.76 5.21 13.35 5.21 1.85 0 3.71-.13 5.52-.49s3.53-.88 4.94-2.01c1.55-1.23 2.89-2.7601 3.95-4.4501s1.69-3.55 2.35-5.42l1.79.5201c-1.6 4.42-2.55 10.07-2.55 10.07h9.79v-48.1901h-9.71z"/><path d="m355.13 46.2001c-2.12-3.92-5.06-7.04-8.73-9.29-3.69-2.25-7.9-3.4-12.52-3.4-5.36 0-11 1.61-14.03 6.34-1.27 1.98-2.13 4.05-2.89 6.27l-1.79-.53c1-2.79 1.75-6.08 2.16-8.12.19-.96.29-1.93.29-2.91v-17.2h-9.71v66.13h9.78c-.07-.42-1.01-5.79-2.52-10.02l1.79-.53c-.08.02 1.43 3.76 1.6 4.09.98 1.98 2.39 3.75 4.11 5.15 1.73 1.4 3.91 2.14 6.06 2.57 5.21 1.06 10.78.53 15.61-1.74.68-.32 1.35-.68 1.99-1.06 3.71-2.22 6.67-5.35 8.79-9.3 2.11-3.93 3.18-8.37 3.18-13.2s-1.07-9.34-3.18-13.25zm-8.65 21.86c-1.34 2.54-3.21 4.56-5.54 6s-5.01 2.16-7.96 2.16-5.62-.74-7.95-2.2c-2.34-1.47-4.21-3.5-5.56-6.05-1.35-2.56-2.04-5.43-2.04-8.53s.69-6.06 2.04-8.62c1.34-2.54 3.21-4.56 5.54-6s5.01-2.16 7.96-2.16 5.62.73 7.96 2.16c2.34 1.44 4.21 3.46 5.54 6 1.35 2.56 2.04 5.46 2.04 8.62s-.69 6.05-2.04 8.62z"/></g></svg>