<svg fill="none" height="600" viewBox="0 0 600 600" width="600" xmlns="http://www.w3.org/2000/svg" xmlns:xlink="http://www.w3.org/1999/xlink"><clipPath id="a"><path d="m122 44h397.617v512h-397.617z"/></clipPath><path d="m.5.5h599v599h-599z" fill="#f5a312"/><path d="m141.542 165.16h280.102v351.756h-280.102z" fill="#fff"/><path d="m221.013 502.585h135.491v29.9644h-135.491z" fill="#fff"/><g clip-path="url(#a)"><path d="m519.454 106.965c-.436-3.595-2.125-6.699-4.957-9.1505-2.614-2.3422-5.991-3.8673-8.66-5.0656l-2.397-1.1438c-5.501-2.6145-11.057-5.1745-16.722-7.7345l-3.268-1.4706c-6.1-2.6689-12.255-5.3379-18.41-7.9523 0 0-20.643-8.7694-24.946-10.6758-6.046-2.6145-12.147-5.0655-18.247-7.4621l-9.641-3.8672c-10.186-4.1396-20.752-8.4426-31.918-8.4426-7.408 0-13.999 1.9064-20.154 5.7736-7.08 4.4119-11.601 11.1115-13.344 19.7719-2.233 10.6213-8.007 33.9335-13.29 54.7405-1.144 4.63-5.72 7.462-10.404 6.591-9.205-1.689-18.465-3.323-27.67-4.848-12.691-2.124-25.218-5.556-38.236-6.536-12.855-.817-25.546 2.723-38.019 5.773-27.234 6.537-53.923 15.687-79.251 27.725-6.645 3.268-8.225 6.536-8.334 13.562-.544 25.873-4.52 52.126-6.1 77.998-1.689 28.16-2.723 56.32-3.268 84.644-.981 57.409 0 115.527 8.878 172.391.327 1.907 1.035 4.085.926 6.101 0 1.47.327 3.05 1.144 4.412 1.362 2.505 5.501 10.076 81.375 27.343 22.278 5.065 76.419 16.504 111.224 16.504 1.362 0 2.832 0 4.249-.109 81.702-2.397 109.426-35.514 110.624-36.875 2.125-2.724 3.486-4.303 5.61-60.024 1.253-31.428 2.452-73.695 3.16-116.181.871-44.772 1.252-86.005 1.035-116.18-.109-12.637-.109-25.11-.654-37.637-.218-5.447-.545-10.949-1.253-16.286-1.144-8.28-8.333-11.166-15.305-14.108-2.833-1.143-5.937-2.287-8.879-3.377-6.863-2.505-13.943-4.629-21.024-6.645-1.362-.435-15.851-4.412-16.341-4.412l-3.867-.817c-3.377-.762-8.551-4.956-7.135-12.201l9.586-40.6872c1.307-.817 3.159-2.0698 4.739-3.6494l12.255 5.2834c2.451 1.0349 83.881 35.7852 84.752 36.1672 1.471.599 2.833 1.143 4.358 1.906l1.089.49c.708.327 1.416.599 2.288.926 1.362.49 3.159 1.199 5.338 1.362 1.579 0 2.832-.327 4.085-.654 2.505-.762 4.848-2.287 7.081-4.521 2.124-2.124 3.867-4.52 5.174-7.353 2.288-4.793 3.105-9.314 2.56-13.399zm-338.138 383.02c-.654 1.198-2.179 1.688-3.432 1.089s-1.797-2.07-1.416-3.431l45.644-140.8-73.368-7.081c-1.035-.109-1.907-.763-2.288-1.743-.272-.981-.109-2.07.545-2.833l89.981-103.435c.872-.98 2.342-1.198 3.377-.381 1.144.708 1.525 2.179 1.035 3.432l-27.452 64.218c-.436.98.327 2.124 1.416 2.124h73.587c.926 0 1.797.49 2.287 1.362.491.871.491 1.96 0 2.723l-110.025 184.756zm140.636 34.097c-.109 2.505-2.342 4.412-5.283 4.412-19.118.599-48.749-.6-76.092-6.918-1.852-.436-1.525-3.105.381-3.213 83.827-4.794 59.425-178.492 77.127-276.535 17.266-95.918 5.392 240.313 3.867 282.308zm69.556-348.596c7.626-1.525 15.36-2.397 23.095-2.832 11.438-.6 12.091-.926 10.022 1.089-1.58 1.525-4.902 2.288-6.863 3.05-3.051 1.198-6.21 2.288-9.314 3.377-13.89 4.793-27.997 9.096-42.104 13.345-10.349 3.105-20.698 6.318-31.156 8.824-1.58.381-3.159.708-4.739.926-7.571 1.035-15.087-.055-22.549-1.471-10.458-2.015-20.862-4.248-31.211-6.808-28.595-6.972-57.082-14.489-85.515-22.332-28.759-8.225-33.552-13.127 2.179-8.007 1.253.163 2.342.272 3.486.381 19.227 2.941 38.672 5.501 57.791 8.497 28.487 4.466 57.79 10.621 86.713 9.042 16.885-.872 33.552-3.758 50.111-7.081z" fill="#000"/></g><path d="m.5.5h599v599h-599z" stroke="#000"/></svg>