<?xml version="1.0" encoding="UTF-8" standalone="no"?>
<!-- Created with Inkscape (http://www.inkscape.org/) -->

<svg
   width="50mm"
   height="50.000004mm"
   viewBox="0 0 50 50.000004"
   version="1.1"
   id="svg5"
   xml:space="preserve"
   xmlns:inkscape="http://www.inkscape.org/namespaces/inkscape"
   xmlns:sodipodi="http://sodipodi.sourceforge.net/DTD/sodipodi-0.dtd"
   xmlns="http://www.w3.org/2000/svg"
   xmlns:svg="http://www.w3.org/2000/svg"><sodipodi:namedview
     id="namedview7"
     pagecolor="#ffffff"
     bordercolor="#000000"
     borderopacity="0.25"
     inkscape:showpageshadow="2"
     inkscape:pageopacity="0.0"
     inkscape:pagecheckerboard="0"
     inkscape:deskcolor="#d1d1d1"
     inkscape:document-units="mm"
     showgrid="false" /><defs
     id="defs2" /><g
     inkscape:label="Layer 1"
     inkscape:groupmode="layer"
     id="layer1"><circle
       style="fill:#f5a312;fill-opacity:1;stroke-width:0.264583"
       id="path111"
       cx="25"
       cy="25"
       r="25" /><g
       style="fill:none"
       id="g1483"
       transform="matrix(0.08153868,0,0,0.08153868,11.540553,6.6245369)"><path
         d="M 254.529,115.183 C 223.362,99.9049 139.205,86.1622 102.767,81.4814 c 0,0 -26.9393,4.9233 -43.6101,10.1105 -18.0228,5.6079 -44.1913,17.9741 -44.1913,17.9741 -7.55897,3.37 105.0514,25.089 152.3434,33.701 59.542,-14.379 90.708,-25.276 87.22,-28.084 z"
         fill="#fcffff"
         stroke="#000000"
         stroke-width="13.3897"
         id="path1447" /><path
         d="m 15.2311,110.904 c -0.0071,0.065 -0.0141,0.129 -0.0212,0.194 5.6511,2.611 127.0711,30.812 153.1711,32.955 5.802,0.477 26.786,-5.618 88.512,-26.968 5.823,-5.057 0,273.058 -4.076,278.115 -4.076,5.056 -27.951,25.845 -84.436,27.53 C 123.193,424.079 11.7372,395.2 15.2311,390.143 0.340738,302.595 8.99996,167.771 15.2099,111.098 c -0.2748,-0.127 -0.2759,-0.194 0.0212,-0.194 z"
         fill="#000000"
         id="path1449" /><path
         d="m 15.2311,110.904 c -6.21138,56.56 -14.907332,191.591 0,279.239 -3.4939,5.057 107.9619,33.936 153.1499,32.587 56.485,-1.685 80.36,-22.474 84.436,-27.53 4.076,-5.057 9.899,-283.172 4.076,-278.115 -61.726,21.35 -82.71,27.445 -88.512,26.968 C 141.012,141.806 8.82561,110.904 15.2311,110.904 Z"
         stroke="#000000"
         stroke-width="13.3897"
         id="path1451" /><path
         d="M 54.1255,94.7217 209.185,132.97"
         stroke="#000000"
         stroke-width="6.69486"
         id="path1453" /><path
         d="m 227.44,28.9516 -20.88,85.4554 c -9.574,6.668 -18.183,1.819 -21.291,-1.439 6.464,-24.7092 20.221,-78.1854 23.533,-94.4206 3.311,-16.23511 21.663,-16.06106 30.425,-13.94465 0,0 89.806,36.77995 92.798,40.51905 2.991,3.7392 -0.748,15.7044 -7.479,15.7044 L 233.962,21.9631 c -0.263,3.6398 -4.458,6.1756 -6.522,6.9885 z"
         fill="#000000"
         stroke="#000000"
         stroke-width="6.69486"
         stroke-linecap="round"
         stroke-linejoin="round"
         id="path1455" /><path
         d="M 13.3281,240.36 94.2456,150.49 67.2731,211.473 H 139.2 L 40.3006,371.956 82.2578,246.78 Z"
         fill="#fcffff"
         stroke="#000000"
         stroke-width="4.78666"
         stroke-linecap="round"
         stroke-linejoin="round"
         id="path1457" /><path
         d="m 159.541,421.479 c 0,0 10.951,-343.4526 -2.51,-256.705 -13.461,86.748 8.52,239.255 -54.592,247.98 24.043,8.725 43.077,9.694 57.102,8.725 z"
         fill="#fcffff"
         id="path1459" /><path
         d="m 222.291,201.419 -48.059,-49.478 40.383,-13.401 40.383,-13.4 -27.367,76.279 z"
         fill="#fcffff"
         stroke="#fcffff"
         stroke-width="5.98264"
         stroke-linecap="round"
         stroke-linejoin="round"
         id="path1461" /><path
         d="m 211.624,128.131 13.461,80.766"
         stroke="#000000"
         stroke-width="5.98264"
         id="path1463" /><ellipse
         cx="329.40799"
         cy="53.621201"
         rx="7.1561799"
         ry="11.7913"
         transform="rotate(25.9338,329.408,53.6212)"
         fill="#000000"
         id="ellipse1465" /></g></g></svg>
