<svg height="393pt" preserveAspectRatio="xMidYMid meet" viewBox="0 0 393 393" width="393pt" xmlns="http://www.w3.org/2000/svg"><path d="m2540 3921c-81-25-144-77-168-137-6-16-36-134-67-262-50-201-61-235-81-249-22-14-38-13-202 17-97 17-215 39-262 47-116 21-203 13-395-35-261-66-590-189-635-237-19-21-23-40-31-167-4-79-15-210-23-293-30-299-40-575-40-1085 0-544 8-700 55-1030 23-156 29-169 89-200 137-70 700-205 1090-262 210-30 463-30 635 1 224 40 438 130 539 226 51 50 52 52 66 310 22 409 33 961 34 1645 1 788 3 760-54 802-49 36-277 114-443 152-38 9-67 41-67 74 0 15 16 98 36 184 30 127 41 158 58 167 18 10 83-15 430-164 225-96 420-175 434-175 65 0 142 98 142 181 0 80-32 99-455 281-478 206-586 239-685 209zm-1160-945c168-25 379-57 470-73 146-24 191-27 385-28 203 0 234 3 395 32 190 34 330 48 330 34 0-15-232-95-545-187-238-69-263-68-750 55-433 109-675 181-675 202 0 17 83 9 390-35zm822-652c10-201-2-1076-22-1644-5-140-10-296-10-347 0-122-1-123-138-123-197 0-491 40-500 68-2 7 6 12 21 12 44 0 142 36 191 69 118 82 208 269 256 533 30 169 47 356 70 778 22 407 40 617 66 752 34 182 53 154 66-98zm-652 156c0-5-47-119-105-253-58-135-105-250-105-256 0-7 95-12 292-13 251-3 293-5 295-18 5-23-840-1434-860-1438-11-2-17 3-17 14 0 9 77 252 170 540 94 288 170 530 170 537 0 10-62 19-242 36-327 30-328 31-328 50 0 27 698 821 715 815 8-4 15-10 15-14z" transform="matrix(.1 0 0 -.1 0 393)"/></svg>