<svg height="700pt" preserveAspectRatio="xMidYMid meet" viewBox="0 0 700 700" width="700pt" xmlns="http://www.w3.org/2000/svg"><path d="m4828 6995c-2-2-23-5-48-8-49-6-119-31-160-56-82-52-128-123-155-241-9-41-25-112-36-156-11-45-21-90-23-100-2-11-14-57-26-104s-24-95-26-107-9-34-14-48-8-25-5-25c2 0-1-15-6-32-5-18-39-150-75-293s-69-264-74-269c-4-4-23-3-42 2-18 6-46 13-63 16-16 3-43 8-60 11-89 17-133 25-155 29-14 2-36 7-50 10s-38 8-55 10c-42 7-195 33-225 39-59 12-355 58-460 73-19 2-64 9-100 14-180 26-161 25-213 16-158-26-502-105-661-151-89-26-303-103-363-130-17-8-34-15-38-15-3 0-25-9-48-19s-105-47-182-81c-209-94-208-92-210-210-1-41-5-97-8-125-3-27-9-81-12-120-3-38-8-86-10-105s-7-73-10-120-8-103-9-125c-14-162-32-435-41-640-4-77-8-160-10-185-27-380-27-1788 0-2105 2-22 6-87 10-145 3-58 7-118 9-135 2-16 7-68 11-115s8-96 10-110 6-50 10-80c3-30 10-86 15-125 5-38 12-90 15-115 18-133 36-225 49-245 33-50 160-104 430-185 125-37 388-108 431-116 11-2 67-15 125-28 142-34 240-56 270-61 14-2 45-9 70-15 51-11 48-11 265-51 208-38 354-62 473-75 26-3 54-7 62-9 40-11 235-20 415-20 230 0 280 4 515 40 114 17 285 61 415 105 303 105 560 276 594 397 33 115 70 1091 97 2558 12 662 6 1728-11 1900-13 131-46 175-180 235-91 41-325 119-495 165-74 20-136 37-137 39-2 1 10 56 26 122 25 99 67 271 76 309 1 6 5 21 8 35 4 14 37 147 72 295 45 186 71 274 83 283 9 7 32 26 50 43 22 22 36 28 45 22 6-6 32-18 57-27 25-10 90-37 145-61 109-48 629-271 815-350 36-15 83-35 105-45 185-82 308-130 330-130 105 0 213 180 175 294-20 63-83 99-463 265-76 34-140 61-142 61s-28 11-57 24-210 90-403 171c-192 80-363 152-380 160-53 24-139 54-175 61-36 6-158 13-162 9z" transform="matrix(.1 0 0 -.1 0 700)"/></svg>