<svg fill="none" height="32" viewBox="0 0 32 32" width="32" xmlns="http://www.w3.org/2000/svg"><path d="m23.9999 24.9589c.33.0272.6638.0411 1.0009.0411 1.3977 0 2.7397-.239 3.9872-.6783.0085-.1061.0128-.2134.0128-.3217 0-2.2091-1.7909-4-4-4-.8369 0-1.6137.257-2.2558.6963m1.2549 4.2626c.0001.0137.0001.0274.0001.0411 0 .3-.0165.5961-.0487.8875-2.3423 1.344-5.0571 2.1125-7.9513 2.1125s-5.609-.7685-7.95132-2.1125c-.03217-.2914-.04868-.5875-.04868-.8875 0-.0137.00003-.0273.0001-.041m15.9998-.0001c-.0079-1.5688-.4673-3.0307-1.2549-4.2626m0 0c-1.4212-2.2227-3.911-3.6963-6.745-3.6963-2.8336 0-5.3231 1.4732-6.74441 3.6955m0 0c-.64195-.4388-1.41831-.6955-2.25461-.6955-2.20914 0-4 1.7909-4 4 0 .1083.0043.2156.01274.3217 1.24752.4393 2.58948.6783 3.98726.6783.33645 0 .66967-.0138.99912-.041m1.25549-4.2635c-.78798 1.232-1.24761 2.6944-1.25549 4.2635m11.9999-15.959c0 2.2091-1.7909 4-4 4s-4-1.7909-4-4c0-2.20914 1.7909-4 4-4s4 1.79086 4 4zm8 4c0 1.6569-1.3431 3-3 3s-3-1.3431-3-3 1.3431-3 3-3 3 1.3431 3 3zm-18 0c0 1.6569-1.34315 3-3 3s-3-1.3431-3-3 1.34315-3 3-3 3 1.3431 3 3z" stroke="#357951" stroke-linecap="round" stroke-linejoin="round" stroke-width="1.5"/></svg>