<svg fill="none" height="123" viewBox="0 0 123 123" width="123" xmlns="http://www.w3.org/2000/svg"><path d="m25.79 58.4149c.0001-.6792.1344-1.3516.3951-1.9788.2607-.6271.6427-1.1965 1.1241-1.6756.4815-.4791 1.0527-.8584 1.6811-1.1161s1.3015-.3887 1.9807-.3855l8.59.028c1.3695 0 2.683.5441 3.6514 1.5125.9685.9684 1.5126 2.2819 1.5126 3.6515v32.48c.967-.287 2.209-.593 3.568-.913.944-.2217 1.7853-.7559 2.3875-1.516.6021-.7601.9297-1.7013.9295-2.671v-40.29c0-1.3697.544-2.6833 1.5124-3.6519s2.2819-1.5128 3.6516-1.5131h8.607c1.3696.0003 2.6831.5445 3.6515 1.5131s1.5125 2.2822 1.5125 3.6519v37.393s2.155-.872 4.254-1.758c.7797-.3297 1.4451-.8818 1.9132-1.5873.4681-.7054.718-1.5331.7188-2.3797v-44.578c0-1.3694.5439-2.6828 1.5121-3.6512s2.2814-1.5125 3.6508-1.5128h8.6071c1.3696 0 2.683.544 3.6515 1.5125.9684.9684 1.5125 2.2819 1.5125 3.6515v36.709c7.462-5.408 15.024-11.912 21.025-19.733.871-1.1352 1.447-2.4683 1.677-3.8802s.107-2.8589-.358-4.2118c-2.778-7.9922-7.193-15.3166-12.964-21.5044-5.771-6.1877-12.7701-11.10265-20.5495-14.43018-7.7794-3.32752-16.1678-4.994382-24.6284-4.893904-8.4606.100477-16.807 1.966084-24.5051 5.477414-7.6982 3.51134-14.5786 8.59107-20.2009 14.91417-5.6223 6.323-9.86268 13.7502-12.44979 21.8062-2.587103 8.0559-3.4639587 16.5632-2.574459 24.9775.889499 8.4143 3.525779 16.5502 7.740109 23.8872.73415 1.2656 1.81424 2.2955 3.11334 2.9686s2.7633.9615 4.2207.8314c1.628-.143 3.655-.346 6.065-.629 1.0491-.1191 2.0177-.62 2.7212-1.4073.7036-.7873 1.0929-1.8059 1.0938-2.8617z" fill="#21325b"/><path d="m25.6021 110.51c9.0723 6.6 19.7938 10.562 30.9781 11.447 11.1844.884 22.3955-1.342 32.3929-6.434s18.3909-12.85 24.2529-22.4162c5.861-9.5663 8.962-20.5678 8.959-31.7871 0-1.4-.065-2.785-.158-4.162-22.219 33.138-63.2439 48.6303-96.423 53.3473" fill="#979695"/></svg>