<svg height="50.000004mm" viewBox="0 0 50 50.000004" width="50mm" xmlns="http://www.w3.org/2000/svg"><circle cx="25" cy="25" fill="#f5a312" r="25" stroke-width=".264583"/><g fill="none" transform="matrix(.08153868 0 0 .08153868 11.540553 6.624537)"><path d="m254.529 115.183c-31.167-15.2781-115.324-29.0208-151.762-33.7016 0 0-26.9393 4.9233-43.6101 10.1105-18.0228 5.6079-44.1913 17.9741-44.1913 17.9741-7.55897 3.37 105.0514 25.089 152.3434 33.701 59.542-14.379 90.708-25.276 87.22-28.084z" fill="#fcffff" stroke="#000" stroke-width="13.3897"/><path d="m15.2311 110.904c-.0071.065-.0141.129-.0212.194 5.6511 2.611 127.0711 30.812 153.1711 32.955 5.802.477 26.786-5.618 88.512-26.968 5.823-5.057 0 273.058-4.076 278.115-4.076 5.056-27.951 25.845-84.436 27.53-45.188 1.349-156.6438-27.53-153.1499-32.587-14.890362-87.548-6.23114-222.372-.0212-279.045-.2748-.127-.2759-.194.0212-.194z" fill="#000"/><g stroke="#000"><path d="m15.2311 110.904c-6.21138 56.56-14.907332 191.591 0 279.239-3.4939 5.057 107.9619 33.936 153.1499 32.587 56.485-1.685 80.36-22.474 84.436-27.53 4.076-5.057 9.899-283.172 4.076-278.115-61.726 21.35-82.71 27.445-88.512 26.968-27.369-2.247-159.55539-33.149-153.1499-33.149z" stroke-width="13.3897"/><path d="m54.1255 94.7217 155.0595 38.2483" stroke-width="6.69486"/><path d="m227.44 28.9516-20.88 85.4554c-9.574 6.668-18.183 1.819-21.291-1.439 6.464-24.7092 20.221-78.1854 23.533-94.4206 3.311-16.23511 21.663-16.06106 30.425-13.94465 0 0 89.806 36.77995 92.798 40.51905 2.991 3.7392-.748 15.7044-7.479 15.7044l-90.584-38.8631c-.263 3.6398-4.458 6.1756-6.522 6.9885z" fill="#000" stroke-linecap="round" stroke-linejoin="round" stroke-width="6.69486"/><path d="m13.3281 240.36 80.9175-89.87-26.9725 60.983h71.9269l-98.8994 160.483 41.9572-125.176z" fill="#fcffff" stroke-linecap="round" stroke-linejoin="round" stroke-width="4.78666"/></g><path d="m159.541 421.479s10.951-343.4526-2.51-256.705c-13.461 86.748 8.52 239.255-54.592 247.98 24.043 8.725 43.077 9.694 57.102 8.725z" fill="#fcffff"/><path d="m222.291 201.419-48.059-49.478 40.383-13.401 40.383-13.4-27.367 76.279z" fill="#fcffff" stroke="#fcffff" stroke-linecap="round" stroke-linejoin="round" stroke-width="5.98264"/><path d="m211.624 128.131 13.461 80.766" stroke="#000" stroke-width="5.98264"/><ellipse cx="329.40799" cy="53.621201" fill="#000" rx="7.15618" ry="11.7913" transform="matrix(.89929994 .43733238 -.43733238 .89929994 56.621691 -138.661127)"/></g></svg>